<svg width="20" height="20" viewBox="0 0 19 11" xmlns="http://www.w3.org/2000/svg"><title>Preview</title><path d="M11.267 5.274c0 1.03-.878 1.866-1.962 1.866-1.083 0-1.962-.835-1.962-1.866 0-1.03.879-1.866 1.962-1.866 1.084 0 1.962.835 1.962 1.866M9.305 8.807c-2.052 0-3.715-1.582-3.715-3.533 0-1.952 1.663-3.534 3.715-3.534 2.052 0 3.715 1.582 3.715 3.534 0 1.951-1.663 3.533-3.715 3.533m0-8.807C4.166 0 0 5.248 0 5.248s4.166 5.3 9.305 5.3c5.14 0 9.305-5.3 9.305-5.3S14.444 0 9.305 0" class="ampstart-icon ampstart-icon-preview"/></svg>
