<svg xmlns="http://www.w3.org/2000/svg" viewBox="0 0 37 35"><path d="M.8.476c-.4 0-.8.3-.8.8s.4.9.8.9h4.4l4.4 21.6c0 .5.4 1 .9.9h21c.4 0 .9-.4.9-.9s-.4-.9-.9-.9H11.2l-.7-3.5h22.7c.4 0 .7-.3.8-.7l2.9-13c.1-.5-.3-1.1-.8-1.1H7.5l-.8-3.5c-.1-.3-.4-.6-.8-.6H.8zm7 6h27.3l-2.6 11.3H10.1l-2.3-11.3zm6.9 19.9c-2.1 0-3.8 1.8-3.8 3.9s1.7 3.9 3.8 3.9c2.1 0 3.8-1.8 3.8-3.9 0-2.1-1.7-3.9-3.8-3.9zm12.6 0c-2.1 0-3.8 1.8-3.8 3.9s1.7 3.9 3.8 3.9c2.1 0 3.8-1.8 3.8-3.9 0-2.1-1.7-3.9-3.8-3.9zm-12.6 1.7c1.2 0 2.1 1 2.1 2.2 0 1.2-.9 2.2-2.1 2.2-1.2 0-2.1-1-2.1-2.2 0-1.2.9-2.2 2.1-2.2zm12.6 0c1.2 0 2.1 1 2.1 2.2 0 1.2-.9 2.2-2.1 2.2-1.2 0-2.1-1-2.1-2.2 0-1.2 1-2.2 2.1-2.2z" fill="#222"/></svg>