<svg xmlns="http://www.w3.org/2000/svg" width="56" height="55" viewBox="0 0 56 55">
  <title>
    Facebook
  </title>
  <desc>
    Created with Sketch.
  </desc>
  <defs>
    <filter x="-50" y="-50" width="200" height="200" filterUnits="objectBoundingBox">
      <feOffset dx="0" dy="2" in="SourceAlpha" result="shadowOffsetOuter1"/>
      <feGaussianBlur stdDeviation="4" in="shadowOffsetOuter1" result="shadowBlurOuter1"/>
      <feComposite in="shadowBlurOuter1" in2="SourceAlpha" operator="out" result="shadowBlurOuter1"/>
      <feColorMatrix values="0 0 0 0 0   0 0 0 0 0   0 0 0 0 0  0 0 0 0.5 0" type="matrix" in="shadowBlurOuter1" result="shadowMatrixOuter1"/>
      <feMerge>
        <feMergeNode in="shadowMatrixOuter1"/>
        <feMergeNode in="SourceGraphic"/>
      </feMerge>
    </filter>
    <filter x="-50" y="-50" width="200" height="200" filterUnits="objectBoundingBox" id="filter-2">
      <feGaussianBlur stdDeviation="0" in="SourceGraphic"/>
    </filter>
  </defs>
  <g fill="none">
    <g class="fb" fill="#0250AA">
      <g filter="url(#filter-2)">
          <path d="M47.5 43C47.5 44.2 46.6 45.1 45.4 45.1L35.4 45.1 35.4 30 40.5 30 41.3 24.1 35.4 24.1 35.4 20.4C35.4 18.7 35.9 17.5 38.4 17.5L41.5 17.5 41.5 12.2C40.9 12.2 39.1 12 36.9 12 32.4 12 29.4 14.7 29.4 19.8L29.4 24.1 24.3 24.1 24.3 30 29.4 30 29.4 45.1 10.7 45.1C9.5 45.1 8.5 44.2 8.5 43L8.5 8.3C8.5 7.1 9.5 6.1 10.7 6.1L45.4 6.1C46.6 6.1 47.5 7.1 47.5 8.3L47.5 43"/>
      </g>
    </g>
  </g>
</svg>