<svg xmlns="http://www.w3.org/2000/svg" viewBox="0 0 24 24" width="24" height="24"><path d="M13.299 2.004a1.746 1.746 0 0 0-.672.096 1.64 1.64 0 0 0-1.032 2.087l.696 2.039-3.935 1.32-.648-1.967a1.64 1.64 0 0 0-2.087-1.032 1.652 1.652 0 0 0-1.056 2.087l.648 1.944-2.04.696c-.868.29-1.322 1.244-1.032 2.111s1.22 1.322 2.087 1.032l2.039-.672 1.32 3.911-1.968.648a1.64 1.64 0 0 0-1.032 2.087 1.652 1.652 0 0 0 2.087 1.056L8.62 18.8l.696 2.039c.29.868 1.244 1.322 2.111 1.032a1.64 1.64 0 0 0 1.032-2.087l-.672-2.039 3.911-1.32.648 1.968a1.64 1.64 0 0 0 2.087 1.032 1.653 1.653 0 0 0 1.056-2.087l-.648-1.944 2.039-.696c.868-.29 1.322-1.244 1.032-2.111a1.64 1.64 0 0 0-2.087-1.032l-2.039.672-1.32-3.911 1.968-.648a1.64 1.64 0 0 0 1.032-2.087 1.652 1.652 0 0 0-2.087-1.056l-1.944.648-.696-2.039a1.654 1.654 0 0 0-1.44-1.13zm.024 7.366l1.32 3.911-3.911 1.32-1.32-3.911 3.911-1.32z" class="ampstart-icon"/></svg>