<svg xmlns="http://www.w3.org/2000/svg" width="53" height="49" viewBox="0 0 53 49">
  <title>
    Twitter
  </title>
  <desc>
    Created with Sketch.
  </desc>
  <defs>
    <filter x="-50" y="-50" width="200" height="200" filterUnits="objectBoundingBox">
      <feOffset dx="0" dy="2" in="SourceAlpha" result="shadowOffsetOuter1"/>
      <feGaussianBlur stdDeviation="4" in="shadowOffsetOuter1" result="shadowBlurOuter1"/>
      <feComposite in="shadowBlurOuter1" in2="SourceAlpha" operator="out" result="shadowBlurOuter1"/>
      <feColorMatrix values="0 0 0 0 0   0 0 0 0 0   0 0 0 0 0  0 0 0 0.5 0" type="matrix" in="shadowBlurOuter1" result="shadowMatrixOuter1"/>
      <feMerge>
        <feMergeNode in="shadowMatrixOuter1"/>
        <feMergeNode in="SourceGraphic"/>
      </feMerge>
    </filter>
    <filter x="-50" y="-50" width="200" height="200" filterUnits="objectBoundingBox" id="filter-2">
      <feGaussianBlur stdDeviation="0" in="SourceGraphic"/>
    </filter>
  </defs>
  <g fill="none">
    <g fill="#000" class="ampstart-icon ampstart-icon-twitter">
      <g filter="url(#filter-2)">
          <path d="M45 6.9C43.4 7.9 41.7 8.5 39.8 8.9 38.3 7.3 36.2 6.3 33.9 6.3 29.4 6.3 25.7 10 25.7 14.6 25.7 15.2 25.8 15.9 25.9 16.5 19.1 16.1 13.1 12.8 9.1 7.8 8.4 9 8 10.5 8 12 8 14.8 9.4 17.4 11.6 18.9 10.3 18.8 9 18.4 7.9 17.8L7.9 17.9C7.9 21.9 10.7 25.3 14.5 26 13.8 26.2 13 26.3 12.3 26.3 11.8 26.3 11.3 26.3 10.8 26.2 11.8 29.5 14.8 31.9 18.4 31.9 15.6 34.1 12.1 35.5 8.2 35.5 7.6 35.5 6.9 35.4 6.3 35.4 9.9 37.7 14.2 39.1 18.8 39.1 33.9 39.1 42.1 26.5 42.1 15.5 42.1 15.2 42.1 14.8 42 14.5 43.6 13.3 45 11.8 46.1 10.2 44.7 10.8 43.1 11.3 41.4 11.5 43.1 10.5 44.4 8.8 45 6.9"/>
      </g>
    </g>
  </g>
</svg>