<svg width="26" height="17" viewBox="0 0 26 17" xmlns="http://www.w3.org/2000/svg"><title>YouTube</title><path d="M16.837 8.242v.126l-6.742 3.396V4.719l6.742 3.396v.127zm8.167-4.707c.05.399.244 2.102.26 3.805v.126c-.018-1.946-.27-3.893-.27-3.893s-.245-1.651-1.003-2.384c-.96-.961-2.04-.961-2.528-1.02C17.94-.075 12.64.017 12.64.017S7.348-.075 3.817.17C3.32.228 2.25.228 1.29 1.189.531 1.913.287 3.573.287 3.573S.05 5.52 0 7.466v1.602c.05 1.946.287 3.893.287 3.893s.244 1.66 1.002 2.384c.96.961 2.031.961 2.528 1.02 3.531.244 8.823.202 8.823.202s5.3.042 8.823-.202c.488-.059 1.567-.059 2.528-1.02.758-.733 1.003-2.384 1.003-2.384s.252-1.947.27-3.893v.126c-.018 1.946-.27 3.893-.27 3.893s-.061.404-.211.9c.157-.508.219-.925.219-.925s.253-1.947.27-3.893V7.34a38.672 38.672 0 0 0-.268-3.805z" fill-rule="evenodd" class="ampstart-icon ampstart-icon-youtube"/></svg>
