<?xml version="1.0" encoding="UTF-8" standalone="no"?>
<svg width="53px" height="49px" viewBox="0 0 53 49" version="1.1" xmlns="http://www.w3.org/2000/svg" xmlns:xlink="http://www.w3.org/1999/xlink">
    <!-- Generator: Sketch 41.2 (35397) - http://www.bohemiancoding.com/sketch -->
    <title>Twitter</title>
    <desc>Created with Sketch.</desc>
    <defs>
        <filter x="-50%" y="-50%" width="200%" height="200%" filterUnits="objectBoundingBox" id="filter-1">
            <feOffset dx="0" dy="2" in="SourceAlpha" result="shadowOffsetOuter1"></feOffset>
            <feGaussianBlur stdDeviation="4" in="shadowOffsetOuter1" result="shadowBlurOuter1"></feGaussianBlur>
            <feComposite in="shadowBlurOuter1" in2="SourceAlpha" operator="out" result="shadowBlurOuter1"></feComposite>
            <feColorMatrix values="0 0 0 0 0   0 0 0 0 0   0 0 0 0 0  0 0 0 0.5 0" type="matrix" in="shadowBlurOuter1" result="shadowMatrixOuter1"></feColorMatrix>
            <feMerge>
                <feMergeNode in="shadowMatrixOuter1"></feMergeNode>
                <feMergeNode in="SourceGraphic"></feMergeNode>
            </feMerge>
        </filter>
        <filter x="-50%" y="-50%" width="200%" height="200%" filterUnits="objectBoundingBox" id="filter-2">
            <feGaussianBlur stdDeviation="0" in="SourceGraphic"></feGaussianBlur>
        </filter>
    </defs>
    <g id="Baseline---helvetica_spacing" stroke="none" stroke-width="1" fill="none" fill-rule="evenodd">
        <g id="sidebar_centered-copy-" transform="translate(-64.000000, -1113.000000)" fill="#0250AA">
            <g id="sidebar_open_centered" filter="url(#filter-2)" transform="translate(1.000000, 0.000000)">
                <g id="social-icons*" transform="translate(69.300000, 1115.100000)">
                    <path d="M38.7250633,4.80585 C37.1450127,5.75295 35.3990886,6.44175 33.5330127,6.8103 C32.0465316,5.2038 29.9220759,4.2 27.5700759,4.2 C23.0617215,4.2 19.4029367,7.9044 19.4029367,12.47295 C19.4029367,13.1208 19.4731139,13.7508 19.6134684,14.35665 C12.8232911,14.0112 6.804,10.72155 2.772,5.7099 C2.06810127,6.9363 1.66617722,8.35905 1.66617722,9.87315 C1.66617722,12.7428 3.108,15.2754 5.30156962,16.75905 C3.96394937,16.71915 2.70182278,16.34325 1.59812658,15.7269 L1.59812658,15.82875 C1.59812658,19.8387 4.41478481,23.184 8.15544304,23.94105 C7.47068354,24.1353 6.74764557,24.2319 6.00227848,24.2319 C5.47594937,24.2319 4.96237975,24.18255 4.46475949,24.08595 C5.50465823,27.3714 8.5201519,29.76435 12.096,29.82735 C9.30060759,32.0481 5.77579747,33.3711 1.94901266,33.3711 C1.28977215,33.3711 0.637974684,33.3333 0,33.2577 C3.61518987,35.6013 7.91194937,36.97155 12.5245063,36.97155 C27.5541266,36.97155 35.7701772,24.36735 35.7701772,13.4337 C35.7701772,13.07355 35.7637975,12.71445 35.7499747,12.36165 C37.3459747,11.19405 38.7325063,9.73875 39.823443,8.07975 C38.3603544,8.73705 36.784557,9.18225 35.1322025,9.38175 C36.8196456,8.35905 38.1147342,6.7368 38.7250633,4.80585" id="Twitter"></path>
                </g>
            </g>
        </g>
    </g>
</svg>