<svg class="travel-icon" viewBox="0 0 100 100"><path fill="currentColor" d="M91.573 93.997a15.786 15.786 0 0 1-8.377-2.22 10.496 10.496 0 0 0-10.63 0c-5.24 2.96-11.51 2.96-16.752 0a9.428 9.428 0 0 0-5.314-1.446 9.422 9.422 0 0 0-5.315 1.448 15.789 15.789 0 0 1-8.376 2.22 15.796 15.796 0 0 1-8.378-2.22 9.42 9.42 0 0 0-5.314-1.447 9.422 9.422 0 0 0-5.315 1.448A15.789 15.789 0 0 1 9.426 94C7.535 93.997 6 92.355 6 90.33s1.535-3.665 3.427-3.665a9.424 9.424 0 0 0 5.314-1.445A15.8 15.8 0 0 1 23.119 83c2.926-.06 5.815.705 8.376 2.22a9.412 9.412 0 0 0 5.315 1.445 9.429 9.429 0 0 0 5.314-1.445A15.789 15.789 0 0 1 50.5 83c2.926-.06 5.815.705 8.376 2.22a10.496 10.496 0 0 0 10.63 0c5.24-2.958 11.51-2.958 16.75 0a9.428 9.428 0 0 0 5.317 1.445c1.892 0 3.427 1.64 3.427 3.665 0 2.024-1.535 3.665-3.427 3.665zM90.293 62h-30.89a1.406 1.406 0 0 1-1.291-1.961 48.605 48.605 0 0 0 3.262-18.51 49.415 49.415 0 0 0-3.264-18.62 1.37 1.37 0 0 1 .33-1.54c.277-.26.65-.39 1.03-.364 17.262 1.17 31.527 22.68 32.527 39.178a1.711 1.711 0 0 1-1.705 1.82zm-1.746 4a2.458 2.458 0 0 1 1.809 4.118 58.618 58.618 0 0 1-9.736 8.3 6.82 6.82 0 0 1-3.724 1.185 19.938 19.938 0 0 0-9.278 2.41 7.646 7.646 0 0 1-7.502-.004 19.895 19.895 0 0 0-9.81-2.414 19.927 19.927 0 0 0-9.82 2.417 6.575 6.575 0 0 1-3.746.98 6.594 6.594 0 0 1-3.754-.984 19.909 19.909 0 0 0-9.812-2.415c-2.76-.05-5.5.49-8.036 1.578A1.525 1.525 0 0 1 13 79.778V68.55A2.547 2.547 0 0 1 15.545 66h73.002zm-37.12-4H7.715a1.717 1.717 0 0 1-1.295-2.844L50.99 7.593A1.713 1.713 0 0 1 54 8.718v50.703c0 .685-.272 1.34-.754 1.825a2.56 2.56 0 0 1-1.818.754z"/></svg>