<svg class="travel-icon" viewBox="0 0 100 100"><path fill="currentColor" d="M34.82 8.913v11.74c0 2.16-1.715 3.912-3.83 3.912-2.117 0-3.832-1.752-3.832-3.913V8.912c0-2.16 1.715-3.912 3.83-3.912 2.117 0 3.833 1.752 3.833 3.913zm57.473 11.74v66.52c0 4.323-3.43 7.827-7.663 7.827H15.663C11.43 95 8 91.496 8 87.174V20.652c0-4.322 3.43-7.826 7.663-7.826h5.747c1.058 0 1.916.876 1.916 1.957v5.533c-.067 4.114 2.913 7.618 6.91 8.125a7.563 7.563 0 0 0 5.9-1.988 7.906 7.906 0 0 0 2.516-5.8v-5.87c0-1.08.858-1.956 1.916-1.956h19.157c1.058 0 1.916.876 1.916 1.957v5.533c-.066 4.114 2.914 7.617 6.912 8.125a7.56 7.56 0 0 0 5.898-1.988 7.903 7.903 0 0 0 2.517-5.8v-5.87c0-1.08.858-1.956 1.916-1.956h5.747c4.232 0 7.663 3.504 7.663 7.826zM82.715 44.13H17.58c-1.06 0-1.917.877-1.917 1.957v39.13c0 1.08.858 1.957 1.916 1.957h65.135c1.058 0 1.915-.876 1.915-1.957v-39.13c0-.52-.2-1.017-.56-1.384a1.902 1.902 0 0 0-1.355-.573zM69.305 5c2.115 0 3.83 1.752 3.83 3.913v11.74c0 2.16-1.715 3.912-3.83 3.912-2.117 0-3.832-1.752-3.832-3.913V8.912c0-1.037.403-2.032 1.122-2.766A3.79 3.79 0 0 1 69.305 5z"/></svg>