<svg class="travel-icon" viewBox="0 0 86 100"><path fill="currentColor" d="M81.637 15.817L48.46 58.92a6.995 6.995 0 0 0-1.454 4.27v17.15c-.004.843.6 1.568 1.43 1.72 5.734 1.04 14.485 2.664 14.665 2.7.816.175 1.39.907 1.363 1.74v1.75a1.75 1.75 0 0 1-1.75 1.75H24.286a1.75 1.75 0 0 1-1.75-1.75V86.5a1.723 1.723 0 0 1 1.36-1.74c.18-.036 8.933-1.66 14.666-2.7a1.743 1.743 0 0 0 1.43-1.72V63.187a6.99 6.99 0 0 0-1.453-4.268L5.363 15.817A1.75 1.75 0 0 1 6.75 13h73.5a1.751 1.751 0 0 1 1.387 2.817zM48 43c2.76 0 5-2.24 5-5s-2.24-5-5-5a5.002 5.002 0 0 0-3.536 8.535A5.001 5.001 0 0 0 48 43zm20.565-23h-50.13a.435.435 0 0 0-.39.244.44.44 0 0 0 .045.46l4.428 5.784c.247.323.63.512 1.035.512h39.894c.405 0 .788-.19 1.035-.512l4.428-5.784c.1-.132.118-.31.045-.46a.433.433 0 0 0-.39-.244z"/></svg>