<svg class="travel-icon" viewBox="0 0 72 100"><path fill="currentColor" d="M61.4 94h-3.6c-1.988 0-3.6-1.64-3.6-3.666v-31.14a3.612 3.612 0 0 0-1.214-2.74C50.934 54.666 47 49.83 47 38.998c0-21.942 8.905-33.096 16.295-33 .962.04 1.718.853 1.705 1.833v82.5a3.7 3.7 0 0 1-1.055 2.593A3.558 3.558 0 0 1 61.4 94zM24.57 57.725v32.608c0 2.025-1.662 3.667-3.713 3.667h-3.714c-2.05 0-3.714-1.642-3.714-3.667V57.725C13.43 49.117 6 50.713 6 39c0-9.686 1.453-28.055 1.79-32.17A.912.912 0 0 1 8.713 6h1.95c.505 0 .917.398.93.895 0 0 .607 25.564.63 26.59a1.904 1.904 0 0 0 1.9 1.85 1.903 1.903 0 0 0 1.93-1.82l1.054-26.634c.02-.49.43-.88.93-.88h1.927c.5 0 .91.39.93.88 0 0 1.013 25.62 1.052 26.636a1.906 1.906 0 0 0 1.93 1.82 1.904 1.904 0 0 0 1.9-1.85l.632-26.59a.924.924 0 0 1 .93-.896h1.95a.913.913 0 0 1 .923.832C30.548 10.945 32 29.314 32 39c0 11.715-7.43 10.105-7.43 18.725z"/></svg>