<svg class="travel-icon" viewBox="0 0 100 100"><path fill="currentColor" d="M83.563 24.417c-1.02 0-2 .406-2.723 1.128L63.3 43.09a1.608 1.608 0 0 0-.117 2.118c5.59 7.328 5.782 13.566 1.213 18.132-4.354 4.35-6.927 4.78-9.513 7.366-2.587 2.586-.266 9.583-7.574 16.887s-18.113 8.39-30.704-4.194C4.016 70.813 5.102 60.015 12.41 52.71c7.308-7.304 14.36-4.933 16.946-7.52 2.585-2.584 2.965-5.206 7.32-9.557 4.564-4.563 10.8-4.377 18.123 1.198.634.496 1.54.446 2.114-.12l17.546-17.55a3.849 3.849 0 0 0 1.128-2.723c0-1.02.405-2 1.128-2.723L82.96 7.47c.396-.398.97-.558 1.513-.423a11.872 11.872 0 0 1 5.47 3.012 11.867 11.867 0 0 1 3.01 5.47 1.591 1.591 0 0 1-.422 1.512l-6.245 6.248a3.855 3.855 0 0 1-2.722 1.127zm-59.25 39.996l-.906.906a1.406 1.406 0 0 0-.123 1.837c1.576 2.132 1.986 4.675 3.435 6.124 1.448 1.45 3.992 1.86 6.123 3.436.558.42 1.342.37 1.838-.123l.907-.906a1.41 1.41 0 0 0 0-1.993l-9.28-9.28a1.408 1.408 0 0 0-1.993-.001zM45.504 48a6.5 6.5 0 1 0-9.193 9.192 6.5 6.5 0 0 0 13.786-7.288A6.488 6.488 0 0 0 45.502 48z"/></svg>