<svg class="travel-icon" viewBox="0 0 76 100"><path fill="currentColor" d="M71.57 71a16.245 16.245 0 0 1-12.498 5.385 38.102 38.102 0 0 1-9.7-1.494A23.872 23.872 0 0 1 38 78a23.847 23.847 0 0 1-11.37-3.11 38.088 38.088 0 0 1-9.702 1.495A16.25 16.25 0 0 1 4.428 71a1.625 1.625 0 0 1 .145-2.337 68.925 68.925 0 0 0 14.152-16.12c-1.54-.54-3-1.283-4.338-2.213a1.612 1.612 0 0 1-.71-1.186c-.045-.482.13-.958.476-1.297a86.822 86.822 0 0 0 13.264-17.103 18.438 18.438 0 0 1-3.132-1.24 1.616 1.616 0 0 1-.88-1.183 1.61 1.61 0 0 1 .455-1.4A51.206 51.206 0 0 0 36.49 7.984C36.752 7.386 37.344 7 38 7s1.248.386 1.51.983A51.206 51.206 0 0 0 52.14 26.92a1.604 1.604 0 0 1-.426 2.583c-1.002.51-2.05.924-3.13 1.24a86.87 86.87 0 0 0 13.263 17.104c.346.34.52.815.476 1.297a1.61 1.61 0 0 1-.71 1.186 18.16 18.16 0 0 1-4.338 2.214 68.96 68.96 0 0 0 14.15 16.12c.34.285.545.696.572 1.137.027.442-.127.875-.426 1.2zm-40.75 9.75a.825.825 0 0 1 .328-.594.758.758 0 0 1 .645-.13c3.75.988 7.675.987 11.424-.003.223-.056.458-.01.645.13s.307.356.33.594A40.69 40.69 0 0 0 46.92 92.3c.146.396.09.84-.15 1.184a1.177 1.177 0 0 1-1.032.514H29.264a1.179 1.179 0 0 1-1.035-.514 1.292 1.292 0 0 1-.15-1.184 40.73 40.73 0 0 0 2.74-11.55z"/></svg>