<svg class="travel-icon" viewBox="0 0 100 100"><path fill="currentColor" d="M89.35 47.336h-2.49l.303 3.358c.24 2.65.36 5.304.36 7.966v18.007c0 4.05-3.27 7.333-7.305 7.333H21.783c-4.035 0-7.305-3.283-7.305-7.333V58.66c0-2.66.12-5.315.36-7.966l.304-3.358h-2.49A3.658 3.658 0 0 1 9 43.67v-11a3.659 3.659 0 0 1 3.652-3.665h4.15l.97-10.72a7.327 7.327 0 0 1 4.274-6.024A77.014 77.014 0 0 1 51 7.007a77.011 77.011 0 0 1 28.954 5.255 7.327 7.327 0 0 1 4.273 6.026l.97 10.72h4.15A3.658 3.658 0 0 1 93 32.673v11a3.659 3.659 0 0 1-3.65 3.666zM74.5 72c3.038 0 5.5-2.24 5.5-5s-2.462-5-5.5-5-5.5 2.24-5.5 5 2.462 5 5.5 5zM27 72c2.76 0 5-2.24 5-5s-2.24-5-5-5a5.002 5.002 0 0 0-3.535 8.536A5.002 5.002 0 0 0 27 72zm34.375-60h-21.75C37.623 12 36 13.567 36 15.5s1.623 3.5 3.625 3.5h21.75C63.377 19 65 17.433 65 15.5S63.377 12 61.375 12zm19.61 38.726l-2.095-22.43c-.186-1.877-1.795-3.306-3.713-3.296H27.82c-1.917-.01-3.526 1.42-3.712 3.297l-2.097 22.43c-.072.844.22 1.68.805 2.304.585.624 1.41.976 2.273.97h52.856a3.064 3.064 0 0 0 2.25-.96c.58-.616.867-1.444.795-2.28l-.004-.034zM19.876 87h11.25C32.16 87 33 87.784 33 88.75v1.75c0 1.933-1.68 3.5-3.75 3.5h-7.5C19.68 94 18 92.433 18 90.5v-1.75c0-.464.198-.91.55-1.237.35-.33.828-.513 1.325-.513zm51 0h11.25C83.16 87 84 87.784 84 88.75v1.75c0 1.933-1.68 3.5-3.75 3.5h-7.5C70.68 94 69 92.433 69 90.5v-1.75c0-.464.198-.91.55-1.237.35-.33.828-.513 1.325-.513z"/></svg>