<svg class="travel-icon" viewBox="0 0 86 100"><path fill="currentColor" d="M81.637 15.817L48.46 58.92c-.943 1.224-1.454 2.725-1.454 4.27v17.15c-.004.843.6 1.568 1.43 1.72 5.734 1.04 14.485 2.664 14.665 2.7.816.175 1.39.907 1.363 1.74v1.75c0 .967-.784 1.75-1.75 1.75H24.286c-.967 0-1.75-.783-1.75-1.75V86.5c-.027-.833.546-1.565 1.36-1.74.18-.036 8.933-1.66 14.666-2.7.83-.152 1.434-.877 1.43-1.72V63.187c0-1.544-.51-3.044-1.453-4.268L5.363 15.817c-.406-.528-.478-1.242-.183-1.84.295-.598.904-.977 1.57-.977h73.5c.667 0 1.276.38 1.57.977.295.6.223 1.312-.183 1.84zM48 43c2.76 0 5-2.24 5-5s-2.24-5-5-5-5 2.24-5 5c0 1.326.527 2.598 1.464 3.535C45.402 42.473 46.674 43 48 43zm20.565-23h-50.13c-.166 0-.317.095-.39.244-.073.15-.056.328.045.46l4.428 5.784c.247.323.63.512 1.035.512h39.894c.405 0 .788-.19 1.035-.512l4.428-5.784c.1-.132.118-.31.045-.46-.073-.15-.224-.244-.39-.244z"/></svg>
