<svg class="travel-icon" viewBox="0 0 72 100"><path fill="currentColor" d="M61.4 94h-3.6c-1.988 0-3.6-1.64-3.6-3.666v-31.14c.01-1.05-.435-2.052-1.214-2.74C50.934 54.666 47 49.83 47 38.998c0-21.942 8.905-33.096 16.295-33 .962.04 1.718.853 1.705 1.833v82.5c0 .974-.38 1.906-1.055 2.593C63.27 93.614 62.355 94 61.4 94zM24.57 57.725v32.608c0 2.025-1.662 3.667-3.713 3.667h-3.714c-2.05 0-3.714-1.642-3.714-3.667V57.725C13.43 49.117 6 50.713 6 39c0-9.686 1.453-28.055 1.79-32.17.04-.473.442-.835.923-.83h1.95c.505 0 .917.398.93.895 0 0 .607 25.564.63 26.59.024 1.024.865 1.843 1.9 1.85 1.037.01 1.89-.797 1.93-1.82l1.054-26.634c.02-.49.43-.88.93-.88h1.927c.5 0 .91.39.93.88 0 0 1.013 25.62 1.052 26.636.04 1.022.894 1.828 1.93 1.82 1.036-.008 1.877-.827 1.9-1.85l.632-26.59c.012-.498.424-.896.93-.896h1.95c.48-.005.884.358.923.832C30.548 10.945 32 29.314 32 39c0 11.715-7.43 10.105-7.43 18.725z"/></svg>
