<svg class="travel-icon" viewBox="0 0 100 100"><g fill="currentColor"><path d="M77 74v18.312C77 94.35 78.79 96 81 96s4-1.65 4-3.688V74h-8zm0-37V6.778C77 4.69 78.79 3 81 3s4 1.69 4 3.778V37h-8zM47 52v41.24c0 2.076 1.79 3.76 4 3.76s4-1.684 4-3.76V52h-8zm0-38V6.667C47 4.642 48.79 3 51 3s4 1.642 4 3.667V14h-8zM16 86v7.29c0 2.05 1.79 3.71 4 3.71s4-1.66 4-3.71V86h-8zm0-38V6.75C16 4.68 17.79 3 20 3s4 1.68 4 3.75V48h-8z"/><circle cx="20.5" cy="67.5" r="11.5"/><circle cx="50.5" cy="33.5" r="11.5"/><circle cx="80.5" cy="55.5" r="11.5"/></g></svg>