<svg class="travel-icon" viewBox="0 0 100 100"><path fill="currentColor" d="M94.93 77.903L85.81 81.79c-.46.196-.98.188-1.435-.022-.454-.21-.798-.602-.946-1.08L71.505 41.745s3.367 47.975 3.497 49.94c.06.945-.265 1.875-.9 2.577-.635.703-1.526 1.12-2.472 1.155l-13.967.578c-.942.042-1.86-.296-2.55-.938-.69-.642-1.095-1.534-1.122-2.477-.048-1.958-1.686-62.796-1.686-62.796-.064-2.527.217-5.05.833-7.503l2.597-9.236c.065-.263.006-.54-.162-.753-.167-.212-.423-.336-.693-.335h-8.76c-.27 0-.526.123-.693.336-.167.213-.227.49-.162.754l2.597 9.24c.616 2.45.897 4.974.833 7.5 0 0-1.638 60.84-1.687 62.798-.027.942-.43 1.835-1.12 2.477-.69.64-1.61.98-2.552.936L29.37 95.42c-.947-.037-1.838-.454-2.473-1.156-.635-.703-.96-1.632-.9-2.577.13-1.965 3.498-49.94 3.498-49.94L17.573 80.688c-.148.477-.492.87-.946 1.08-.454.21-.976.217-1.436.02L6.07 77.904c-.806-.34-1.236-1.227-1.006-2.072.23-.844 12.75-46.918 13.806-50.765 1.062-3.854 3.715-7.073 7.294-8.85 3.494-1.524 6.91-3.224 10.233-5.09 1.198-1.102 2.264-2.337 3.178-3.683C40.918 5.89 42.87 5 44.925 5h11.15c2.054-.002 4.008.89 5.352 2.444.915 1.346 1.98 2.58 3.18 3.682 3.323 1.867 6.738 3.567 10.23 5.092 3.58 1.776 6.234 4.995 7.295 8.85 1.056 3.846 13.575 49.92 13.807 50.764.228.845-.202 1.73-1.01 2.07z"/></svg>
