<svg class="travel-icon" viewBox="0 0 70 100"><path fill="currentColor" d="M63.157 50.527h-11.03a9.028 9.028 0 0 1-7.13-3.537c-.78-.97-1.497-1.99-2.14-3.058a.325.325 0 0 0-.297-.123.324.324 0 0 0-.256.196L37.398 55.4a.344.344 0 0 0 .073.38L48.65 66.79a10.925 10.925 0 0 1 3.215 7.238l1.118 17.65c.045 2.225-1.624 4.105-3.82 4.303-2.196.198-4.17-1.352-4.517-3.548l-2.053-16.08a1.358 1.358 0 0 0-.492-.886L31.105 66.64a.317.317 0 0 0-.277-.06.317.317 0 0 0-.218.182l-4.26 9.28a21.584 21.584 0 0 1-3.75 5.635c-1.53 1.66-8.837 10.284-9.574 11.084a4.128 4.128 0 0 1-3.182 1.253c-2.147-.025-3.868-1.8-3.844-3.967 0-.914.3-1.802.858-2.523.555-.716 9.03-12.36 9.247-12.638.216-.282.357-.614.408-.966l1.597-11.13a44.158 44.158 0 0 1 3.7-12.416l6.11-13.06a.344.344 0 0 0-.026-.337.33.33 0 0 0-.303-.144c-.253.027-11.375.68-11.817.728a.981.981 0 0 0-.855.857l-1.526 11.547c-.17 1.49-1.472 2.584-2.957 2.48-1.484-.104-2.625-1.368-2.588-2.87v-12.31c-.028-3.69 2.44-6.928 5.982-7.848 3.51-.88 13.463-2.706 14.595-2.99 3.37-.843 6.93-.426 10.02 1.173l4.477 2.31a10.575 10.575 0 0 1 4.428 4.35c1.022 1.876 3.81 7.288 4 7.638.188.347.52.59.905.664l11.41 2.14a2.94 2.94 0 0 1 2.324 3.142c-.132 1.49-1.35 2.646-2.834 2.682zM43.49 24A9.5 9.5 0 0 1 34 14.492c.004-5.245 4.26-9.494 9.504-9.492a9.5 9.5 0 1 1-.014 19z"/></svg>