<svg xmlns="http://www.w3.org/2000/svg" width="828" height="39" viewBox="0 0 828 39" overflow="visible"><path fill="none" stroke="#EFE5E3" stroke-miterlimit="10" d="M414 .5c6.468 0 6.468 4 12.937 4 6.467 0 6.467-4 12.935-4 6.466 0 6.466 4 12.933 4s6.467-4 12.934-4c6.47 0 6.47 4 12.939 4s6.469-4 12.936-4c6.472 0 6.472 4 12.943 4 6.473 0 6.473-4 12.944-4M414 5.368c6.468 0 6.468 4 12.937 4 6.467 0 6.467-4 12.935-4 6.466 0 6.466 4 12.933 4s6.467-4 12.934-4c6.47 0 6.47 4 12.939 4s6.469-4 12.936-4c6.472 0 6.472 4 12.943 4 6.473 0 6.473-4 12.944-4M414 10.236c6.468 0 6.468 4 12.937 4 6.467 0 6.467-4 12.935-4 6.466 0 6.466 4 12.933 4s6.467-4 12.934-4c6.47 0 6.47 4 12.939 4s6.469-4 12.936-4c6.472 0 6.472 4 12.943 4 6.473 0 6.473-4 12.944-4M414 15.104c6.468 0 6.468 4 12.937 4 6.467 0 6.467-4 12.935-4 6.466 0 6.466 4 12.933 4s6.467-4 12.934-4c6.47 0 6.47 4 12.939 4s6.469-4 12.936-4c6.472 0 6.472 4 12.943 4 6.473 0 6.473-4 12.944-4M414 19.972c6.468 0 6.468 4 12.937 4 6.467 0 6.467-4 12.935-4 6.466 0 6.466 4 12.933 4s6.467-4 12.934-4c6.47 0 6.47 4 12.939 4s6.469-4 12.936-4c6.472 0 6.472 4 12.943 4 6.473 0 6.473-4 12.944-4M414 24.84c6.468 0 6.468 4 12.937 4 6.467 0 6.467-4 12.935-4 6.466 0 6.466 4 12.933 4s6.467-4 12.934-4c6.47 0 6.47 4 12.939 4s6.469-4 12.936-4c6.472 0 6.472 4 12.943 4 6.473 0 6.473-4 12.944-4M414 29.708c6.468 0 6.468 4 12.937 4 6.467 0 6.467-4 12.935-4 6.466 0 6.466 4 12.933 4s6.467-4 12.934-4c6.47 0 6.47 4 12.939 4s6.469-4 12.936-4c6.472 0 6.472 4 12.943 4 6.473 0 6.473-4 12.944-4M414 34.576c6.468 0 6.468 4 12.937 4 6.467 0 6.467-4 12.935-4 6.466 0 6.466 4 12.933 4s6.467-4 12.934-4c6.47 0 6.47 4 12.939 4s6.469-4 12.936-4c6.472 0 6.472 4 12.943 4 6.473 0 6.473-4 12.944-4"/><path fill="none" stroke="#EFE5E3" stroke-miterlimit="10" d="M517.5.5c6.468 0 6.468 4 12.937 4 6.467 0 6.467-4 12.935-4 6.466 0 6.466 4 12.933 4s6.467-4 12.934-4c6.47 0 6.47 4 12.939 4s6.469-4 12.936-4c6.472 0 6.472 4 12.943 4 6.473 0 6.473-4 12.944-4M517.5 5.368c6.468 0 6.468 4 12.937 4 6.467 0 6.467-4 12.935-4 6.466 0 6.466 4 12.933 4s6.467-4 12.934-4c6.47 0 6.47 4 12.939 4s6.469-4 12.936-4c6.472 0 6.472 4 12.943 4 6.473 0 6.473-4 12.944-4M517.5 10.236c6.468 0 6.468 4 12.937 4 6.467 0 6.467-4 12.935-4 6.466 0 6.466 4 12.933 4s6.467-4 12.934-4c6.47 0 6.47 4 12.939 4s6.469-4 12.936-4c6.472 0 6.472 4 12.943 4 6.473 0 6.473-4 12.944-4M517.5 15.104c6.468 0 6.468 4 12.937 4 6.467 0 6.467-4 12.935-4 6.466 0 6.466 4 12.933 4s6.467-4 12.934-4c6.47 0 6.47 4 12.939 4s6.469-4 12.936-4c6.472 0 6.472 4 12.943 4 6.473 0 6.473-4 12.944-4M517.5 19.972c6.468 0 6.468 4 12.937 4 6.467 0 6.467-4 12.935-4 6.466 0 6.466 4 12.933 4s6.467-4 12.934-4c6.47 0 6.47 4 12.939 4s6.469-4 12.936-4c6.472 0 6.472 4 12.943 4 6.473 0 6.473-4 12.944-4M517.5 24.84c6.468 0 6.468 4 12.937 4 6.467 0 6.467-4 12.935-4 6.466 0 6.466 4 12.933 4s6.467-4 12.934-4c6.47 0 6.47 4 12.939 4s6.469-4 12.936-4c6.472 0 6.472 4 12.943 4 6.473 0 6.473-4 12.944-4M517.5 29.708c6.468 0 6.468 4 12.937 4 6.467 0 6.467-4 12.935-4 6.466 0 6.466 4 12.933 4s6.467-4 12.934-4c6.47 0 6.47 4 12.939 4s6.469-4 12.936-4c6.472 0 6.472 4 12.943 4 6.473 0 6.473-4 12.944-4M517.5 34.576c6.468 0 6.468 4 12.937 4 6.467 0 6.467-4 12.935-4 6.466 0 6.466 4 12.933 4s6.467-4 12.934-4c6.47 0 6.47 4 12.939 4s6.469-4 12.936-4c6.472 0 6.472 4 12.943 4 6.473 0 6.473-4 12.944-4"/><path fill="none" stroke="#EFE5E3" stroke-miterlimit="10" d="M621 .5c6.468 0 6.468 4 12.937 4 6.467 0 6.467-4 12.935-4 6.466 0 6.466 4 12.933 4s6.467-4 12.934-4c6.47 0 6.47 4 12.939 4s6.469-4 12.936-4c6.472 0 6.472 4 12.943 4 6.473 0 6.473-4 12.944-4M621 5.368c6.468 0 6.468 4 12.937 4 6.467 0 6.467-4 12.935-4 6.466 0 6.466 4 12.933 4s6.467-4 12.934-4c6.47 0 6.47 4 12.939 4s6.469-4 12.936-4c6.472 0 6.472 4 12.943 4 6.473 0 6.473-4 12.944-4M621 10.236c6.468 0 6.468 4 12.937 4 6.467 0 6.467-4 12.935-4 6.466 0 6.466 4 12.933 4s6.467-4 12.934-4c6.47 0 6.47 4 12.939 4s6.469-4 12.936-4c6.472 0 6.472 4 12.943 4 6.473 0 6.473-4 12.944-4M621 15.104c6.468 0 6.468 4 12.937 4 6.467 0 6.467-4 12.935-4 6.466 0 6.466 4 12.933 4s6.467-4 12.934-4c6.47 0 6.47 4 12.939 4s6.469-4 12.936-4c6.472 0 6.472 4 12.943 4 6.473 0 6.473-4 12.944-4M621 19.972c6.468 0 6.468 4 12.937 4 6.467 0 6.467-4 12.935-4 6.466 0 6.466 4 12.933 4s6.467-4 12.934-4c6.47 0 6.47 4 12.939 4s6.469-4 12.936-4c6.472 0 6.472 4 12.943 4 6.473 0 6.473-4 12.944-4M621 24.84c6.468 0 6.468 4 12.937 4 6.467 0 6.467-4 12.935-4 6.466 0 6.466 4 12.933 4s6.467-4 12.934-4c6.47 0 6.47 4 12.939 4s6.469-4 12.936-4c6.472 0 6.472 4 12.943 4 6.473 0 6.473-4 12.944-4M621 29.708c6.468 0 6.468 4 12.937 4 6.467 0 6.467-4 12.935-4 6.466 0 6.466 4 12.933 4s6.467-4 12.934-4c6.47 0 6.47 4 12.939 4s6.469-4 12.936-4c6.472 0 6.472 4 12.943 4 6.473 0 6.473-4 12.944-4M621 34.576c6.468 0 6.468 4 12.937 4 6.467 0 6.467-4 12.935-4 6.466 0 6.466 4 12.933 4s6.467-4 12.934-4c6.47 0 6.47 4 12.939 4s6.469-4 12.936-4c6.472 0 6.472 4 12.943 4 6.473 0 6.473-4 12.944-4"/><path fill="none" stroke="#EFE5E3" stroke-miterlimit="10" d="M724.5.5c6.468 0 6.468 4 12.937 4 6.467 0 6.467-4 12.935-4 6.466 0 6.466 4 12.933 4s6.467-4 12.934-4c6.47 0 6.47 4 12.939 4s6.469-4 12.936-4c6.472 0 6.472 4 12.943 4 6.473 0 6.473-4 12.944-4M724.5 5.368c6.468 0 6.468 4 12.937 4 6.467 0 6.467-4 12.935-4 6.466 0 6.466 4 12.933 4s6.467-4 12.934-4c6.47 0 6.47 4 12.939 4s6.469-4 12.936-4c6.472 0 6.472 4 12.943 4 6.473 0 6.473-4 12.944-4M724.5 10.236c6.468 0 6.468 4 12.937 4 6.467 0 6.467-4 12.935-4 6.466 0 6.466 4 12.933 4s6.467-4 12.934-4c6.47 0 6.47 4 12.939 4s6.469-4 12.936-4c6.472 0 6.472 4 12.943 4 6.473 0 6.473-4 12.944-4M724.5 15.104c6.468 0 6.468 4 12.937 4 6.467 0 6.467-4 12.935-4 6.466 0 6.466 4 12.933 4s6.467-4 12.934-4c6.47 0 6.47 4 12.939 4s6.469-4 12.936-4c6.472 0 6.472 4 12.943 4 6.473 0 6.473-4 12.944-4M724.5 19.972c6.468 0 6.468 4 12.937 4 6.467 0 6.467-4 12.935-4 6.466 0 6.466 4 12.933 4s6.467-4 12.934-4c6.47 0 6.47 4 12.939 4s6.469-4 12.936-4c6.472 0 6.472 4 12.943 4 6.473 0 6.473-4 12.944-4M724.5 24.84c6.468 0 6.468 4 12.937 4 6.467 0 6.467-4 12.935-4 6.466 0 6.466 4 12.933 4s6.467-4 12.934-4c6.47 0 6.47 4 12.939 4s6.469-4 12.936-4c6.472 0 6.472 4 12.943 4 6.473 0 6.473-4 12.944-4M724.5 29.708c6.468 0 6.468 4 12.937 4 6.467 0 6.467-4 12.935-4 6.466 0 6.466 4 12.933 4s6.467-4 12.934-4c6.47 0 6.47 4 12.939 4s6.469-4 12.936-4c6.472 0 6.472 4 12.943 4 6.473 0 6.473-4 12.944-4M724.5 34.576c6.468 0 6.468 4 12.937 4 6.467 0 6.467-4 12.935-4 6.466 0 6.466 4 12.933 4s6.467-4 12.934-4c6.47 0 6.47 4 12.939 4s6.469-4 12.936-4c6.472 0 6.472 4 12.943 4 6.473 0 6.473-4 12.944-4M0 .5c6.468 0 6.468 4 12.936 4 6.467 0 6.467-4 12.935-4 6.466 0 6.466 4 12.932 4 6.467 0 6.467-4 12.934-4 6.47 0 6.47 4 12.94 4 6.468 0 6.468-4 12.935-4 6.472 0 6.472 4 12.944 4s6.472-4 12.944-4M0 5.368c6.468 0 6.468 4 12.936 4 6.467 0 6.467-4 12.935-4 6.466 0 6.466 4 12.932 4 6.467 0 6.467-4 12.934-4 6.47 0 6.47 4 12.94 4 6.468 0 6.468-4 12.935-4 6.472 0 6.472 4 12.944 4s6.472-4 12.944-4M0 10.236c6.468 0 6.468 4 12.936 4 6.467 0 6.467-4 12.935-4 6.466 0 6.466 4 12.932 4 6.467 0 6.467-4 12.934-4 6.47 0 6.47 4 12.94 4 6.468 0 6.468-4 12.935-4 6.472 0 6.472 4 12.944 4s6.472-4 12.944-4M0 15.104c6.468 0 6.468 4 12.936 4 6.467 0 6.467-4 12.935-4 6.466 0 6.466 4 12.932 4 6.467 0 6.467-4 12.934-4 6.47 0 6.47 4 12.94 4 6.468 0 6.468-4 12.935-4 6.472 0 6.472 4 12.944 4s6.472-4 12.944-4M0 19.972c6.468 0 6.468 4 12.936 4 6.467 0 6.467-4 12.935-4 6.466 0 6.466 4 12.932 4 6.467 0 6.467-4 12.934-4 6.47 0 6.47 4 12.94 4 6.468 0 6.468-4 12.935-4 6.472 0 6.472 4 12.944 4s6.472-4 12.944-4M0 24.84c6.468 0 6.468 4 12.936 4 6.467 0 6.467-4 12.935-4 6.466 0 6.466 4 12.932 4 6.467 0 6.467-4 12.934-4 6.47 0 6.47 4 12.94 4 6.468 0 6.468-4 12.935-4 6.472 0 6.472 4 12.944 4s6.472-4 12.944-4M0 29.708c6.468 0 6.468 4 12.936 4 6.467 0 6.467-4 12.935-4 6.466 0 6.466 4 12.932 4 6.467 0 6.467-4 12.934-4 6.47 0 6.47 4 12.94 4 6.468 0 6.468-4 12.935-4 6.472 0 6.472 4 12.944 4s6.472-4 12.944-4M0 34.576c6.468 0 6.468 4 12.936 4 6.467 0 6.467-4 12.935-4 6.466 0 6.466 4 12.932 4 6.467 0 6.467-4 12.934-4 6.47 0 6.47 4 12.94 4 6.468 0 6.468-4 12.935-4 6.472 0 6.472 4 12.944 4s6.472-4 12.944-4"/><path fill="none" stroke="#EFE5E3" stroke-miterlimit="10" d="M103.5.5c6.468 0 6.468 4 12.936 4 6.467 0 6.467-4 12.935-4 6.466 0 6.466 4 12.932 4 6.467 0 6.467-4 12.934-4 6.47 0 6.47 4 12.94 4 6.468 0 6.468-4 12.935-4 6.472 0 6.472 4 12.944 4s6.472-4 12.944-4M103.5 5.368c6.468 0 6.468 4 12.936 4 6.467 0 6.467-4 12.935-4 6.466 0 6.466 4 12.932 4 6.467 0 6.467-4 12.934-4 6.47 0 6.47 4 12.94 4 6.468 0 6.468-4 12.935-4 6.472 0 6.472 4 12.944 4s6.472-4 12.944-4M103.5 10.236c6.468 0 6.468 4 12.936 4 6.467 0 6.467-4 12.935-4 6.466 0 6.466 4 12.932 4 6.467 0 6.467-4 12.934-4 6.47 0 6.47 4 12.94 4 6.468 0 6.468-4 12.935-4 6.472 0 6.472 4 12.944 4s6.472-4 12.944-4M103.5 15.104c6.468 0 6.468 4 12.936 4 6.467 0 6.467-4 12.935-4 6.466 0 6.466 4 12.932 4 6.467 0 6.467-4 12.934-4 6.47 0 6.47 4 12.94 4 6.468 0 6.468-4 12.935-4 6.472 0 6.472 4 12.944 4s6.472-4 12.944-4M103.5 19.972c6.468 0 6.468 4 12.936 4 6.467 0 6.467-4 12.935-4 6.466 0 6.466 4 12.932 4 6.467 0 6.467-4 12.934-4 6.47 0 6.47 4 12.94 4 6.468 0 6.468-4 12.935-4 6.472 0 6.472 4 12.944 4s6.472-4 12.944-4M103.5 24.84c6.468 0 6.468 4 12.936 4 6.467 0 6.467-4 12.935-4 6.466 0 6.466 4 12.932 4 6.467 0 6.467-4 12.934-4 6.47 0 6.47 4 12.94 4 6.468 0 6.468-4 12.935-4 6.472 0 6.472 4 12.944 4s6.472-4 12.944-4M103.5 29.708c6.468 0 6.468 4 12.936 4 6.467 0 6.467-4 12.935-4 6.466 0 6.466 4 12.932 4 6.467 0 6.467-4 12.934-4 6.47 0 6.47 4 12.94 4 6.468 0 6.468-4 12.935-4 6.472 0 6.472 4 12.944 4s6.472-4 12.944-4M103.5 34.576c6.468 0 6.468 4 12.936 4 6.467 0 6.467-4 12.935-4 6.466 0 6.466 4 12.932 4 6.467 0 6.467-4 12.934-4 6.47 0 6.47 4 12.94 4 6.468 0 6.468-4 12.935-4 6.472 0 6.472 4 12.944 4s6.472-4 12.944-4M207 .5c6.468 0 6.468 4 12.937 4 6.467 0 6.467-4 12.935-4 6.466 0 6.466 4 12.933 4s6.467-4 12.934-4c6.47 0 6.47 4 12.939 4s6.469-4 12.936-4c6.472 0 6.472 4 12.943 4 6.473 0 6.473-4 12.944-4M207 5.368c6.468 0 6.468 4 12.937 4 6.467 0 6.467-4 12.935-4 6.466 0 6.466 4 12.933 4s6.467-4 12.934-4c6.47 0 6.47 4 12.939 4s6.469-4 12.936-4c6.472 0 6.472 4 12.943 4 6.473 0 6.473-4 12.944-4M207 10.236c6.468 0 6.468 4 12.937 4 6.467 0 6.467-4 12.935-4 6.466 0 6.466 4 12.933 4s6.467-4 12.934-4c6.47 0 6.47 4 12.939 4s6.469-4 12.936-4c6.472 0 6.472 4 12.943 4 6.473 0 6.473-4 12.944-4M207 15.104c6.468 0 6.468 4 12.937 4 6.467 0 6.467-4 12.935-4 6.466 0 6.466 4 12.933 4s6.467-4 12.934-4c6.47 0 6.47 4 12.939 4s6.469-4 12.936-4c6.472 0 6.472 4 12.943 4 6.473 0 6.473-4 12.944-4M207 19.972c6.468 0 6.468 4 12.937 4 6.467 0 6.467-4 12.935-4 6.466 0 6.466 4 12.933 4s6.467-4 12.934-4c6.47 0 6.47 4 12.939 4s6.469-4 12.936-4c6.472 0 6.472 4 12.943 4 6.473 0 6.473-4 12.944-4M207 24.84c6.468 0 6.468 4 12.937 4 6.467 0 6.467-4 12.935-4 6.466 0 6.466 4 12.933 4s6.467-4 12.934-4c6.47 0 6.47 4 12.939 4s6.469-4 12.936-4c6.472 0 6.472 4 12.943 4 6.473 0 6.473-4 12.944-4M207 29.708c6.468 0 6.468 4 12.937 4 6.467 0 6.467-4 12.935-4 6.466 0 6.466 4 12.933 4s6.467-4 12.934-4c6.47 0 6.47 4 12.939 4s6.469-4 12.936-4c6.472 0 6.472 4 12.943 4 6.473 0 6.473-4 12.944-4M207 34.576c6.468 0 6.468 4 12.937 4 6.467 0 6.467-4 12.935-4 6.466 0 6.466 4 12.933 4s6.467-4 12.934-4c6.47 0 6.47 4 12.939 4s6.469-4 12.936-4c6.472 0 6.472 4 12.943 4 6.473 0 6.473-4 12.944-4"/><path fill="none" stroke="#EFE5E3" stroke-miterlimit="10" d="M310.5.5c6.468 0 6.468 4 12.937 4 6.467 0 6.467-4 12.935-4 6.466 0 6.466 4 12.933 4s6.467-4 12.934-4c6.47 0 6.47 4 12.939 4s6.469-4 12.936-4c6.472 0 6.472 4 12.943 4 6.473 0 6.473-4 12.944-4M310.5 5.368c6.468 0 6.468 4 12.937 4 6.467 0 6.467-4 12.935-4 6.466 0 6.466 4 12.933 4s6.467-4 12.934-4c6.47 0 6.47 4 12.939 4s6.469-4 12.936-4c6.472 0 6.472 4 12.943 4 6.473 0 6.473-4 12.944-4M310.5 10.236c6.468 0 6.468 4 12.937 4 6.467 0 6.467-4 12.935-4 6.466 0 6.466 4 12.933 4s6.467-4 12.934-4c6.47 0 6.47 4 12.939 4s6.469-4 12.936-4c6.472 0 6.472 4 12.943 4 6.473 0 6.473-4 12.944-4M310.5 15.104c6.468 0 6.468 4 12.937 4 6.467 0 6.467-4 12.935-4 6.466 0 6.466 4 12.933 4s6.467-4 12.934-4c6.47 0 6.47 4 12.939 4s6.469-4 12.936-4c6.472 0 6.472 4 12.943 4 6.473 0 6.473-4 12.944-4M310.5 19.972c6.468 0 6.468 4 12.937 4 6.467 0 6.467-4 12.935-4 6.466 0 6.466 4 12.933 4s6.467-4 12.934-4c6.47 0 6.47 4 12.939 4s6.469-4 12.936-4c6.472 0 6.472 4 12.943 4 6.473 0 6.473-4 12.944-4M310.5 24.84c6.468 0 6.468 4 12.937 4 6.467 0 6.467-4 12.935-4 6.466 0 6.466 4 12.933 4s6.467-4 12.934-4c6.47 0 6.47 4 12.939 4s6.469-4 12.936-4c6.472 0 6.472 4 12.943 4 6.473 0 6.473-4 12.944-4M310.5 29.708c6.468 0 6.468 4 12.937 4 6.467 0 6.467-4 12.935-4 6.466 0 6.466 4 12.933 4s6.467-4 12.934-4c6.47 0 6.47 4 12.939 4s6.469-4 12.936-4c6.472 0 6.472 4 12.943 4 6.473 0 6.473-4 12.944-4M310.5 34.576c6.468 0 6.468 4 12.937 4 6.467 0 6.467-4 12.935-4 6.466 0 6.466 4 12.933 4s6.467-4 12.934-4c6.47 0 6.47 4 12.939 4s6.469-4 12.936-4c6.472 0 6.472 4 12.943 4 6.473 0 6.473-4 12.944-4"/></svg>