<svg xmlns="http://www.w3.org/2000/svg" width="104" height="39" viewBox="0 0 104 39"><path fill="none" stroke="#EFE5E3" stroke-miterlimit="10" d="M0 .5c6.468 0 6.468 4 12.936 4 6.467 0 6.467-4 12.935-4 6.466 0 6.466 4 12.932 4 6.467 0 6.467-4 12.934-4 6.47 0 6.47 4 12.939 4s6.469-4 12.936-4c6.472 0 6.472 4 12.943 4 6.473 0 6.473-4 12.944-4M0 5.368c6.468 0 6.468 4 12.936 4 6.467 0 6.467-4 12.935-4 6.466 0 6.466 4 12.932 4 6.467 0 6.467-4 12.934-4 6.47 0 6.47 4 12.939 4s6.469-4 12.936-4c6.472 0 6.472 4 12.943 4 6.473 0 6.473-4 12.944-4M0 10.236c6.468 0 6.468 4 12.936 4 6.467 0 6.467-4 12.935-4 6.466 0 6.466 4 12.932 4 6.467 0 6.467-4 12.934-4 6.47 0 6.47 4 12.939 4s6.469-4 12.936-4c6.472 0 6.472 4 12.943 4 6.473 0 6.473-4 12.944-4M0 15.104c6.468 0 6.468 4 12.936 4 6.467 0 6.467-4 12.935-4 6.466 0 6.466 4 12.932 4 6.467 0 6.467-4 12.934-4 6.47 0 6.47 4 12.939 4s6.469-4 12.936-4c6.472 0 6.472 4 12.943 4 6.473 0 6.473-4 12.944-4M0 19.972c6.468 0 6.468 4 12.936 4 6.467 0 6.467-4 12.935-4 6.466 0 6.466 4 12.932 4 6.467 0 6.467-4 12.934-4 6.47 0 6.47 4 12.939 4s6.469-4 12.936-4c6.472 0 6.472 4 12.943 4 6.473 0 6.473-4 12.944-4M0 24.84c6.468 0 6.468 4 12.936 4 6.467 0 6.467-4 12.935-4 6.466 0 6.466 4 12.932 4 6.467 0 6.467-4 12.934-4 6.47 0 6.47 4 12.939 4s6.469-4 12.936-4c6.472 0 6.472 4 12.943 4 6.473 0 6.473-4 12.944-4M0 29.708c6.468 0 6.468 4 12.936 4 6.467 0 6.467-4 12.935-4 6.466 0 6.466 4 12.932 4 6.467 0 6.467-4 12.934-4 6.47 0 6.47 4 12.939 4s6.469-4 12.936-4c6.472 0 6.472 4 12.943 4 6.473 0 6.473-4 12.944-4M0 34.576c6.468 0 6.468 4 12.936 4 6.467 0 6.467-4 12.935-4 6.466 0 6.466 4 12.932 4 6.467 0 6.467-4 12.934-4 6.47 0 6.47 4 12.939 4s6.469-4 12.936-4c6.472 0 6.472 4 12.943 4 6.473 0 6.473-4 12.944-4"/></svg>
