<?xml version="1.0" encoding="utf-8"?>
<!-- Generator: Adobe Illustrator 15.0.0, SVG Export Plug-In  -->
<!DOCTYPE svg PUBLIC "-//W3C//DTD SVG 1.1//EN" "http://www.w3.org/Graphics/SVG/1.1/DTD/svg11.dtd" [
	<!ENTITY ns_flows "http://ns.adobe.com/Flows/1.0/">
]>
<svg version="1.1"
	 xmlns="http://www.w3.org/2000/svg" xmlns:xlink="http://www.w3.org/1999/xlink" xmlns:a="http://ns.adobe.com/AdobeSVGViewerExtensions/3.0/"
	 x="0px" y="0px" width="828px" height="39px" viewBox="0 0 828 39" overflow="visible" enable-background="new 0 0 828 39"
	 xml:space="preserve">
<defs>
</defs>
<path fill="none" stroke="#EFE5E3" stroke-miterlimit="10" d="M414,0.5c6.468,0,6.468,4,12.937,4c6.467,0,6.467-4,12.935-4
	c6.466,0,6.466,4,12.933,4s6.467-4,12.934-4c6.47,0,6.47,4,12.939,4c6.469,0,6.469-4,12.936-4c6.472,0,6.472,4,12.943,4
	c6.473,0,6.473-4,12.944-4"/>
<path fill="none" stroke="#EFE5E3" stroke-miterlimit="10" d="M414,5.368c6.468,0,6.468,4,12.937,4c6.467,0,6.467-4,12.935-4
	c6.466,0,6.466,4,12.933,4s6.467-4,12.934-4c6.47,0,6.47,4,12.939,4c6.469,0,6.469-4,12.936-4c6.472,0,6.472,4,12.943,4
	c6.473,0,6.473-4,12.944-4"/>
<path fill="none" stroke="#EFE5E3" stroke-miterlimit="10" d="M414,10.236c6.468,0,6.468,4,12.937,4c6.467,0,6.467-4,12.935-4
	c6.466,0,6.466,4,12.933,4s6.467-4,12.934-4c6.47,0,6.47,4,12.939,4c6.469,0,6.469-4,12.936-4c6.472,0,6.472,4,12.943,4
	c6.473,0,6.473-4,12.944-4"/>
<path fill="none" stroke="#EFE5E3" stroke-miterlimit="10" d="M414,15.104c6.468,0,6.468,4,12.937,4c6.467,0,6.467-4,12.935-4
	c6.466,0,6.466,4,12.933,4s6.467-4,12.934-4c6.47,0,6.47,4,12.939,4c6.469,0,6.469-4,12.936-4c6.472,0,6.472,4,12.943,4
	c6.473,0,6.473-4,12.944-4"/>
<path fill="none" stroke="#EFE5E3" stroke-miterlimit="10" d="M414,19.972c6.468,0,6.468,4,12.937,4c6.467,0,6.467-4,12.935-4
	c6.466,0,6.466,4,12.933,4s6.467-4,12.934-4c6.47,0,6.47,4,12.939,4c6.469,0,6.469-4,12.936-4c6.472,0,6.472,4,12.943,4
	c6.473,0,6.473-4,12.944-4"/>
<path fill="none" stroke="#EFE5E3" stroke-miterlimit="10" d="M414,24.84c6.468,0,6.468,4,12.937,4c6.467,0,6.467-4,12.935-4
	c6.466,0,6.466,4,12.933,4s6.467-4,12.934-4c6.47,0,6.47,4,12.939,4c6.469,0,6.469-4,12.936-4c6.472,0,6.472,4,12.943,4
	c6.473,0,6.473-4,12.944-4"/>
<path fill="none" stroke="#EFE5E3" stroke-miterlimit="10" d="M414,29.708c6.468,0,6.468,4,12.937,4c6.467,0,6.467-4,12.935-4
	c6.466,0,6.466,4,12.933,4s6.467-4,12.934-4c6.47,0,6.47,4,12.939,4c6.469,0,6.469-4,12.936-4c6.472,0,6.472,4,12.943,4
	c6.473,0,6.473-4,12.944-4"/>
<path fill="none" stroke="#EFE5E3" stroke-miterlimit="10" d="M414,34.576c6.468,0,6.468,4,12.937,4c6.467,0,6.467-4,12.935-4
	c6.466,0,6.466,4,12.933,4s6.467-4,12.934-4c6.47,0,6.47,4,12.939,4c6.469,0,6.469-4,12.936-4c6.472,0,6.472,4,12.943,4
	c6.473,0,6.473-4,12.944-4"/>
<path fill="none" stroke="#EFE5E3" stroke-miterlimit="10" d="M517.5,0.5c6.468,0,6.468,4,12.937,4c6.467,0,6.467-4,12.935-4
	c6.466,0,6.466,4,12.933,4s6.467-4,12.934-4c6.47,0,6.47,4,12.939,4c6.469,0,6.469-4,12.936-4c6.472,0,6.472,4,12.943,4
	c6.473,0,6.473-4,12.944-4"/>
<path fill="none" stroke="#EFE5E3" stroke-miterlimit="10" d="M517.5,5.368c6.468,0,6.468,4,12.937,4c6.467,0,6.467-4,12.935-4
	c6.466,0,6.466,4,12.933,4s6.467-4,12.934-4c6.47,0,6.47,4,12.939,4c6.469,0,6.469-4,12.936-4c6.472,0,6.472,4,12.943,4
	c6.473,0,6.473-4,12.944-4"/>
<path fill="none" stroke="#EFE5E3" stroke-miterlimit="10" d="M517.5,10.236c6.468,0,6.468,4,12.937,4c6.467,0,6.467-4,12.935-4
	c6.466,0,6.466,4,12.933,4s6.467-4,12.934-4c6.47,0,6.47,4,12.939,4c6.469,0,6.469-4,12.936-4c6.472,0,6.472,4,12.943,4
	c6.473,0,6.473-4,12.944-4"/>
<path fill="none" stroke="#EFE5E3" stroke-miterlimit="10" d="M517.5,15.104c6.468,0,6.468,4,12.937,4c6.467,0,6.467-4,12.935-4
	c6.466,0,6.466,4,12.933,4s6.467-4,12.934-4c6.47,0,6.47,4,12.939,4c6.469,0,6.469-4,12.936-4c6.472,0,6.472,4,12.943,4
	c6.473,0,6.473-4,12.944-4"/>
<path fill="none" stroke="#EFE5E3" stroke-miterlimit="10" d="M517.5,19.972c6.468,0,6.468,4,12.937,4c6.467,0,6.467-4,12.935-4
	c6.466,0,6.466,4,12.933,4s6.467-4,12.934-4c6.47,0,6.47,4,12.939,4c6.469,0,6.469-4,12.936-4c6.472,0,6.472,4,12.943,4
	c6.473,0,6.473-4,12.944-4"/>
<path fill="none" stroke="#EFE5E3" stroke-miterlimit="10" d="M517.5,24.84c6.468,0,6.468,4,12.937,4c6.467,0,6.467-4,12.935-4
	c6.466,0,6.466,4,12.933,4s6.467-4,12.934-4c6.47,0,6.47,4,12.939,4c6.469,0,6.469-4,12.936-4c6.472,0,6.472,4,12.943,4
	c6.473,0,6.473-4,12.944-4"/>
<path fill="none" stroke="#EFE5E3" stroke-miterlimit="10" d="M517.5,29.708c6.468,0,6.468,4,12.937,4c6.467,0,6.467-4,12.935-4
	c6.466,0,6.466,4,12.933,4s6.467-4,12.934-4c6.47,0,6.47,4,12.939,4c6.469,0,6.469-4,12.936-4c6.472,0,6.472,4,12.943,4
	c6.473,0,6.473-4,12.944-4"/>
<path fill="none" stroke="#EFE5E3" stroke-miterlimit="10" d="M517.5,34.576c6.468,0,6.468,4,12.937,4c6.467,0,6.467-4,12.935-4
	c6.466,0,6.466,4,12.933,4s6.467-4,12.934-4c6.47,0,6.47,4,12.939,4c6.469,0,6.469-4,12.936-4c6.472,0,6.472,4,12.943,4
	c6.473,0,6.473-4,12.944-4"/>
<path fill="none" stroke="#EFE5E3" stroke-miterlimit="10" d="M621,0.5c6.468,0,6.468,4,12.937,4c6.467,0,6.467-4,12.935-4
	c6.466,0,6.466,4,12.933,4s6.467-4,12.934-4c6.47,0,6.47,4,12.939,4c6.469,0,6.469-4,12.936-4c6.472,0,6.472,4,12.943,4
	c6.473,0,6.473-4,12.944-4"/>
<path fill="none" stroke="#EFE5E3" stroke-miterlimit="10" d="M621,5.368c6.468,0,6.468,4,12.937,4c6.467,0,6.467-4,12.935-4
	c6.466,0,6.466,4,12.933,4s6.467-4,12.934-4c6.47,0,6.47,4,12.939,4c6.469,0,6.469-4,12.936-4c6.472,0,6.472,4,12.943,4
	c6.473,0,6.473-4,12.944-4"/>
<path fill="none" stroke="#EFE5E3" stroke-miterlimit="10" d="M621,10.236c6.468,0,6.468,4,12.937,4c6.467,0,6.467-4,12.935-4
	c6.466,0,6.466,4,12.933,4s6.467-4,12.934-4c6.47,0,6.47,4,12.939,4c6.469,0,6.469-4,12.936-4c6.472,0,6.472,4,12.943,4
	c6.473,0,6.473-4,12.944-4"/>
<path fill="none" stroke="#EFE5E3" stroke-miterlimit="10" d="M621,15.104c6.468,0,6.468,4,12.937,4c6.467,0,6.467-4,12.935-4
	c6.466,0,6.466,4,12.933,4s6.467-4,12.934-4c6.47,0,6.47,4,12.939,4c6.469,0,6.469-4,12.936-4c6.472,0,6.472,4,12.943,4
	c6.473,0,6.473-4,12.944-4"/>
<path fill="none" stroke="#EFE5E3" stroke-miterlimit="10" d="M621,19.972c6.468,0,6.468,4,12.937,4c6.467,0,6.467-4,12.935-4
	c6.466,0,6.466,4,12.933,4s6.467-4,12.934-4c6.47,0,6.47,4,12.939,4c6.469,0,6.469-4,12.936-4c6.472,0,6.472,4,12.943,4
	c6.473,0,6.473-4,12.944-4"/>
<path fill="none" stroke="#EFE5E3" stroke-miterlimit="10" d="M621,24.84c6.468,0,6.468,4,12.937,4c6.467,0,6.467-4,12.935-4
	c6.466,0,6.466,4,12.933,4s6.467-4,12.934-4c6.47,0,6.47,4,12.939,4c6.469,0,6.469-4,12.936-4c6.472,0,6.472,4,12.943,4
	c6.473,0,6.473-4,12.944-4"/>
<path fill="none" stroke="#EFE5E3" stroke-miterlimit="10" d="M621,29.708c6.468,0,6.468,4,12.937,4c6.467,0,6.467-4,12.935-4
	c6.466,0,6.466,4,12.933,4s6.467-4,12.934-4c6.47,0,6.47,4,12.939,4c6.469,0,6.469-4,12.936-4c6.472,0,6.472,4,12.943,4
	c6.473,0,6.473-4,12.944-4"/>
<path fill="none" stroke="#EFE5E3" stroke-miterlimit="10" d="M621,34.576c6.468,0,6.468,4,12.937,4c6.467,0,6.467-4,12.935-4
	c6.466,0,6.466,4,12.933,4s6.467-4,12.934-4c6.47,0,6.47,4,12.939,4c6.469,0,6.469-4,12.936-4c6.472,0,6.472,4,12.943,4
	c6.473,0,6.473-4,12.944-4"/>
<path fill="none" stroke="#EFE5E3" stroke-miterlimit="10" d="M724.5,0.5c6.468,0,6.468,4,12.937,4c6.467,0,6.467-4,12.935-4
	c6.466,0,6.466,4,12.933,4s6.467-4,12.934-4c6.47,0,6.47,4,12.939,4c6.469,0,6.469-4,12.936-4c6.472,0,6.472,4,12.943,4
	c6.473,0,6.473-4,12.944-4"/>
<path fill="none" stroke="#EFE5E3" stroke-miterlimit="10" d="M724.5,5.368c6.468,0,6.468,4,12.937,4c6.467,0,6.467-4,12.935-4
	c6.466,0,6.466,4,12.933,4s6.467-4,12.934-4c6.47,0,6.47,4,12.939,4c6.469,0,6.469-4,12.936-4c6.472,0,6.472,4,12.943,4
	c6.473,0,6.473-4,12.944-4"/>
<path fill="none" stroke="#EFE5E3" stroke-miterlimit="10" d="M724.5,10.236c6.468,0,6.468,4,12.937,4c6.467,0,6.467-4,12.935-4
	c6.466,0,6.466,4,12.933,4s6.467-4,12.934-4c6.47,0,6.47,4,12.939,4c6.469,0,6.469-4,12.936-4c6.472,0,6.472,4,12.943,4
	c6.473,0,6.473-4,12.944-4"/>
<path fill="none" stroke="#EFE5E3" stroke-miterlimit="10" d="M724.5,15.104c6.468,0,6.468,4,12.937,4c6.467,0,6.467-4,12.935-4
	c6.466,0,6.466,4,12.933,4s6.467-4,12.934-4c6.47,0,6.47,4,12.939,4c6.469,0,6.469-4,12.936-4c6.472,0,6.472,4,12.943,4
	c6.473,0,6.473-4,12.944-4"/>
<path fill="none" stroke="#EFE5E3" stroke-miterlimit="10" d="M724.5,19.972c6.468,0,6.468,4,12.937,4c6.467,0,6.467-4,12.935-4
	c6.466,0,6.466,4,12.933,4s6.467-4,12.934-4c6.47,0,6.47,4,12.939,4c6.469,0,6.469-4,12.936-4c6.472,0,6.472,4,12.943,4
	c6.473,0,6.473-4,12.944-4"/>
<path fill="none" stroke="#EFE5E3" stroke-miterlimit="10" d="M724.5,24.84c6.468,0,6.468,4,12.937,4c6.467,0,6.467-4,12.935-4
	c6.466,0,6.466,4,12.933,4s6.467-4,12.934-4c6.47,0,6.47,4,12.939,4c6.469,0,6.469-4,12.936-4c6.472,0,6.472,4,12.943,4
	c6.473,0,6.473-4,12.944-4"/>
<path fill="none" stroke="#EFE5E3" stroke-miterlimit="10" d="M724.5,29.708c6.468,0,6.468,4,12.937,4c6.467,0,6.467-4,12.935-4
	c6.466,0,6.466,4,12.933,4s6.467-4,12.934-4c6.47,0,6.47,4,12.939,4c6.469,0,6.469-4,12.936-4c6.472,0,6.472,4,12.943,4
	c6.473,0,6.473-4,12.944-4"/>
<path fill="none" stroke="#EFE5E3" stroke-miterlimit="10" d="M724.5,34.576c6.468,0,6.468,4,12.937,4c6.467,0,6.467-4,12.935-4
	c6.466,0,6.466,4,12.933,4s6.467-4,12.934-4c6.47,0,6.47,4,12.939,4c6.469,0,6.469-4,12.936-4c6.472,0,6.472,4,12.943,4
	c6.473,0,6.473-4,12.944-4"/>
<path fill="none" stroke="#EFE5E3" stroke-miterlimit="10" d="M0,0.5c6.468,0,6.468,4,12.936,4c6.467,0,6.467-4,12.935-4
	c6.466,0,6.466,4,12.932,4c6.467,0,6.467-4,12.934-4c6.47,0,6.47,4,12.94,4c6.468,0,6.468-4,12.935-4c6.472,0,6.472,4,12.944,4
	s6.472-4,12.944-4"/>
<path fill="none" stroke="#EFE5E3" stroke-miterlimit="10" d="M0,5.368c6.468,0,6.468,4,12.936,4c6.467,0,6.467-4,12.935-4
	c6.466,0,6.466,4,12.932,4c6.467,0,6.467-4,12.934-4c6.47,0,6.47,4,12.94,4c6.468,0,6.468-4,12.935-4c6.472,0,6.472,4,12.944,4
	s6.472-4,12.944-4"/>
<path fill="none" stroke="#EFE5E3" stroke-miterlimit="10" d="M0,10.236c6.468,0,6.468,4,12.936,4c6.467,0,6.467-4,12.935-4
	c6.466,0,6.466,4,12.932,4c6.467,0,6.467-4,12.934-4c6.47,0,6.47,4,12.94,4c6.468,0,6.468-4,12.935-4c6.472,0,6.472,4,12.944,4
	s6.472-4,12.944-4"/>
<path fill="none" stroke="#EFE5E3" stroke-miterlimit="10" d="M0,15.104c6.468,0,6.468,4,12.936,4c6.467,0,6.467-4,12.935-4
	c6.466,0,6.466,4,12.932,4c6.467,0,6.467-4,12.934-4c6.47,0,6.47,4,12.94,4c6.468,0,6.468-4,12.935-4c6.472,0,6.472,4,12.944,4
	s6.472-4,12.944-4"/>
<path fill="none" stroke="#EFE5E3" stroke-miterlimit="10" d="M0,19.972c6.468,0,6.468,4,12.936,4c6.467,0,6.467-4,12.935-4
	c6.466,0,6.466,4,12.932,4c6.467,0,6.467-4,12.934-4c6.47,0,6.47,4,12.94,4c6.468,0,6.468-4,12.935-4c6.472,0,6.472,4,12.944,4
	s6.472-4,12.944-4"/>
<path fill="none" stroke="#EFE5E3" stroke-miterlimit="10" d="M0,24.84c6.468,0,6.468,4,12.936,4c6.467,0,6.467-4,12.935-4
	c6.466,0,6.466,4,12.932,4c6.467,0,6.467-4,12.934-4c6.47,0,6.47,4,12.94,4c6.468,0,6.468-4,12.935-4c6.472,0,6.472,4,12.944,4
	s6.472-4,12.944-4"/>
<path fill="none" stroke="#EFE5E3" stroke-miterlimit="10" d="M0,29.708c6.468,0,6.468,4,12.936,4c6.467,0,6.467-4,12.935-4
	c6.466,0,6.466,4,12.932,4c6.467,0,6.467-4,12.934-4c6.47,0,6.47,4,12.94,4c6.468,0,6.468-4,12.935-4c6.472,0,6.472,4,12.944,4
	s6.472-4,12.944-4"/>
<path fill="none" stroke="#EFE5E3" stroke-miterlimit="10" d="M0,34.576c6.468,0,6.468,4,12.936,4c6.467,0,6.467-4,12.935-4
	c6.466,0,6.466,4,12.932,4c6.467,0,6.467-4,12.934-4c6.47,0,6.47,4,12.94,4c6.468,0,6.468-4,12.935-4c6.472,0,6.472,4,12.944,4
	s6.472-4,12.944-4"/>
<path fill="none" stroke="#EFE5E3" stroke-miterlimit="10" d="M103.5,0.5c6.468,0,6.468,4,12.936,4c6.467,0,6.467-4,12.935-4
	c6.466,0,6.466,4,12.932,4c6.467,0,6.467-4,12.934-4c6.47,0,6.47,4,12.94,4c6.468,0,6.468-4,12.935-4c6.472,0,6.472,4,12.944,4
	s6.472-4,12.944-4"/>
<path fill="none" stroke="#EFE5E3" stroke-miterlimit="10" d="M103.5,5.368c6.468,0,6.468,4,12.936,4c6.467,0,6.467-4,12.935-4
	c6.466,0,6.466,4,12.932,4c6.467,0,6.467-4,12.934-4c6.47,0,6.47,4,12.94,4c6.468,0,6.468-4,12.935-4c6.472,0,6.472,4,12.944,4
	s6.472-4,12.944-4"/>
<path fill="none" stroke="#EFE5E3" stroke-miterlimit="10" d="M103.5,10.236c6.468,0,6.468,4,12.936,4c6.467,0,6.467-4,12.935-4
	c6.466,0,6.466,4,12.932,4c6.467,0,6.467-4,12.934-4c6.47,0,6.47,4,12.94,4c6.468,0,6.468-4,12.935-4c6.472,0,6.472,4,12.944,4
	s6.472-4,12.944-4"/>
<path fill="none" stroke="#EFE5E3" stroke-miterlimit="10" d="M103.5,15.104c6.468,0,6.468,4,12.936,4c6.467,0,6.467-4,12.935-4
	c6.466,0,6.466,4,12.932,4c6.467,0,6.467-4,12.934-4c6.47,0,6.47,4,12.94,4c6.468,0,6.468-4,12.935-4c6.472,0,6.472,4,12.944,4
	s6.472-4,12.944-4"/>
<path fill="none" stroke="#EFE5E3" stroke-miterlimit="10" d="M103.5,19.972c6.468,0,6.468,4,12.936,4c6.467,0,6.467-4,12.935-4
	c6.466,0,6.466,4,12.932,4c6.467,0,6.467-4,12.934-4c6.47,0,6.47,4,12.94,4c6.468,0,6.468-4,12.935-4c6.472,0,6.472,4,12.944,4
	s6.472-4,12.944-4"/>
<path fill="none" stroke="#EFE5E3" stroke-miterlimit="10" d="M103.5,24.84c6.468,0,6.468,4,12.936,4c6.467,0,6.467-4,12.935-4
	c6.466,0,6.466,4,12.932,4c6.467,0,6.467-4,12.934-4c6.47,0,6.47,4,12.94,4c6.468,0,6.468-4,12.935-4c6.472,0,6.472,4,12.944,4
	s6.472-4,12.944-4"/>
<path fill="none" stroke="#EFE5E3" stroke-miterlimit="10" d="M103.5,29.708c6.468,0,6.468,4,12.936,4c6.467,0,6.467-4,12.935-4
	c6.466,0,6.466,4,12.932,4c6.467,0,6.467-4,12.934-4c6.47,0,6.47,4,12.94,4c6.468,0,6.468-4,12.935-4c6.472,0,6.472,4,12.944,4
	s6.472-4,12.944-4"/>
<path fill="none" stroke="#EFE5E3" stroke-miterlimit="10" d="M103.5,34.576c6.468,0,6.468,4,12.936,4c6.467,0,6.467-4,12.935-4
	c6.466,0,6.466,4,12.932,4c6.467,0,6.467-4,12.934-4c6.47,0,6.47,4,12.94,4c6.468,0,6.468-4,12.935-4c6.472,0,6.472,4,12.944,4
	s6.472-4,12.944-4"/>
<path fill="none" stroke="#EFE5E3" stroke-miterlimit="10" d="M207,0.5c6.468,0,6.468,4,12.937,4c6.467,0,6.467-4,12.935-4
	c6.466,0,6.466,4,12.933,4s6.467-4,12.934-4c6.47,0,6.47,4,12.939,4c6.469,0,6.469-4,12.936-4c6.472,0,6.472,4,12.943,4
	c6.473,0,6.473-4,12.944-4"/>
<path fill="none" stroke="#EFE5E3" stroke-miterlimit="10" d="M207,5.368c6.468,0,6.468,4,12.937,4c6.467,0,6.467-4,12.935-4
	c6.466,0,6.466,4,12.933,4s6.467-4,12.934-4c6.47,0,6.47,4,12.939,4c6.469,0,6.469-4,12.936-4c6.472,0,6.472,4,12.943,4
	c6.473,0,6.473-4,12.944-4"/>
<path fill="none" stroke="#EFE5E3" stroke-miterlimit="10" d="M207,10.236c6.468,0,6.468,4,12.937,4c6.467,0,6.467-4,12.935-4
	c6.466,0,6.466,4,12.933,4s6.467-4,12.934-4c6.47,0,6.47,4,12.939,4c6.469,0,6.469-4,12.936-4c6.472,0,6.472,4,12.943,4
	c6.473,0,6.473-4,12.944-4"/>
<path fill="none" stroke="#EFE5E3" stroke-miterlimit="10" d="M207,15.104c6.468,0,6.468,4,12.937,4c6.467,0,6.467-4,12.935-4
	c6.466,0,6.466,4,12.933,4s6.467-4,12.934-4c6.47,0,6.47,4,12.939,4c6.469,0,6.469-4,12.936-4c6.472,0,6.472,4,12.943,4
	c6.473,0,6.473-4,12.944-4"/>
<path fill="none" stroke="#EFE5E3" stroke-miterlimit="10" d="M207,19.972c6.468,0,6.468,4,12.937,4c6.467,0,6.467-4,12.935-4
	c6.466,0,6.466,4,12.933,4s6.467-4,12.934-4c6.47,0,6.47,4,12.939,4c6.469,0,6.469-4,12.936-4c6.472,0,6.472,4,12.943,4
	c6.473,0,6.473-4,12.944-4"/>
<path fill="none" stroke="#EFE5E3" stroke-miterlimit="10" d="M207,24.84c6.468,0,6.468,4,12.937,4c6.467,0,6.467-4,12.935-4
	c6.466,0,6.466,4,12.933,4s6.467-4,12.934-4c6.47,0,6.47,4,12.939,4c6.469,0,6.469-4,12.936-4c6.472,0,6.472,4,12.943,4
	c6.473,0,6.473-4,12.944-4"/>
<path fill="none" stroke="#EFE5E3" stroke-miterlimit="10" d="M207,29.708c6.468,0,6.468,4,12.937,4c6.467,0,6.467-4,12.935-4
	c6.466,0,6.466,4,12.933,4s6.467-4,12.934-4c6.47,0,6.47,4,12.939,4c6.469,0,6.469-4,12.936-4c6.472,0,6.472,4,12.943,4
	c6.473,0,6.473-4,12.944-4"/>
<path fill="none" stroke="#EFE5E3" stroke-miterlimit="10" d="M207,34.576c6.468,0,6.468,4,12.937,4c6.467,0,6.467-4,12.935-4
	c6.466,0,6.466,4,12.933,4s6.467-4,12.934-4c6.47,0,6.47,4,12.939,4c6.469,0,6.469-4,12.936-4c6.472,0,6.472,4,12.943,4
	c6.473,0,6.473-4,12.944-4"/>
<path fill="none" stroke="#EFE5E3" stroke-miterlimit="10" d="M310.5,0.5c6.468,0,6.468,4,12.937,4c6.467,0,6.467-4,12.935-4
	c6.466,0,6.466,4,12.933,4s6.467-4,12.934-4c6.47,0,6.47,4,12.939,4c6.469,0,6.469-4,12.936-4c6.472,0,6.472,4,12.943,4
	c6.473,0,6.473-4,12.944-4"/>
<path fill="none" stroke="#EFE5E3" stroke-miterlimit="10" d="M310.5,5.368c6.468,0,6.468,4,12.937,4c6.467,0,6.467-4,12.935-4
	c6.466,0,6.466,4,12.933,4s6.467-4,12.934-4c6.47,0,6.47,4,12.939,4c6.469,0,6.469-4,12.936-4c6.472,0,6.472,4,12.943,4
	c6.473,0,6.473-4,12.944-4"/>
<path fill="none" stroke="#EFE5E3" stroke-miterlimit="10" d="M310.5,10.236c6.468,0,6.468,4,12.937,4c6.467,0,6.467-4,12.935-4
	c6.466,0,6.466,4,12.933,4s6.467-4,12.934-4c6.47,0,6.47,4,12.939,4c6.469,0,6.469-4,12.936-4c6.472,0,6.472,4,12.943,4
	c6.473,0,6.473-4,12.944-4"/>
<path fill="none" stroke="#EFE5E3" stroke-miterlimit="10" d="M310.5,15.104c6.468,0,6.468,4,12.937,4c6.467,0,6.467-4,12.935-4
	c6.466,0,6.466,4,12.933,4s6.467-4,12.934-4c6.47,0,6.47,4,12.939,4c6.469,0,6.469-4,12.936-4c6.472,0,6.472,4,12.943,4
	c6.473,0,6.473-4,12.944-4"/>
<path fill="none" stroke="#EFE5E3" stroke-miterlimit="10" d="M310.5,19.972c6.468,0,6.468,4,12.937,4c6.467,0,6.467-4,12.935-4
	c6.466,0,6.466,4,12.933,4s6.467-4,12.934-4c6.47,0,6.47,4,12.939,4c6.469,0,6.469-4,12.936-4c6.472,0,6.472,4,12.943,4
	c6.473,0,6.473-4,12.944-4"/>
<path fill="none" stroke="#EFE5E3" stroke-miterlimit="10" d="M310.5,24.84c6.468,0,6.468,4,12.937,4c6.467,0,6.467-4,12.935-4
	c6.466,0,6.466,4,12.933,4s6.467-4,12.934-4c6.47,0,6.47,4,12.939,4c6.469,0,6.469-4,12.936-4c6.472,0,6.472,4,12.943,4
	c6.473,0,6.473-4,12.944-4"/>
<path fill="none" stroke="#EFE5E3" stroke-miterlimit="10" d="M310.5,29.708c6.468,0,6.468,4,12.937,4c6.467,0,6.467-4,12.935-4
	c6.466,0,6.466,4,12.933,4s6.467-4,12.934-4c6.47,0,6.47,4,12.939,4c6.469,0,6.469-4,12.936-4c6.472,0,6.472,4,12.943,4
	c6.473,0,6.473-4,12.944-4"/>
<path fill="none" stroke="#EFE5E3" stroke-miterlimit="10" d="M310.5,34.576c6.468,0,6.468,4,12.937,4c6.467,0,6.467-4,12.935-4
	c6.466,0,6.466,4,12.933,4s6.467-4,12.934-4c6.47,0,6.47,4,12.939,4c6.469,0,6.469-4,12.936-4c6.472,0,6.472,4,12.943,4
	c6.473,0,6.473-4,12.944-4"/>
</svg>
