<svg xmlns="http://www.w3.org/2000/svg" width="4139" height="49" viewBox="0 0 4139 49" overflow="visible"><path fill="none" stroke="#EFEFEF" stroke-miterlimit="10" d="M2069.5.5c6.468 0 6.468 4 12.936 4 6.467 0 6.467-4 12.936-4 6.466 0 6.466 4 12.931 4 6.468 0 6.468-4 12.935-4 6.471 0 6.471 4 12.94 4 6.468 0 6.468-4 12.935-4 6.473 0 6.473 4 12.945 4 6.471 0 6.471-4 12.943-4M2069.5 5.367c6.468 0 6.468 4 12.936 4 6.467 0 6.467-4 12.936-4 6.466 0 6.466 4 12.931 4 6.468 0 6.468-4 12.935-4 6.471 0 6.471 4 12.94 4 6.468 0 6.468-4 12.935-4 6.473 0 6.473 4 12.945 4 6.471 0 6.471-4 12.943-4M2069.5 10.235c6.468 0 6.468 4 12.936 4 6.467 0 6.467-4 12.936-4 6.466 0 6.466 4 12.931 4 6.468 0 6.468-4 12.935-4 6.471 0 6.471 4 12.94 4 6.468 0 6.468-4 12.935-4 6.473 0 6.473 4 12.945 4 6.471 0 6.471-4 12.943-4M2069.5 15.104c6.468 0 6.468 4 12.936 4 6.467 0 6.467-4 12.936-4 6.466 0 6.466 4 12.931 4 6.468 0 6.468-4 12.935-4 6.471 0 6.471 4 12.94 4 6.468 0 6.468-4 12.935-4 6.473 0 6.473 4 12.945 4 6.471 0 6.471-4 12.943-4M2069.5 19.972c6.468 0 6.468 4 12.936 4 6.467 0 6.467-4 12.936-4 6.466 0 6.466 4 12.931 4 6.468 0 6.468-4 12.935-4 6.471 0 6.471 4 12.94 4 6.468 0 6.468-4 12.935-4 6.473 0 6.473 4 12.945 4 6.471 0 6.471-4 12.943-4M2069.5 24.84c6.468 0 6.468 4 12.936 4 6.467 0 6.467-4 12.936-4 6.466 0 6.466 4 12.931 4 6.468 0 6.468-4 12.935-4 6.471 0 6.471 4 12.94 4 6.468 0 6.468-4 12.935-4 6.473 0 6.473 4 12.945 4 6.471 0 6.471-4 12.943-4M2069.5 29.708c6.468 0 6.468 4 12.936 4 6.467 0 6.467-4 12.936-4 6.466 0 6.466 4 12.931 4 6.468 0 6.468-4 12.935-4 6.471 0 6.471 4 12.94 4 6.468 0 6.468-4 12.935-4 6.473 0 6.473 4 12.945 4 6.471 0 6.471-4 12.943-4M2069.5 34.576c6.468 0 6.468 4 12.936 4 6.467 0 6.467-4 12.936-4 6.466 0 6.466 4 12.931 4 6.468 0 6.468-4 12.935-4 6.471 0 6.471 4 12.94 4 6.468 0 6.468-4 12.935-4 6.473 0 6.473 4 12.945 4 6.471 0 6.471-4 12.943-4M2069.5 39.443c6.468 0 6.468 4 12.936 4 6.467 0 6.467-4 12.936-4 6.466 0 6.466 4 12.931 4 6.468 0 6.468-4 12.935-4 6.471 0 6.471 4 12.94 4 6.468 0 6.468-4 12.935-4 6.473 0 6.473 4 12.945 4 6.471 0 6.471-4 12.943-4M2069.5 44.312c6.468 0 6.468 4 12.936 4 6.467 0 6.467-4 12.936-4 6.466 0 6.466 4 12.931 4 6.468 0 6.468-4 12.935-4 6.471 0 6.471 4 12.94 4 6.468 0 6.468-4 12.935-4 6.473 0 6.473 4 12.945 4 6.471 0 6.471-4 12.943-4"/><path fill="none" stroke="#EFEFEF" stroke-miterlimit="10" d="M2173 .5c6.468 0 6.468 4 12.936 4 6.467 0 6.467-4 12.936-4 6.466 0 6.466 4 12.931 4 6.468 0 6.468-4 12.935-4 6.471 0 6.471 4 12.939 4s6.469-4 12.936-4c6.473 0 6.473 4 12.945 4 6.471 0 6.471-4 12.943-4M2173 5.367c6.468 0 6.468 4 12.936 4 6.467 0 6.467-4 12.936-4 6.466 0 6.466 4 12.931 4 6.468 0 6.468-4 12.935-4 6.471 0 6.471 4 12.939 4s6.469-4 12.936-4c6.473 0 6.473 4 12.945 4 6.471 0 6.471-4 12.943-4M2173 10.235c6.468 0 6.468 4 12.936 4 6.467 0 6.467-4 12.936-4 6.466 0 6.466 4 12.931 4 6.468 0 6.468-4 12.935-4 6.471 0 6.471 4 12.939 4s6.469-4 12.936-4c6.473 0 6.473 4 12.945 4 6.471 0 6.471-4 12.943-4M2173 15.104c6.468 0 6.468 4 12.936 4 6.467 0 6.467-4 12.936-4 6.466 0 6.466 4 12.931 4 6.468 0 6.468-4 12.935-4 6.471 0 6.471 4 12.939 4s6.469-4 12.936-4c6.473 0 6.473 4 12.945 4 6.471 0 6.471-4 12.943-4M2173 19.972c6.468 0 6.468 4 12.936 4 6.467 0 6.467-4 12.936-4 6.466 0 6.466 4 12.931 4 6.468 0 6.468-4 12.935-4 6.471 0 6.471 4 12.939 4s6.469-4 12.936-4c6.473 0 6.473 4 12.945 4 6.471 0 6.471-4 12.943-4M2173 24.84c6.468 0 6.468 4 12.936 4 6.467 0 6.467-4 12.936-4 6.466 0 6.466 4 12.931 4 6.468 0 6.468-4 12.935-4 6.471 0 6.471 4 12.939 4s6.469-4 12.936-4c6.473 0 6.473 4 12.945 4 6.471 0 6.471-4 12.943-4M2173 29.708c6.468 0 6.468 4 12.936 4 6.467 0 6.467-4 12.936-4 6.466 0 6.466 4 12.931 4 6.468 0 6.468-4 12.935-4 6.471 0 6.471 4 12.939 4s6.469-4 12.936-4c6.473 0 6.473 4 12.945 4 6.471 0 6.471-4 12.943-4M2173 34.576c6.468 0 6.468 4 12.936 4 6.467 0 6.467-4 12.936-4 6.466 0 6.466 4 12.931 4 6.468 0 6.468-4 12.935-4 6.471 0 6.471 4 12.939 4s6.469-4 12.936-4c6.473 0 6.473 4 12.945 4 6.471 0 6.471-4 12.943-4M2173 39.443c6.468 0 6.468 4 12.936 4 6.467 0 6.467-4 12.936-4 6.466 0 6.466 4 12.931 4 6.468 0 6.468-4 12.935-4 6.471 0 6.471 4 12.939 4s6.469-4 12.936-4c6.473 0 6.473 4 12.945 4 6.471 0 6.471-4 12.943-4M2173 44.312c6.468 0 6.468 4 12.936 4 6.467 0 6.467-4 12.936-4 6.466 0 6.466 4 12.931 4 6.468 0 6.468-4 12.935-4 6.471 0 6.471 4 12.939 4s6.469-4 12.936-4c6.473 0 6.473 4 12.945 4 6.471 0 6.471-4 12.943-4"/><path fill="none" stroke="#EFEFEF" stroke-miterlimit="10" d="M2276.5.5c6.468 0 6.468 4 12.936 4 6.467 0 6.467-4 12.936-4 6.466 0 6.466 4 12.931 4 6.468 0 6.468-4 12.935-4 6.471 0 6.471 4 12.94 4 6.468 0 6.468-4 12.935-4 6.473 0 6.473 4 12.944 4s6.472-4 12.944-4M2276.5 5.367c6.468 0 6.468 4 12.936 4 6.467 0 6.467-4 12.936-4 6.466 0 6.466 4 12.931 4 6.468 0 6.468-4 12.935-4 6.471 0 6.471 4 12.94 4 6.468 0 6.468-4 12.935-4 6.473 0 6.473 4 12.944 4s6.472-4 12.944-4M2276.5 10.235c6.468 0 6.468 4 12.936 4 6.467 0 6.467-4 12.936-4 6.466 0 6.466 4 12.931 4 6.468 0 6.468-4 12.935-4 6.471 0 6.471 4 12.94 4 6.468 0 6.468-4 12.935-4 6.473 0 6.473 4 12.944 4s6.472-4 12.944-4M2276.5 15.104c6.468 0 6.468 4 12.936 4 6.467 0 6.467-4 12.936-4 6.466 0 6.466 4 12.931 4 6.468 0 6.468-4 12.935-4 6.471 0 6.471 4 12.94 4 6.468 0 6.468-4 12.935-4 6.473 0 6.473 4 12.944 4s6.472-4 12.944-4M2276.5 19.972c6.468 0 6.468 4 12.936 4 6.467 0 6.467-4 12.936-4 6.466 0 6.466 4 12.931 4 6.468 0 6.468-4 12.935-4 6.471 0 6.471 4 12.94 4 6.468 0 6.468-4 12.935-4 6.473 0 6.473 4 12.944 4s6.472-4 12.944-4M2276.5 24.84c6.468 0 6.468 4 12.936 4 6.467 0 6.467-4 12.936-4 6.466 0 6.466 4 12.931 4 6.468 0 6.468-4 12.935-4 6.471 0 6.471 4 12.94 4 6.468 0 6.468-4 12.935-4 6.473 0 6.473 4 12.944 4s6.472-4 12.944-4M2276.5 29.708c6.468 0 6.468 4 12.936 4 6.467 0 6.467-4 12.936-4 6.466 0 6.466 4 12.931 4 6.468 0 6.468-4 12.935-4 6.471 0 6.471 4 12.94 4 6.468 0 6.468-4 12.935-4 6.473 0 6.473 4 12.944 4s6.472-4 12.944-4M2276.5 34.576c6.468 0 6.468 4 12.936 4 6.467 0 6.467-4 12.936-4 6.466 0 6.466 4 12.931 4 6.468 0 6.468-4 12.935-4 6.471 0 6.471 4 12.94 4 6.468 0 6.468-4 12.935-4 6.473 0 6.473 4 12.944 4s6.472-4 12.944-4M2276.5 39.443c6.468 0 6.468 4 12.936 4 6.467 0 6.467-4 12.936-4 6.466 0 6.466 4 12.931 4 6.468 0 6.468-4 12.935-4 6.471 0 6.471 4 12.94 4 6.468 0 6.468-4 12.935-4 6.473 0 6.473 4 12.944 4s6.472-4 12.944-4M2276.5 44.312c6.468 0 6.468 4 12.936 4 6.467 0 6.467-4 12.936-4 6.466 0 6.466 4 12.931 4 6.468 0 6.468-4 12.935-4 6.471 0 6.471 4 12.94 4 6.468 0 6.468-4 12.935-4 6.473 0 6.473 4 12.944 4s6.472-4 12.944-4"/><path fill="none" stroke="#EFEFEF" stroke-miterlimit="10" d="M2380 .5c6.468 0 6.468 4 12.936 4 6.467 0 6.467-4 12.936-4 6.466 0 6.466 4 12.931 4 6.468 0 6.468-4 12.935-4 6.471 0 6.471 4 12.94 4 6.468 0 6.468-4 12.935-4 6.473 0 6.473 4 12.944 4s6.472-4 12.944-4M2380 5.367c6.468 0 6.468 4 12.936 4 6.467 0 6.467-4 12.936-4 6.466 0 6.466 4 12.931 4 6.468 0 6.468-4 12.935-4 6.471 0 6.471 4 12.94 4 6.468 0 6.468-4 12.935-4 6.473 0 6.473 4 12.944 4s6.472-4 12.944-4M2380 10.235c6.468 0 6.468 4 12.936 4 6.467 0 6.467-4 12.936-4 6.466 0 6.466 4 12.931 4 6.468 0 6.468-4 12.935-4 6.471 0 6.471 4 12.94 4 6.468 0 6.468-4 12.935-4 6.473 0 6.473 4 12.944 4s6.472-4 12.944-4M2380 15.104c6.468 0 6.468 4 12.936 4 6.467 0 6.467-4 12.936-4 6.466 0 6.466 4 12.931 4 6.468 0 6.468-4 12.935-4 6.471 0 6.471 4 12.94 4 6.468 0 6.468-4 12.935-4 6.473 0 6.473 4 12.944 4s6.472-4 12.944-4M2380 19.972c6.468 0 6.468 4 12.936 4 6.467 0 6.467-4 12.936-4 6.466 0 6.466 4 12.931 4 6.468 0 6.468-4 12.935-4 6.471 0 6.471 4 12.94 4 6.468 0 6.468-4 12.935-4 6.473 0 6.473 4 12.944 4s6.472-4 12.944-4M2380 24.84c6.468 0 6.468 4 12.936 4 6.467 0 6.467-4 12.936-4 6.466 0 6.466 4 12.931 4 6.468 0 6.468-4 12.935-4 6.471 0 6.471 4 12.94 4 6.468 0 6.468-4 12.935-4 6.473 0 6.473 4 12.944 4s6.472-4 12.944-4M2380 29.708c6.468 0 6.468 4 12.936 4 6.467 0 6.467-4 12.936-4 6.466 0 6.466 4 12.931 4 6.468 0 6.468-4 12.935-4 6.471 0 6.471 4 12.94 4 6.468 0 6.468-4 12.935-4 6.473 0 6.473 4 12.944 4s6.472-4 12.944-4M2380 34.576c6.468 0 6.468 4 12.936 4 6.467 0 6.467-4 12.936-4 6.466 0 6.466 4 12.931 4 6.468 0 6.468-4 12.935-4 6.471 0 6.471 4 12.94 4 6.468 0 6.468-4 12.935-4 6.473 0 6.473 4 12.944 4s6.472-4 12.944-4M2380 39.443c6.468 0 6.468 4 12.936 4 6.467 0 6.467-4 12.936-4 6.466 0 6.466 4 12.931 4 6.468 0 6.468-4 12.935-4 6.471 0 6.471 4 12.94 4 6.468 0 6.468-4 12.935-4 6.473 0 6.473 4 12.944 4s6.472-4 12.944-4M2380 44.312c6.468 0 6.468 4 12.936 4 6.467 0 6.467-4 12.936-4 6.466 0 6.466 4 12.931 4 6.468 0 6.468-4 12.935-4 6.471 0 6.471 4 12.94 4 6.468 0 6.468-4 12.935-4 6.473 0 6.473 4 12.944 4s6.472-4 12.944-4"/><path fill="none" stroke="#EFEFEF" stroke-miterlimit="10" d="M2483.5.5c6.468 0 6.468 4 12.936 4 6.467 0 6.467-4 12.936-4 6.466 0 6.466 4 12.931 4 6.468 0 6.468-4 12.935-4 6.471 0 6.471 4 12.94 4 6.468 0 6.468-4 12.935-4 6.473 0 6.473 4 12.944 4s6.472-4 12.944-4M2483.5 5.367c6.468 0 6.468 4 12.936 4 6.467 0 6.467-4 12.936-4 6.466 0 6.466 4 12.931 4 6.468 0 6.468-4 12.935-4 6.471 0 6.471 4 12.94 4 6.468 0 6.468-4 12.935-4 6.473 0 6.473 4 12.944 4s6.472-4 12.944-4M2483.5 10.235c6.468 0 6.468 4 12.936 4 6.467 0 6.467-4 12.936-4 6.466 0 6.466 4 12.931 4 6.468 0 6.468-4 12.935-4 6.471 0 6.471 4 12.94 4 6.468 0 6.468-4 12.935-4 6.473 0 6.473 4 12.944 4s6.472-4 12.944-4M2483.5 15.104c6.468 0 6.468 4 12.936 4 6.467 0 6.467-4 12.936-4 6.466 0 6.466 4 12.931 4 6.468 0 6.468-4 12.935-4 6.471 0 6.471 4 12.94 4 6.468 0 6.468-4 12.935-4 6.473 0 6.473 4 12.944 4s6.472-4 12.944-4M2483.5 19.972c6.468 0 6.468 4 12.936 4 6.467 0 6.467-4 12.936-4 6.466 0 6.466 4 12.931 4 6.468 0 6.468-4 12.935-4 6.471 0 6.471 4 12.94 4 6.468 0 6.468-4 12.935-4 6.473 0 6.473 4 12.944 4s6.472-4 12.944-4M2483.5 24.84c6.468 0 6.468 4 12.936 4 6.467 0 6.467-4 12.936-4 6.466 0 6.466 4 12.931 4 6.468 0 6.468-4 12.935-4 6.471 0 6.471 4 12.94 4 6.468 0 6.468-4 12.935-4 6.473 0 6.473 4 12.944 4s6.472-4 12.944-4M2483.5 29.708c6.468 0 6.468 4 12.936 4 6.467 0 6.467-4 12.936-4 6.466 0 6.466 4 12.931 4 6.468 0 6.468-4 12.935-4 6.471 0 6.471 4 12.94 4 6.468 0 6.468-4 12.935-4 6.473 0 6.473 4 12.944 4s6.472-4 12.944-4M2483.5 34.576c6.468 0 6.468 4 12.936 4 6.467 0 6.467-4 12.936-4 6.466 0 6.466 4 12.931 4 6.468 0 6.468-4 12.935-4 6.471 0 6.471 4 12.94 4 6.468 0 6.468-4 12.935-4 6.473 0 6.473 4 12.944 4s6.472-4 12.944-4M2483.5 39.443c6.468 0 6.468 4 12.936 4 6.467 0 6.467-4 12.936-4 6.466 0 6.466 4 12.931 4 6.468 0 6.468-4 12.935-4 6.471 0 6.471 4 12.94 4 6.468 0 6.468-4 12.935-4 6.473 0 6.473 4 12.944 4s6.472-4 12.944-4M2483.5 44.312c6.468 0 6.468 4 12.936 4 6.467 0 6.467-4 12.936-4 6.466 0 6.466 4 12.931 4 6.468 0 6.468-4 12.935-4 6.471 0 6.471 4 12.94 4 6.468 0 6.468-4 12.935-4 6.473 0 6.473 4 12.944 4s6.472-4 12.944-4"/><path fill="none" stroke="#EFEFEF" stroke-miterlimit="10" d="M2587 .5c6.468 0 6.468 4 12.935 4 6.468 0 6.468-4 12.937-4 6.466 0 6.466 4 12.931 4 6.468 0 6.468-4 12.936-4 6.47 0 6.47 4 12.939 4 6.467 0 6.467-4 12.936-4 6.472 0 6.472 4 12.943 4s6.472-4 12.944-4M2587 5.367c6.468 0 6.468 4 12.935 4 6.468 0 6.468-4 12.937-4 6.466 0 6.466 4 12.931 4 6.468 0 6.468-4 12.936-4 6.47 0 6.47 4 12.939 4 6.467 0 6.467-4 12.936-4 6.472 0 6.472 4 12.943 4s6.472-4 12.944-4M2587 10.235c6.468 0 6.468 4 12.935 4 6.468 0 6.468-4 12.937-4 6.466 0 6.466 4 12.931 4 6.468 0 6.468-4 12.936-4 6.47 0 6.47 4 12.939 4 6.467 0 6.467-4 12.936-4 6.472 0 6.472 4 12.943 4s6.472-4 12.944-4M2587 15.104c6.468 0 6.468 4 12.935 4 6.468 0 6.468-4 12.937-4 6.466 0 6.466 4 12.931 4 6.468 0 6.468-4 12.936-4 6.47 0 6.47 4 12.939 4 6.467 0 6.467-4 12.936-4 6.472 0 6.472 4 12.943 4s6.472-4 12.944-4M2587 19.972c6.468 0 6.468 4 12.935 4 6.468 0 6.468-4 12.937-4 6.466 0 6.466 4 12.931 4 6.468 0 6.468-4 12.936-4 6.47 0 6.47 4 12.939 4 6.467 0 6.467-4 12.936-4 6.472 0 6.472 4 12.943 4s6.472-4 12.944-4M2587 24.84c6.468 0 6.468 4 12.935 4 6.468 0 6.468-4 12.937-4 6.466 0 6.466 4 12.931 4 6.468 0 6.468-4 12.936-4 6.47 0 6.47 4 12.939 4 6.467 0 6.467-4 12.936-4 6.472 0 6.472 4 12.943 4s6.472-4 12.944-4M2587 29.708c6.468 0 6.468 4 12.935 4 6.468 0 6.468-4 12.937-4 6.466 0 6.466 4 12.931 4 6.468 0 6.468-4 12.936-4 6.47 0 6.47 4 12.939 4 6.467 0 6.467-4 12.936-4 6.472 0 6.472 4 12.943 4s6.472-4 12.944-4M2587 34.576c6.468 0 6.468 4 12.935 4 6.468 0 6.468-4 12.937-4 6.466 0 6.466 4 12.931 4 6.468 0 6.468-4 12.936-4 6.47 0 6.47 4 12.939 4 6.467 0 6.467-4 12.936-4 6.472 0 6.472 4 12.943 4s6.472-4 12.944-4M2587 39.443c6.468 0 6.468 4 12.935 4 6.468 0 6.468-4 12.937-4 6.466 0 6.466 4 12.931 4 6.468 0 6.468-4 12.936-4 6.47 0 6.47 4 12.939 4 6.467 0 6.467-4 12.936-4 6.472 0 6.472 4 12.943 4s6.472-4 12.944-4M2587 44.312c6.468 0 6.468 4 12.935 4 6.468 0 6.468-4 12.937-4 6.466 0 6.466 4 12.931 4 6.468 0 6.468-4 12.936-4 6.47 0 6.47 4 12.939 4 6.467 0 6.467-4 12.936-4 6.472 0 6.472 4 12.943 4s6.472-4 12.944-4"/><path fill="none" stroke="#EFEFEF" stroke-miterlimit="10" d="M2690.5.5c6.468 0 6.468 4 12.935 4 6.468 0 6.468-4 12.937-4 6.466 0 6.466 4 12.931 4 6.468 0 6.468-4 12.936-4 6.47 0 6.47 4 12.939 4 6.467 0 6.467-4 12.936-4 6.472 0 6.472 4 12.943 4s6.472-4 12.944-4M2690.5 5.367c6.468 0 6.468 4 12.935 4 6.468 0 6.468-4 12.937-4 6.466 0 6.466 4 12.931 4 6.468 0 6.468-4 12.936-4 6.47 0 6.47 4 12.939 4 6.467 0 6.467-4 12.936-4 6.472 0 6.472 4 12.943 4s6.472-4 12.944-4M2690.5 10.235c6.468 0 6.468 4 12.935 4 6.468 0 6.468-4 12.937-4 6.466 0 6.466 4 12.931 4 6.468 0 6.468-4 12.936-4 6.47 0 6.47 4 12.939 4 6.467 0 6.467-4 12.936-4 6.472 0 6.472 4 12.943 4s6.472-4 12.944-4M2690.5 15.104c6.468 0 6.468 4 12.935 4 6.468 0 6.468-4 12.937-4 6.466 0 6.466 4 12.931 4 6.468 0 6.468-4 12.936-4 6.47 0 6.47 4 12.939 4 6.467 0 6.467-4 12.936-4 6.472 0 6.472 4 12.943 4s6.472-4 12.944-4M2690.5 19.972c6.468 0 6.468 4 12.935 4 6.468 0 6.468-4 12.937-4 6.466 0 6.466 4 12.931 4 6.468 0 6.468-4 12.936-4 6.47 0 6.47 4 12.939 4 6.467 0 6.467-4 12.936-4 6.472 0 6.472 4 12.943 4s6.472-4 12.944-4M2690.5 24.84c6.468 0 6.468 4 12.935 4 6.468 0 6.468-4 12.937-4 6.466 0 6.466 4 12.931 4 6.468 0 6.468-4 12.936-4 6.47 0 6.47 4 12.939 4 6.467 0 6.467-4 12.936-4 6.472 0 6.472 4 12.943 4s6.472-4 12.944-4M2690.5 29.708c6.468 0 6.468 4 12.935 4 6.468 0 6.468-4 12.937-4 6.466 0 6.466 4 12.931 4 6.468 0 6.468-4 12.936-4 6.47 0 6.47 4 12.939 4 6.467 0 6.467-4 12.936-4 6.472 0 6.472 4 12.943 4s6.472-4 12.944-4M2690.5 34.576c6.468 0 6.468 4 12.935 4 6.468 0 6.468-4 12.937-4 6.466 0 6.466 4 12.931 4 6.468 0 6.468-4 12.936-4 6.47 0 6.47 4 12.939 4 6.467 0 6.467-4 12.936-4 6.472 0 6.472 4 12.943 4s6.472-4 12.944-4M2690.5 39.443c6.468 0 6.468 4 12.935 4 6.468 0 6.468-4 12.937-4 6.466 0 6.466 4 12.931 4 6.468 0 6.468-4 12.936-4 6.47 0 6.47 4 12.939 4 6.467 0 6.467-4 12.936-4 6.472 0 6.472 4 12.943 4s6.472-4 12.944-4M2690.5 44.312c6.468 0 6.468 4 12.935 4 6.468 0 6.468-4 12.937-4 6.466 0 6.466 4 12.931 4 6.468 0 6.468-4 12.936-4 6.47 0 6.47 4 12.939 4 6.467 0 6.467-4 12.936-4 6.472 0 6.472 4 12.943 4s6.472-4 12.944-4"/><path fill="none" stroke="#EFEFEF" stroke-miterlimit="10" d="M2794 .5c6.468 0 6.468 4 12.935 4 6.468 0 6.468-4 12.937-4 6.466 0 6.466 4 12.931 4 6.468 0 6.468-4 12.936-4 6.47 0 6.47 4 12.939 4 6.467 0 6.467-4 12.936-4 6.472 0 6.472 4 12.943 4s6.472-4 12.944-4M2794 5.367c6.468 0 6.468 4 12.935 4 6.468 0 6.468-4 12.937-4 6.466 0 6.466 4 12.931 4 6.468 0 6.468-4 12.936-4 6.47 0 6.47 4 12.939 4 6.467 0 6.467-4 12.936-4 6.472 0 6.472 4 12.943 4s6.472-4 12.944-4M2794 10.235c6.468 0 6.468 4 12.935 4 6.468 0 6.468-4 12.937-4 6.466 0 6.466 4 12.931 4 6.468 0 6.468-4 12.936-4 6.47 0 6.47 4 12.939 4 6.467 0 6.467-4 12.936-4 6.472 0 6.472 4 12.943 4s6.472-4 12.944-4M2794 15.104c6.468 0 6.468 4 12.935 4 6.468 0 6.468-4 12.937-4 6.466 0 6.466 4 12.931 4 6.468 0 6.468-4 12.936-4 6.47 0 6.47 4 12.939 4 6.467 0 6.467-4 12.936-4 6.472 0 6.472 4 12.943 4s6.472-4 12.944-4M2794 19.972c6.468 0 6.468 4 12.935 4 6.468 0 6.468-4 12.937-4 6.466 0 6.466 4 12.931 4 6.468 0 6.468-4 12.936-4 6.47 0 6.47 4 12.939 4 6.467 0 6.467-4 12.936-4 6.472 0 6.472 4 12.943 4s6.472-4 12.944-4M2794 24.84c6.468 0 6.468 4 12.935 4 6.468 0 6.468-4 12.937-4 6.466 0 6.466 4 12.931 4 6.468 0 6.468-4 12.936-4 6.47 0 6.47 4 12.939 4 6.467 0 6.467-4 12.936-4 6.472 0 6.472 4 12.943 4s6.472-4 12.944-4M2794 29.708c6.468 0 6.468 4 12.935 4 6.468 0 6.468-4 12.937-4 6.466 0 6.466 4 12.931 4 6.468 0 6.468-4 12.936-4 6.47 0 6.47 4 12.939 4 6.467 0 6.467-4 12.936-4 6.472 0 6.472 4 12.943 4s6.472-4 12.944-4M2794 34.576c6.468 0 6.468 4 12.935 4 6.468 0 6.468-4 12.937-4 6.466 0 6.466 4 12.931 4 6.468 0 6.468-4 12.936-4 6.47 0 6.47 4 12.939 4 6.467 0 6.467-4 12.936-4 6.472 0 6.472 4 12.943 4s6.472-4 12.944-4M2794 39.443c6.468 0 6.468 4 12.935 4 6.468 0 6.468-4 12.937-4 6.466 0 6.466 4 12.931 4 6.468 0 6.468-4 12.936-4 6.47 0 6.47 4 12.939 4 6.467 0 6.467-4 12.936-4 6.472 0 6.472 4 12.943 4s6.472-4 12.944-4M2794 44.312c6.468 0 6.468 4 12.935 4 6.468 0 6.468-4 12.937-4 6.466 0 6.466 4 12.931 4 6.468 0 6.468-4 12.936-4 6.47 0 6.47 4 12.939 4 6.467 0 6.467-4 12.936-4 6.472 0 6.472 4 12.943 4s6.472-4 12.944-4"/><path fill="none" stroke="#EFEFEF" stroke-miterlimit="10" d="M2897.5.5c6.468 0 6.468 4 12.935 4 6.468 0 6.468-4 12.937-4 6.466 0 6.466 4 12.931 4 6.468 0 6.468-4 12.936-4 6.47 0 6.47 4 12.939 4 6.467 0 6.467-4 12.935-4 6.473 0 6.473 4 12.944 4s6.472-4 12.944-4M2897.5 5.367c6.468 0 6.468 4 12.935 4 6.468 0 6.468-4 12.937-4 6.466 0 6.466 4 12.931 4 6.468 0 6.468-4 12.936-4 6.47 0 6.47 4 12.939 4 6.467 0 6.467-4 12.935-4 6.473 0 6.473 4 12.944 4s6.472-4 12.944-4M2897.5 10.235c6.468 0 6.468 4 12.935 4 6.468 0 6.468-4 12.937-4 6.466 0 6.466 4 12.931 4 6.468 0 6.468-4 12.936-4 6.47 0 6.47 4 12.939 4 6.467 0 6.467-4 12.935-4 6.473 0 6.473 4 12.944 4s6.472-4 12.944-4M2897.5 15.104c6.468 0 6.468 4 12.935 4 6.468 0 6.468-4 12.937-4 6.466 0 6.466 4 12.931 4 6.468 0 6.468-4 12.936-4 6.47 0 6.47 4 12.939 4 6.467 0 6.467-4 12.935-4 6.473 0 6.473 4 12.944 4s6.472-4 12.944-4M2897.5 19.972c6.468 0 6.468 4 12.935 4 6.468 0 6.468-4 12.937-4 6.466 0 6.466 4 12.931 4 6.468 0 6.468-4 12.936-4 6.47 0 6.47 4 12.939 4 6.467 0 6.467-4 12.935-4 6.473 0 6.473 4 12.944 4s6.472-4 12.944-4M2897.5 24.84c6.468 0 6.468 4 12.935 4 6.468 0 6.468-4 12.937-4 6.466 0 6.466 4 12.931 4 6.468 0 6.468-4 12.936-4 6.47 0 6.47 4 12.939 4 6.467 0 6.467-4 12.935-4 6.473 0 6.473 4 12.944 4s6.472-4 12.944-4M2897.5 29.708c6.468 0 6.468 4 12.935 4 6.468 0 6.468-4 12.937-4 6.466 0 6.466 4 12.931 4 6.468 0 6.468-4 12.936-4 6.47 0 6.47 4 12.939 4 6.467 0 6.467-4 12.935-4 6.473 0 6.473 4 12.944 4s6.472-4 12.944-4M2897.5 34.576c6.468 0 6.468 4 12.935 4 6.468 0 6.468-4 12.937-4 6.466 0 6.466 4 12.931 4 6.468 0 6.468-4 12.936-4 6.47 0 6.47 4 12.939 4 6.467 0 6.467-4 12.935-4 6.473 0 6.473 4 12.944 4s6.472-4 12.944-4M2897.5 39.443c6.468 0 6.468 4 12.935 4 6.468 0 6.468-4 12.937-4 6.466 0 6.466 4 12.931 4 6.468 0 6.468-4 12.936-4 6.47 0 6.47 4 12.939 4 6.467 0 6.467-4 12.935-4 6.473 0 6.473 4 12.944 4s6.472-4 12.944-4M2897.5 44.312c6.468 0 6.468 4 12.935 4 6.468 0 6.468-4 12.937-4 6.466 0 6.466 4 12.931 4 6.468 0 6.468-4 12.936-4 6.47 0 6.47 4 12.939 4 6.467 0 6.467-4 12.935-4 6.473 0 6.473 4 12.944 4s6.472-4 12.944-4"/><path fill="none" stroke="#EFEFEF" stroke-miterlimit="10" d="M3001 .5c6.468 0 6.468 4 12.935 4 6.468 0 6.468-4 12.937-4 6.466 0 6.466 4 12.931 4 6.468 0 6.468-4 12.935-4 6.471 0 6.471 4 12.94 4 6.467 0 6.467-4 12.935-4 6.473 0 6.473 4 12.944 4s6.472-4 12.944-4M3001 5.367c6.468 0 6.468 4 12.935 4 6.468 0 6.468-4 12.937-4 6.466 0 6.466 4 12.931 4 6.468 0 6.468-4 12.935-4 6.471 0 6.471 4 12.94 4 6.467 0 6.467-4 12.935-4 6.473 0 6.473 4 12.944 4s6.472-4 12.944-4M3001 10.235c6.468 0 6.468 4 12.935 4 6.468 0 6.468-4 12.937-4 6.466 0 6.466 4 12.931 4 6.468 0 6.468-4 12.935-4 6.471 0 6.471 4 12.94 4 6.467 0 6.467-4 12.935-4 6.473 0 6.473 4 12.944 4s6.472-4 12.944-4M3001 15.104c6.468 0 6.468 4 12.935 4 6.468 0 6.468-4 12.937-4 6.466 0 6.466 4 12.931 4 6.468 0 6.468-4 12.935-4 6.471 0 6.471 4 12.94 4 6.467 0 6.467-4 12.935-4 6.473 0 6.473 4 12.944 4s6.472-4 12.944-4M3001 19.972c6.468 0 6.468 4 12.935 4 6.468 0 6.468-4 12.937-4 6.466 0 6.466 4 12.931 4 6.468 0 6.468-4 12.935-4 6.471 0 6.471 4 12.94 4 6.467 0 6.467-4 12.935-4 6.473 0 6.473 4 12.944 4s6.472-4 12.944-4M3001 24.84c6.468 0 6.468 4 12.935 4 6.468 0 6.468-4 12.937-4 6.466 0 6.466 4 12.931 4 6.468 0 6.468-4 12.935-4 6.471 0 6.471 4 12.94 4 6.467 0 6.467-4 12.935-4 6.473 0 6.473 4 12.944 4s6.472-4 12.944-4M3001 29.708c6.468 0 6.468 4 12.935 4 6.468 0 6.468-4 12.937-4 6.466 0 6.466 4 12.931 4 6.468 0 6.468-4 12.935-4 6.471 0 6.471 4 12.94 4 6.467 0 6.467-4 12.935-4 6.473 0 6.473 4 12.944 4s6.472-4 12.944-4M3001 34.576c6.468 0 6.468 4 12.935 4 6.468 0 6.468-4 12.937-4 6.466 0 6.466 4 12.931 4 6.468 0 6.468-4 12.935-4 6.471 0 6.471 4 12.94 4 6.467 0 6.467-4 12.935-4 6.473 0 6.473 4 12.944 4s6.472-4 12.944-4M3001 39.443c6.468 0 6.468 4 12.935 4 6.468 0 6.468-4 12.937-4 6.466 0 6.466 4 12.931 4 6.468 0 6.468-4 12.935-4 6.471 0 6.471 4 12.94 4 6.467 0 6.467-4 12.935-4 6.473 0 6.473 4 12.944 4s6.472-4 12.944-4M3001 44.312c6.468 0 6.468 4 12.935 4 6.468 0 6.468-4 12.937-4 6.466 0 6.466 4 12.931 4 6.468 0 6.468-4 12.935-4 6.471 0 6.471 4 12.94 4 6.467 0 6.467-4 12.935-4 6.473 0 6.473 4 12.944 4s6.472-4 12.944-4"/><path fill="none" stroke="#EFEFEF" stroke-miterlimit="10" d="M3104 .5c6.468 0 6.468 4 12.936 4 6.467 0 6.467-4 12.936-4 6.466 0 6.466 4 12.931 4 6.468 0 6.468-4 12.935-4 6.471 0 6.471 4 12.94 4 6.468 0 6.468-4 12.935-4 6.473 0 6.473 4 12.945 4 6.471 0 6.471-4 12.943-4M3104 5.367c6.468 0 6.468 4 12.936 4 6.467 0 6.467-4 12.936-4 6.466 0 6.466 4 12.931 4 6.468 0 6.468-4 12.935-4 6.471 0 6.471 4 12.94 4 6.468 0 6.468-4 12.935-4 6.473 0 6.473 4 12.945 4 6.471 0 6.471-4 12.943-4M3104 10.235c6.468 0 6.468 4 12.936 4 6.467 0 6.467-4 12.936-4 6.466 0 6.466 4 12.931 4 6.468 0 6.468-4 12.935-4 6.471 0 6.471 4 12.94 4 6.468 0 6.468-4 12.935-4 6.473 0 6.473 4 12.945 4 6.471 0 6.471-4 12.943-4M3104 15.104c6.468 0 6.468 4 12.936 4 6.467 0 6.467-4 12.936-4 6.466 0 6.466 4 12.931 4 6.468 0 6.468-4 12.935-4 6.471 0 6.471 4 12.94 4 6.468 0 6.468-4 12.935-4 6.473 0 6.473 4 12.945 4 6.471 0 6.471-4 12.943-4M3104 19.972c6.468 0 6.468 4 12.936 4 6.467 0 6.467-4 12.936-4 6.466 0 6.466 4 12.931 4 6.468 0 6.468-4 12.935-4 6.471 0 6.471 4 12.94 4 6.468 0 6.468-4 12.935-4 6.473 0 6.473 4 12.945 4 6.471 0 6.471-4 12.943-4M3104 24.84c6.468 0 6.468 4 12.936 4 6.467 0 6.467-4 12.936-4 6.466 0 6.466 4 12.931 4 6.468 0 6.468-4 12.935-4 6.471 0 6.471 4 12.94 4 6.468 0 6.468-4 12.935-4 6.473 0 6.473 4 12.945 4 6.471 0 6.471-4 12.943-4M3104 29.708c6.468 0 6.468 4 12.936 4 6.467 0 6.467-4 12.936-4 6.466 0 6.466 4 12.931 4 6.468 0 6.468-4 12.935-4 6.471 0 6.471 4 12.94 4 6.468 0 6.468-4 12.935-4 6.473 0 6.473 4 12.945 4 6.471 0 6.471-4 12.943-4M3104 34.576c6.468 0 6.468 4 12.936 4 6.467 0 6.467-4 12.936-4 6.466 0 6.466 4 12.931 4 6.468 0 6.468-4 12.935-4 6.471 0 6.471 4 12.94 4 6.468 0 6.468-4 12.935-4 6.473 0 6.473 4 12.945 4 6.471 0 6.471-4 12.943-4M3104 39.443c6.468 0 6.468 4 12.936 4 6.467 0 6.467-4 12.936-4 6.466 0 6.466 4 12.931 4 6.468 0 6.468-4 12.935-4 6.471 0 6.471 4 12.94 4 6.468 0 6.468-4 12.935-4 6.473 0 6.473 4 12.945 4 6.471 0 6.471-4 12.943-4M3104 44.312c6.468 0 6.468 4 12.936 4 6.467 0 6.467-4 12.936-4 6.466 0 6.466 4 12.931 4 6.468 0 6.468-4 12.935-4 6.471 0 6.471 4 12.94 4 6.468 0 6.468-4 12.935-4 6.473 0 6.473 4 12.945 4 6.471 0 6.471-4 12.943-4"/><path fill="none" stroke="#EFEFEF" stroke-miterlimit="10" d="M3207.5.5c6.468 0 6.468 4 12.936 4 6.467 0 6.467-4 12.936-4 6.466 0 6.466 4 12.931 4 6.468 0 6.468-4 12.935-4 6.471 0 6.471 4 12.939 4s6.469-4 12.936-4c6.473 0 6.473 4 12.945 4 6.471 0 6.471-4 12.943-4M3207.5 5.367c6.468 0 6.468 4 12.936 4 6.467 0 6.467-4 12.936-4 6.466 0 6.466 4 12.931 4 6.468 0 6.468-4 12.935-4 6.471 0 6.471 4 12.939 4s6.469-4 12.936-4c6.473 0 6.473 4 12.945 4 6.471 0 6.471-4 12.943-4M3207.5 10.235c6.468 0 6.468 4 12.936 4 6.467 0 6.467-4 12.936-4 6.466 0 6.466 4 12.931 4 6.468 0 6.468-4 12.935-4 6.471 0 6.471 4 12.939 4s6.469-4 12.936-4c6.473 0 6.473 4 12.945 4 6.471 0 6.471-4 12.943-4M3207.5 15.104c6.468 0 6.468 4 12.936 4 6.467 0 6.467-4 12.936-4 6.466 0 6.466 4 12.931 4 6.468 0 6.468-4 12.935-4 6.471 0 6.471 4 12.939 4s6.469-4 12.936-4c6.473 0 6.473 4 12.945 4 6.471 0 6.471-4 12.943-4M3207.5 19.972c6.468 0 6.468 4 12.936 4 6.467 0 6.467-4 12.936-4 6.466 0 6.466 4 12.931 4 6.468 0 6.468-4 12.935-4 6.471 0 6.471 4 12.939 4s6.469-4 12.936-4c6.473 0 6.473 4 12.945 4 6.471 0 6.471-4 12.943-4M3207.5 24.84c6.468 0 6.468 4 12.936 4 6.467 0 6.467-4 12.936-4 6.466 0 6.466 4 12.931 4 6.468 0 6.468-4 12.935-4 6.471 0 6.471 4 12.939 4s6.469-4 12.936-4c6.473 0 6.473 4 12.945 4 6.471 0 6.471-4 12.943-4M3207.5 29.708c6.468 0 6.468 4 12.936 4 6.467 0 6.467-4 12.936-4 6.466 0 6.466 4 12.931 4 6.468 0 6.468-4 12.935-4 6.471 0 6.471 4 12.939 4s6.469-4 12.936-4c6.473 0 6.473 4 12.945 4 6.471 0 6.471-4 12.943-4M3207.5 34.576c6.468 0 6.468 4 12.936 4 6.467 0 6.467-4 12.936-4 6.466 0 6.466 4 12.931 4 6.468 0 6.468-4 12.935-4 6.471 0 6.471 4 12.939 4s6.469-4 12.936-4c6.473 0 6.473 4 12.945 4 6.471 0 6.471-4 12.943-4M3207.5 39.443c6.468 0 6.468 4 12.936 4 6.467 0 6.467-4 12.936-4 6.466 0 6.466 4 12.931 4 6.468 0 6.468-4 12.935-4 6.471 0 6.471 4 12.939 4s6.469-4 12.936-4c6.473 0 6.473 4 12.945 4 6.471 0 6.471-4 12.943-4M3207.5 44.312c6.468 0 6.468 4 12.936 4 6.467 0 6.467-4 12.936-4 6.466 0 6.466 4 12.931 4 6.468 0 6.468-4 12.935-4 6.471 0 6.471 4 12.939 4s6.469-4 12.936-4c6.473 0 6.473 4 12.945 4 6.471 0 6.471-4 12.943-4"/><path fill="none" stroke="#EFEFEF" stroke-miterlimit="10" d="M3311 .5c6.468 0 6.468 4 12.936 4 6.467 0 6.467-4 12.936-4 6.466 0 6.466 4 12.931 4 6.468 0 6.468-4 12.935-4 6.471 0 6.471 4 12.94 4 6.468 0 6.468-4 12.935-4 6.473 0 6.473 4 12.944 4s6.472-4 12.944-4M3311 5.367c6.468 0 6.468 4 12.936 4 6.467 0 6.467-4 12.936-4 6.466 0 6.466 4 12.931 4 6.468 0 6.468-4 12.935-4 6.471 0 6.471 4 12.94 4 6.468 0 6.468-4 12.935-4 6.473 0 6.473 4 12.944 4s6.472-4 12.944-4M3311 10.235c6.468 0 6.468 4 12.936 4 6.467 0 6.467-4 12.936-4 6.466 0 6.466 4 12.931 4 6.468 0 6.468-4 12.935-4 6.471 0 6.471 4 12.94 4 6.468 0 6.468-4 12.935-4 6.473 0 6.473 4 12.944 4s6.472-4 12.944-4M3311 15.104c6.468 0 6.468 4 12.936 4 6.467 0 6.467-4 12.936-4 6.466 0 6.466 4 12.931 4 6.468 0 6.468-4 12.935-4 6.471 0 6.471 4 12.94 4 6.468 0 6.468-4 12.935-4 6.473 0 6.473 4 12.944 4s6.472-4 12.944-4M3311 19.972c6.468 0 6.468 4 12.936 4 6.467 0 6.467-4 12.936-4 6.466 0 6.466 4 12.931 4 6.468 0 6.468-4 12.935-4 6.471 0 6.471 4 12.94 4 6.468 0 6.468-4 12.935-4 6.473 0 6.473 4 12.944 4s6.472-4 12.944-4M3311 24.84c6.468 0 6.468 4 12.936 4 6.467 0 6.467-4 12.936-4 6.466 0 6.466 4 12.931 4 6.468 0 6.468-4 12.935-4 6.471 0 6.471 4 12.94 4 6.468 0 6.468-4 12.935-4 6.473 0 6.473 4 12.944 4s6.472-4 12.944-4M3311 29.708c6.468 0 6.468 4 12.936 4 6.467 0 6.467-4 12.936-4 6.466 0 6.466 4 12.931 4 6.468 0 6.468-4 12.935-4 6.471 0 6.471 4 12.94 4 6.468 0 6.468-4 12.935-4 6.473 0 6.473 4 12.944 4s6.472-4 12.944-4M3311 34.576c6.468 0 6.468 4 12.936 4 6.467 0 6.467-4 12.936-4 6.466 0 6.466 4 12.931 4 6.468 0 6.468-4 12.935-4 6.471 0 6.471 4 12.94 4 6.468 0 6.468-4 12.935-4 6.473 0 6.473 4 12.944 4s6.472-4 12.944-4M3311 39.443c6.468 0 6.468 4 12.936 4 6.467 0 6.467-4 12.936-4 6.466 0 6.466 4 12.931 4 6.468 0 6.468-4 12.935-4 6.471 0 6.471 4 12.94 4 6.468 0 6.468-4 12.935-4 6.473 0 6.473 4 12.944 4s6.472-4 12.944-4M3311 44.312c6.468 0 6.468 4 12.936 4 6.467 0 6.467-4 12.936-4 6.466 0 6.466 4 12.931 4 6.468 0 6.468-4 12.935-4 6.471 0 6.471 4 12.94 4 6.468 0 6.468-4 12.935-4 6.473 0 6.473 4 12.944 4s6.472-4 12.944-4"/><path fill="none" stroke="#EFEFEF" stroke-miterlimit="10" d="M3414.5.5c6.468 0 6.468 4 12.936 4 6.467 0 6.467-4 12.936-4 6.466 0 6.466 4 12.931 4 6.468 0 6.468-4 12.935-4 6.471 0 6.471 4 12.94 4 6.468 0 6.468-4 12.935-4 6.473 0 6.473 4 12.944 4s6.472-4 12.944-4M3414.5 5.367c6.468 0 6.468 4 12.936 4 6.467 0 6.467-4 12.936-4 6.466 0 6.466 4 12.931 4 6.468 0 6.468-4 12.935-4 6.471 0 6.471 4 12.94 4 6.468 0 6.468-4 12.935-4 6.473 0 6.473 4 12.944 4s6.472-4 12.944-4M3414.5 10.235c6.468 0 6.468 4 12.936 4 6.467 0 6.467-4 12.936-4 6.466 0 6.466 4 12.931 4 6.468 0 6.468-4 12.935-4 6.471 0 6.471 4 12.94 4 6.468 0 6.468-4 12.935-4 6.473 0 6.473 4 12.944 4s6.472-4 12.944-4M3414.5 15.104c6.468 0 6.468 4 12.936 4 6.467 0 6.467-4 12.936-4 6.466 0 6.466 4 12.931 4 6.468 0 6.468-4 12.935-4 6.471 0 6.471 4 12.94 4 6.468 0 6.468-4 12.935-4 6.473 0 6.473 4 12.944 4s6.472-4 12.944-4M3414.5 19.972c6.468 0 6.468 4 12.936 4 6.467 0 6.467-4 12.936-4 6.466 0 6.466 4 12.931 4 6.468 0 6.468-4 12.935-4 6.471 0 6.471 4 12.94 4 6.468 0 6.468-4 12.935-4 6.473 0 6.473 4 12.944 4s6.472-4 12.944-4M3414.5 24.84c6.468 0 6.468 4 12.936 4 6.467 0 6.467-4 12.936-4 6.466 0 6.466 4 12.931 4 6.468 0 6.468-4 12.935-4 6.471 0 6.471 4 12.94 4 6.468 0 6.468-4 12.935-4 6.473 0 6.473 4 12.944 4s6.472-4 12.944-4M3414.5 29.708c6.468 0 6.468 4 12.936 4 6.467 0 6.467-4 12.936-4 6.466 0 6.466 4 12.931 4 6.468 0 6.468-4 12.935-4 6.471 0 6.471 4 12.94 4 6.468 0 6.468-4 12.935-4 6.473 0 6.473 4 12.944 4s6.472-4 12.944-4M3414.5 34.576c6.468 0 6.468 4 12.936 4 6.467 0 6.467-4 12.936-4 6.466 0 6.466 4 12.931 4 6.468 0 6.468-4 12.935-4 6.471 0 6.471 4 12.94 4 6.468 0 6.468-4 12.935-4 6.473 0 6.473 4 12.944 4s6.472-4 12.944-4M3414.5 39.443c6.468 0 6.468 4 12.936 4 6.467 0 6.467-4 12.936-4 6.466 0 6.466 4 12.931 4 6.468 0 6.468-4 12.935-4 6.471 0 6.471 4 12.94 4 6.468 0 6.468-4 12.935-4 6.473 0 6.473 4 12.944 4s6.472-4 12.944-4M3414.5 44.312c6.468 0 6.468 4 12.936 4 6.467 0 6.467-4 12.936-4 6.466 0 6.466 4 12.931 4 6.468 0 6.468-4 12.935-4 6.471 0 6.471 4 12.94 4 6.468 0 6.468-4 12.935-4 6.473 0 6.473 4 12.944 4s6.472-4 12.944-4"/><path fill="none" stroke="#EFEFEF" stroke-miterlimit="10" d="M3518 .5c6.468 0 6.468 4 12.936 4 6.467 0 6.467-4 12.936-4 6.466 0 6.466 4 12.931 4 6.468 0 6.468-4 12.935-4 6.471 0 6.471 4 12.94 4 6.468 0 6.468-4 12.935-4 6.473 0 6.473 4 12.944 4s6.472-4 12.944-4M3518 5.367c6.468 0 6.468 4 12.936 4 6.467 0 6.467-4 12.936-4 6.466 0 6.466 4 12.931 4 6.468 0 6.468-4 12.935-4 6.471 0 6.471 4 12.94 4 6.468 0 6.468-4 12.935-4 6.473 0 6.473 4 12.944 4s6.472-4 12.944-4M3518 10.235c6.468 0 6.468 4 12.936 4 6.467 0 6.467-4 12.936-4 6.466 0 6.466 4 12.931 4 6.468 0 6.468-4 12.935-4 6.471 0 6.471 4 12.94 4 6.468 0 6.468-4 12.935-4 6.473 0 6.473 4 12.944 4s6.472-4 12.944-4M3518 15.104c6.468 0 6.468 4 12.936 4 6.467 0 6.467-4 12.936-4 6.466 0 6.466 4 12.931 4 6.468 0 6.468-4 12.935-4 6.471 0 6.471 4 12.94 4 6.468 0 6.468-4 12.935-4 6.473 0 6.473 4 12.944 4s6.472-4 12.944-4M3518 19.972c6.468 0 6.468 4 12.936 4 6.467 0 6.467-4 12.936-4 6.466 0 6.466 4 12.931 4 6.468 0 6.468-4 12.935-4 6.471 0 6.471 4 12.94 4 6.468 0 6.468-4 12.935-4 6.473 0 6.473 4 12.944 4s6.472-4 12.944-4M3518 24.84c6.468 0 6.468 4 12.936 4 6.467 0 6.467-4 12.936-4 6.466 0 6.466 4 12.931 4 6.468 0 6.468-4 12.935-4 6.471 0 6.471 4 12.94 4 6.468 0 6.468-4 12.935-4 6.473 0 6.473 4 12.944 4s6.472-4 12.944-4M3518 29.708c6.468 0 6.468 4 12.936 4 6.467 0 6.467-4 12.936-4 6.466 0 6.466 4 12.931 4 6.468 0 6.468-4 12.935-4 6.471 0 6.471 4 12.94 4 6.468 0 6.468-4 12.935-4 6.473 0 6.473 4 12.944 4s6.472-4 12.944-4M3518 34.576c6.468 0 6.468 4 12.936 4 6.467 0 6.467-4 12.936-4 6.466 0 6.466 4 12.931 4 6.468 0 6.468-4 12.935-4 6.471 0 6.471 4 12.94 4 6.468 0 6.468-4 12.935-4 6.473 0 6.473 4 12.944 4s6.472-4 12.944-4M3518 39.443c6.468 0 6.468 4 12.936 4 6.467 0 6.467-4 12.936-4 6.466 0 6.466 4 12.931 4 6.468 0 6.468-4 12.935-4 6.471 0 6.471 4 12.94 4 6.468 0 6.468-4 12.935-4 6.473 0 6.473 4 12.944 4s6.472-4 12.944-4M3518 44.312c6.468 0 6.468 4 12.936 4 6.467 0 6.467-4 12.936-4 6.466 0 6.466 4 12.931 4 6.468 0 6.468-4 12.935-4 6.471 0 6.471 4 12.94 4 6.468 0 6.468-4 12.935-4 6.473 0 6.473 4 12.944 4s6.472-4 12.944-4"/><path fill="none" stroke="#EFEFEF" stroke-miterlimit="10" d="M3621.5.5c6.468 0 6.468 4 12.935 4 6.468 0 6.468-4 12.937-4 6.466 0 6.466 4 12.931 4 6.468 0 6.468-4 12.936-4 6.47 0 6.47 4 12.939 4 6.467 0 6.467-4 12.936-4 6.472 0 6.472 4 12.943 4s6.472-4 12.944-4M3621.5 5.367c6.468 0 6.468 4 12.935 4 6.468 0 6.468-4 12.937-4 6.466 0 6.466 4 12.931 4 6.468 0 6.468-4 12.936-4 6.47 0 6.47 4 12.939 4 6.467 0 6.467-4 12.936-4 6.472 0 6.472 4 12.943 4s6.472-4 12.944-4M3621.5 10.235c6.468 0 6.468 4 12.935 4 6.468 0 6.468-4 12.937-4 6.466 0 6.466 4 12.931 4 6.468 0 6.468-4 12.936-4 6.47 0 6.47 4 12.939 4 6.467 0 6.467-4 12.936-4 6.472 0 6.472 4 12.943 4s6.472-4 12.944-4M3621.5 15.104c6.468 0 6.468 4 12.935 4 6.468 0 6.468-4 12.937-4 6.466 0 6.466 4 12.931 4 6.468 0 6.468-4 12.936-4 6.47 0 6.47 4 12.939 4 6.467 0 6.467-4 12.936-4 6.472 0 6.472 4 12.943 4s6.472-4 12.944-4M3621.5 19.972c6.468 0 6.468 4 12.935 4 6.468 0 6.468-4 12.937-4 6.466 0 6.466 4 12.931 4 6.468 0 6.468-4 12.936-4 6.47 0 6.47 4 12.939 4 6.467 0 6.467-4 12.936-4 6.472 0 6.472 4 12.943 4s6.472-4 12.944-4M3621.5 24.84c6.468 0 6.468 4 12.935 4 6.468 0 6.468-4 12.937-4 6.466 0 6.466 4 12.931 4 6.468 0 6.468-4 12.936-4 6.47 0 6.47 4 12.939 4 6.467 0 6.467-4 12.936-4 6.472 0 6.472 4 12.943 4s6.472-4 12.944-4M3621.5 29.708c6.468 0 6.468 4 12.935 4 6.468 0 6.468-4 12.937-4 6.466 0 6.466 4 12.931 4 6.468 0 6.468-4 12.936-4 6.47 0 6.47 4 12.939 4 6.467 0 6.467-4 12.936-4 6.472 0 6.472 4 12.943 4s6.472-4 12.944-4M3621.5 34.576c6.468 0 6.468 4 12.935 4 6.468 0 6.468-4 12.937-4 6.466 0 6.466 4 12.931 4 6.468 0 6.468-4 12.936-4 6.47 0 6.47 4 12.939 4 6.467 0 6.467-4 12.936-4 6.472 0 6.472 4 12.943 4s6.472-4 12.944-4M3621.5 39.443c6.468 0 6.468 4 12.935 4 6.468 0 6.468-4 12.937-4 6.466 0 6.466 4 12.931 4 6.468 0 6.468-4 12.936-4 6.47 0 6.47 4 12.939 4 6.467 0 6.467-4 12.936-4 6.472 0 6.472 4 12.943 4s6.472-4 12.944-4M3621.5 44.312c6.468 0 6.468 4 12.935 4 6.468 0 6.468-4 12.937-4 6.466 0 6.466 4 12.931 4 6.468 0 6.468-4 12.936-4 6.47 0 6.47 4 12.939 4 6.467 0 6.467-4 12.936-4 6.472 0 6.472 4 12.943 4s6.472-4 12.944-4"/><path fill="none" stroke="#EFEFEF" stroke-miterlimit="10" d="M3725 .5c6.468 0 6.468 4 12.935 4 6.468 0 6.468-4 12.937-4 6.466 0 6.466 4 12.931 4 6.468 0 6.468-4 12.936-4 6.47 0 6.47 4 12.939 4 6.467 0 6.467-4 12.936-4 6.472 0 6.472 4 12.943 4s6.472-4 12.944-4M3725 5.367c6.468 0 6.468 4 12.935 4 6.468 0 6.468-4 12.937-4 6.466 0 6.466 4 12.931 4 6.468 0 6.468-4 12.936-4 6.47 0 6.47 4 12.939 4 6.467 0 6.467-4 12.936-4 6.472 0 6.472 4 12.943 4s6.472-4 12.944-4M3725 10.235c6.468 0 6.468 4 12.935 4 6.468 0 6.468-4 12.937-4 6.466 0 6.466 4 12.931 4 6.468 0 6.468-4 12.936-4 6.47 0 6.47 4 12.939 4 6.467 0 6.467-4 12.936-4 6.472 0 6.472 4 12.943 4s6.472-4 12.944-4M3725 15.104c6.468 0 6.468 4 12.935 4 6.468 0 6.468-4 12.937-4 6.466 0 6.466 4 12.931 4 6.468 0 6.468-4 12.936-4 6.47 0 6.47 4 12.939 4 6.467 0 6.467-4 12.936-4 6.472 0 6.472 4 12.943 4s6.472-4 12.944-4M3725 19.972c6.468 0 6.468 4 12.935 4 6.468 0 6.468-4 12.937-4 6.466 0 6.466 4 12.931 4 6.468 0 6.468-4 12.936-4 6.47 0 6.47 4 12.939 4 6.467 0 6.467-4 12.936-4 6.472 0 6.472 4 12.943 4s6.472-4 12.944-4M3725 24.84c6.468 0 6.468 4 12.935 4 6.468 0 6.468-4 12.937-4 6.466 0 6.466 4 12.931 4 6.468 0 6.468-4 12.936-4 6.47 0 6.47 4 12.939 4 6.467 0 6.467-4 12.936-4 6.472 0 6.472 4 12.943 4s6.472-4 12.944-4M3725 29.708c6.468 0 6.468 4 12.935 4 6.468 0 6.468-4 12.937-4 6.466 0 6.466 4 12.931 4 6.468 0 6.468-4 12.936-4 6.47 0 6.47 4 12.939 4 6.467 0 6.467-4 12.936-4 6.472 0 6.472 4 12.943 4s6.472-4 12.944-4M3725 34.576c6.468 0 6.468 4 12.935 4 6.468 0 6.468-4 12.937-4 6.466 0 6.466 4 12.931 4 6.468 0 6.468-4 12.936-4 6.47 0 6.47 4 12.939 4 6.467 0 6.467-4 12.936-4 6.472 0 6.472 4 12.943 4s6.472-4 12.944-4M3725 39.443c6.468 0 6.468 4 12.935 4 6.468 0 6.468-4 12.937-4 6.466 0 6.466 4 12.931 4 6.468 0 6.468-4 12.936-4 6.47 0 6.47 4 12.939 4 6.467 0 6.467-4 12.936-4 6.472 0 6.472 4 12.943 4s6.472-4 12.944-4M3725 44.312c6.468 0 6.468 4 12.935 4 6.468 0 6.468-4 12.937-4 6.466 0 6.466 4 12.931 4 6.468 0 6.468-4 12.936-4 6.47 0 6.47 4 12.939 4 6.467 0 6.467-4 12.936-4 6.472 0 6.472 4 12.943 4s6.472-4 12.944-4"/><path fill="none" stroke="#EFEFEF" stroke-miterlimit="10" d="M3828.5.5c6.468 0 6.468 4 12.935 4 6.468 0 6.468-4 12.937-4 6.466 0 6.466 4 12.931 4 6.468 0 6.468-4 12.936-4 6.47 0 6.47 4 12.939 4 6.467 0 6.467-4 12.936-4 6.472 0 6.472 4 12.943 4s6.472-4 12.944-4M3828.5 5.367c6.468 0 6.468 4 12.935 4 6.468 0 6.468-4 12.937-4 6.466 0 6.466 4 12.931 4 6.468 0 6.468-4 12.936-4 6.47 0 6.47 4 12.939 4 6.467 0 6.467-4 12.936-4 6.472 0 6.472 4 12.943 4s6.472-4 12.944-4M3828.5 10.235c6.468 0 6.468 4 12.935 4 6.468 0 6.468-4 12.937-4 6.466 0 6.466 4 12.931 4 6.468 0 6.468-4 12.936-4 6.47 0 6.47 4 12.939 4 6.467 0 6.467-4 12.936-4 6.472 0 6.472 4 12.943 4s6.472-4 12.944-4M3828.5 15.104c6.468 0 6.468 4 12.935 4 6.468 0 6.468-4 12.937-4 6.466 0 6.466 4 12.931 4 6.468 0 6.468-4 12.936-4 6.47 0 6.47 4 12.939 4 6.467 0 6.467-4 12.936-4 6.472 0 6.472 4 12.943 4s6.472-4 12.944-4M3828.5 19.972c6.468 0 6.468 4 12.935 4 6.468 0 6.468-4 12.937-4 6.466 0 6.466 4 12.931 4 6.468 0 6.468-4 12.936-4 6.47 0 6.47 4 12.939 4 6.467 0 6.467-4 12.936-4 6.472 0 6.472 4 12.943 4s6.472-4 12.944-4M3828.5 24.84c6.468 0 6.468 4 12.935 4 6.468 0 6.468-4 12.937-4 6.466 0 6.466 4 12.931 4 6.468 0 6.468-4 12.936-4 6.47 0 6.47 4 12.939 4 6.467 0 6.467-4 12.936-4 6.472 0 6.472 4 12.943 4s6.472-4 12.944-4M3828.5 29.708c6.468 0 6.468 4 12.935 4 6.468 0 6.468-4 12.937-4 6.466 0 6.466 4 12.931 4 6.468 0 6.468-4 12.936-4 6.47 0 6.47 4 12.939 4 6.467 0 6.467-4 12.936-4 6.472 0 6.472 4 12.943 4s6.472-4 12.944-4M3828.5 34.576c6.468 0 6.468 4 12.935 4 6.468 0 6.468-4 12.937-4 6.466 0 6.466 4 12.931 4 6.468 0 6.468-4 12.936-4 6.47 0 6.47 4 12.939 4 6.467 0 6.467-4 12.936-4 6.472 0 6.472 4 12.943 4s6.472-4 12.944-4M3828.5 39.443c6.468 0 6.468 4 12.935 4 6.468 0 6.468-4 12.937-4 6.466 0 6.466 4 12.931 4 6.468 0 6.468-4 12.936-4 6.47 0 6.47 4 12.939 4 6.467 0 6.467-4 12.936-4 6.472 0 6.472 4 12.943 4s6.472-4 12.944-4M3828.5 44.312c6.468 0 6.468 4 12.935 4 6.468 0 6.468-4 12.937-4 6.466 0 6.466 4 12.931 4 6.468 0 6.468-4 12.936-4 6.47 0 6.47 4 12.939 4 6.467 0 6.467-4 12.936-4 6.472 0 6.472 4 12.943 4s6.472-4 12.944-4"/><path fill="none" stroke="#EFEFEF" stroke-miterlimit="10" d="M3932 .5c6.468 0 6.468 4 12.935 4 6.468 0 6.468-4 12.937-4 6.466 0 6.466 4 12.931 4 6.468 0 6.468-4 12.936-4 6.47 0 6.47 4 12.939 4 6.467 0 6.467-4 12.935-4 6.473 0 6.473 4 12.944 4s6.472-4 12.944-4M3932 5.367c6.468 0 6.468 4 12.935 4 6.468 0 6.468-4 12.937-4 6.466 0 6.466 4 12.931 4 6.468 0 6.468-4 12.936-4 6.47 0 6.47 4 12.939 4 6.467 0 6.467-4 12.935-4 6.473 0 6.473 4 12.944 4s6.472-4 12.944-4M3932 10.235c6.468 0 6.468 4 12.935 4 6.468 0 6.468-4 12.937-4 6.466 0 6.466 4 12.931 4 6.468 0 6.468-4 12.936-4 6.47 0 6.47 4 12.939 4 6.467 0 6.467-4 12.935-4 6.473 0 6.473 4 12.944 4s6.472-4 12.944-4M3932 15.104c6.468 0 6.468 4 12.935 4 6.468 0 6.468-4 12.937-4 6.466 0 6.466 4 12.931 4 6.468 0 6.468-4 12.936-4 6.47 0 6.47 4 12.939 4 6.467 0 6.467-4 12.935-4 6.473 0 6.473 4 12.944 4s6.472-4 12.944-4M3932 19.972c6.468 0 6.468 4 12.935 4 6.468 0 6.468-4 12.937-4 6.466 0 6.466 4 12.931 4 6.468 0 6.468-4 12.936-4 6.47 0 6.47 4 12.939 4 6.467 0 6.467-4 12.935-4 6.473 0 6.473 4 12.944 4s6.472-4 12.944-4M3932 24.84c6.468 0 6.468 4 12.935 4 6.468 0 6.468-4 12.937-4 6.466 0 6.466 4 12.931 4 6.468 0 6.468-4 12.936-4 6.47 0 6.47 4 12.939 4 6.467 0 6.467-4 12.935-4 6.473 0 6.473 4 12.944 4s6.472-4 12.944-4M3932 29.708c6.468 0 6.468 4 12.935 4 6.468 0 6.468-4 12.937-4 6.466 0 6.466 4 12.931 4 6.468 0 6.468-4 12.936-4 6.47 0 6.47 4 12.939 4 6.467 0 6.467-4 12.935-4 6.473 0 6.473 4 12.944 4s6.472-4 12.944-4M3932 34.576c6.468 0 6.468 4 12.935 4 6.468 0 6.468-4 12.937-4 6.466 0 6.466 4 12.931 4 6.468 0 6.468-4 12.936-4 6.47 0 6.47 4 12.939 4 6.467 0 6.467-4 12.935-4 6.473 0 6.473 4 12.944 4s6.472-4 12.944-4M3932 39.443c6.468 0 6.468 4 12.935 4 6.468 0 6.468-4 12.937-4 6.466 0 6.466 4 12.931 4 6.468 0 6.468-4 12.936-4 6.47 0 6.47 4 12.939 4 6.467 0 6.467-4 12.935-4 6.473 0 6.473 4 12.944 4s6.472-4 12.944-4M3932 44.312c6.468 0 6.468 4 12.935 4 6.468 0 6.468-4 12.937-4 6.466 0 6.466 4 12.931 4 6.468 0 6.468-4 12.936-4 6.47 0 6.47 4 12.939 4 6.467 0 6.467-4 12.935-4 6.473 0 6.473 4 12.944 4s6.472-4 12.944-4"/><path fill="none" stroke="#EFEFEF" stroke-miterlimit="10" d="M4035.5.5c6.468 0 6.468 4 12.935 4 6.468 0 6.468-4 12.937-4 6.466 0 6.466 4 12.931 4 6.468 0 6.468-4 12.935-4 6.471 0 6.471 4 12.94 4 6.467 0 6.467-4 12.935-4 6.473 0 6.473 4 12.944 4s6.472-4 12.944-4M4035.5 5.367c6.468 0 6.468 4 12.935 4 6.468 0 6.468-4 12.937-4 6.466 0 6.466 4 12.931 4 6.468 0 6.468-4 12.935-4 6.471 0 6.471 4 12.94 4 6.467 0 6.467-4 12.935-4 6.473 0 6.473 4 12.944 4s6.472-4 12.944-4M4035.5 10.235c6.468 0 6.468 4 12.935 4 6.468 0 6.468-4 12.937-4 6.466 0 6.466 4 12.931 4 6.468 0 6.468-4 12.935-4 6.471 0 6.471 4 12.94 4 6.467 0 6.467-4 12.935-4 6.473 0 6.473 4 12.944 4s6.472-4 12.944-4M4035.5 15.104c6.468 0 6.468 4 12.935 4 6.468 0 6.468-4 12.937-4 6.466 0 6.466 4 12.931 4 6.468 0 6.468-4 12.935-4 6.471 0 6.471 4 12.94 4 6.467 0 6.467-4 12.935-4 6.473 0 6.473 4 12.944 4s6.472-4 12.944-4M4035.5 19.972c6.468 0 6.468 4 12.935 4 6.468 0 6.468-4 12.937-4 6.466 0 6.466 4 12.931 4 6.468 0 6.468-4 12.935-4 6.471 0 6.471 4 12.94 4 6.467 0 6.467-4 12.935-4 6.473 0 6.473 4 12.944 4s6.472-4 12.944-4M4035.5 24.84c6.468 0 6.468 4 12.935 4 6.468 0 6.468-4 12.937-4 6.466 0 6.466 4 12.931 4 6.468 0 6.468-4 12.935-4 6.471 0 6.471 4 12.94 4 6.467 0 6.467-4 12.935-4 6.473 0 6.473 4 12.944 4s6.472-4 12.944-4M4035.5 29.708c6.468 0 6.468 4 12.935 4 6.468 0 6.468-4 12.937-4 6.466 0 6.466 4 12.931 4 6.468 0 6.468-4 12.935-4 6.471 0 6.471 4 12.94 4 6.467 0 6.467-4 12.935-4 6.473 0 6.473 4 12.944 4s6.472-4 12.944-4M4035.5 34.576c6.468 0 6.468 4 12.935 4 6.468 0 6.468-4 12.937-4 6.466 0 6.466 4 12.931 4 6.468 0 6.468-4 12.935-4 6.471 0 6.471 4 12.94 4 6.467 0 6.467-4 12.935-4 6.473 0 6.473 4 12.944 4s6.472-4 12.944-4M4035.5 39.443c6.468 0 6.468 4 12.935 4 6.468 0 6.468-4 12.937-4 6.466 0 6.466 4 12.931 4 6.468 0 6.468-4 12.935-4 6.471 0 6.471 4 12.94 4 6.467 0 6.467-4 12.935-4 6.473 0 6.473 4 12.944 4s6.472-4 12.944-4M4035.5 44.312c6.468 0 6.468 4 12.935 4 6.468 0 6.468-4 12.937-4 6.466 0 6.466 4 12.931 4 6.468 0 6.468-4 12.935-4 6.471 0 6.471 4 12.94 4 6.467 0 6.467-4 12.935-4 6.473 0 6.473 4 12.944 4s6.472-4 12.944-4M0 .5c6.468 0 6.468 4 12.935 4 6.468 0 6.468-4 12.936-4 6.466 0 6.466 4 12.931 4 6.468 0 6.468-4 12.935-4 6.47 0 6.47 4 12.94 4 6.467 0 6.467-4 12.935-4 6.472 0 6.472 4 12.944 4s6.472-4 12.944-4M0 5.367c6.468 0 6.468 4 12.935 4 6.468 0 6.468-4 12.936-4 6.466 0 6.466 4 12.931 4 6.468 0 6.468-4 12.935-4 6.47 0 6.47 4 12.94 4 6.467 0 6.467-4 12.935-4 6.472 0 6.472 4 12.944 4s6.472-4 12.944-4M0 10.235c6.468 0 6.468 4 12.935 4 6.468 0 6.468-4 12.936-4 6.466 0 6.466 4 12.931 4 6.468 0 6.468-4 12.935-4 6.47 0 6.47 4 12.94 4 6.467 0 6.467-4 12.935-4 6.472 0 6.472 4 12.944 4s6.472-4 12.944-4M0 15.104c6.468 0 6.468 4 12.935 4 6.468 0 6.468-4 12.936-4 6.466 0 6.466 4 12.931 4 6.468 0 6.468-4 12.935-4 6.47 0 6.47 4 12.94 4 6.467 0 6.467-4 12.935-4 6.472 0 6.472 4 12.944 4s6.472-4 12.944-4M0 19.972c6.468 0 6.468 4 12.935 4 6.468 0 6.468-4 12.936-4 6.466 0 6.466 4 12.931 4 6.468 0 6.468-4 12.935-4 6.47 0 6.47 4 12.94 4 6.467 0 6.467-4 12.935-4 6.472 0 6.472 4 12.944 4s6.472-4 12.944-4M0 24.84c6.468 0 6.468 4 12.935 4 6.468 0 6.468-4 12.936-4 6.466 0 6.466 4 12.931 4 6.468 0 6.468-4 12.935-4 6.47 0 6.47 4 12.94 4 6.467 0 6.467-4 12.935-4 6.472 0 6.472 4 12.944 4s6.472-4 12.944-4M0 29.708c6.468 0 6.468 4 12.935 4 6.468 0 6.468-4 12.936-4 6.466 0 6.466 4 12.931 4 6.468 0 6.468-4 12.935-4 6.47 0 6.47 4 12.94 4 6.467 0 6.467-4 12.935-4 6.472 0 6.472 4 12.944 4s6.472-4 12.944-4M0 34.576c6.468 0 6.468 4 12.935 4 6.468 0 6.468-4 12.936-4 6.466 0 6.466 4 12.931 4 6.468 0 6.468-4 12.935-4 6.47 0 6.47 4 12.94 4 6.467 0 6.467-4 12.935-4 6.472 0 6.472 4 12.944 4s6.472-4 12.944-4M0 39.443c6.468 0 6.468 4 12.935 4 6.468 0 6.468-4 12.936-4 6.466 0 6.466 4 12.931 4 6.468 0 6.468-4 12.935-4 6.47 0 6.47 4 12.94 4 6.467 0 6.467-4 12.935-4 6.472 0 6.472 4 12.944 4s6.472-4 12.944-4M0 44.312c6.468 0 6.468 4 12.935 4 6.468 0 6.468-4 12.936-4 6.466 0 6.466 4 12.931 4 6.468 0 6.468-4 12.935-4 6.47 0 6.47 4 12.94 4 6.467 0 6.467-4 12.935-4 6.472 0 6.472 4 12.944 4s6.472-4 12.944-4"/><path fill="none" stroke="#EFEFEF" stroke-miterlimit="10" d="M103.5.5c6.468 0 6.468 4 12.935 4 6.468 0 6.468-4 12.936-4 6.466 0 6.466 4 12.931 4 6.468 0 6.468-4 12.935-4 6.47 0 6.47 4 12.939 4 6.468 0 6.468-4 12.936-4 6.472 0 6.472 4 12.944 4s6.472-4 12.944-4M103.5 5.367c6.468 0 6.468 4 12.935 4 6.468 0 6.468-4 12.936-4 6.466 0 6.466 4 12.931 4 6.468 0 6.468-4 12.935-4 6.47 0 6.47 4 12.939 4 6.468 0 6.468-4 12.936-4 6.472 0 6.472 4 12.944 4s6.472-4 12.944-4M103.5 10.235c6.468 0 6.468 4 12.935 4 6.468 0 6.468-4 12.936-4 6.466 0 6.466 4 12.931 4 6.468 0 6.468-4 12.935-4 6.47 0 6.47 4 12.939 4 6.468 0 6.468-4 12.936-4 6.472 0 6.472 4 12.944 4s6.472-4 12.944-4M103.5 15.104c6.468 0 6.468 4 12.935 4 6.468 0 6.468-4 12.936-4 6.466 0 6.466 4 12.931 4 6.468 0 6.468-4 12.935-4 6.47 0 6.47 4 12.939 4 6.468 0 6.468-4 12.936-4 6.472 0 6.472 4 12.944 4s6.472-4 12.944-4M103.5 19.972c6.468 0 6.468 4 12.935 4 6.468 0 6.468-4 12.936-4 6.466 0 6.466 4 12.931 4 6.468 0 6.468-4 12.935-4 6.47 0 6.47 4 12.939 4 6.468 0 6.468-4 12.936-4 6.472 0 6.472 4 12.944 4s6.472-4 12.944-4M103.5 24.84c6.468 0 6.468 4 12.935 4 6.468 0 6.468-4 12.936-4 6.466 0 6.466 4 12.931 4 6.468 0 6.468-4 12.935-4 6.47 0 6.47 4 12.939 4 6.468 0 6.468-4 12.936-4 6.472 0 6.472 4 12.944 4s6.472-4 12.944-4M103.5 29.708c6.468 0 6.468 4 12.935 4 6.468 0 6.468-4 12.936-4 6.466 0 6.466 4 12.931 4 6.468 0 6.468-4 12.935-4 6.47 0 6.47 4 12.939 4 6.468 0 6.468-4 12.936-4 6.472 0 6.472 4 12.944 4s6.472-4 12.944-4M103.5 34.576c6.468 0 6.468 4 12.935 4 6.468 0 6.468-4 12.936-4 6.466 0 6.466 4 12.931 4 6.468 0 6.468-4 12.935-4 6.47 0 6.47 4 12.939 4 6.468 0 6.468-4 12.936-4 6.472 0 6.472 4 12.944 4s6.472-4 12.944-4M103.5 39.443c6.468 0 6.468 4 12.935 4 6.468 0 6.468-4 12.936-4 6.466 0 6.466 4 12.931 4 6.468 0 6.468-4 12.935-4 6.47 0 6.47 4 12.939 4 6.468 0 6.468-4 12.936-4 6.472 0 6.472 4 12.944 4s6.472-4 12.944-4M103.5 44.312c6.468 0 6.468 4 12.935 4 6.468 0 6.468-4 12.936-4 6.466 0 6.466 4 12.931 4 6.468 0 6.468-4 12.935-4 6.47 0 6.47 4 12.939 4 6.468 0 6.468-4 12.936-4 6.472 0 6.472 4 12.944 4s6.472-4 12.944-4M207 .5c6.468 0 6.468 4 12.935 4 6.468 0 6.468-4 12.936-4 6.466 0 6.466 4 12.931 4 6.468 0 6.468-4 12.935-4 6.47 0 6.47 4 12.94 4 6.467 0 6.467-4 12.935-4 6.472 0 6.472 4 12.944 4s6.472-4 12.944-4M207 5.367c6.468 0 6.468 4 12.935 4 6.468 0 6.468-4 12.936-4 6.466 0 6.466 4 12.931 4 6.468 0 6.468-4 12.935-4 6.47 0 6.47 4 12.94 4 6.467 0 6.467-4 12.935-4 6.472 0 6.472 4 12.944 4s6.472-4 12.944-4M207 10.235c6.468 0 6.468 4 12.935 4 6.468 0 6.468-4 12.936-4 6.466 0 6.466 4 12.931 4 6.468 0 6.468-4 12.935-4 6.47 0 6.47 4 12.94 4 6.467 0 6.467-4 12.935-4 6.472 0 6.472 4 12.944 4s6.472-4 12.944-4M207 15.104c6.468 0 6.468 4 12.935 4 6.468 0 6.468-4 12.936-4 6.466 0 6.466 4 12.931 4 6.468 0 6.468-4 12.935-4 6.47 0 6.47 4 12.94 4 6.467 0 6.467-4 12.935-4 6.472 0 6.472 4 12.944 4s6.472-4 12.944-4M207 19.972c6.468 0 6.468 4 12.935 4 6.468 0 6.468-4 12.936-4 6.466 0 6.466 4 12.931 4 6.468 0 6.468-4 12.935-4 6.47 0 6.47 4 12.94 4 6.467 0 6.467-4 12.935-4 6.472 0 6.472 4 12.944 4s6.472-4 12.944-4M207 24.84c6.468 0 6.468 4 12.935 4 6.468 0 6.468-4 12.936-4 6.466 0 6.466 4 12.931 4 6.468 0 6.468-4 12.935-4 6.47 0 6.47 4 12.94 4 6.467 0 6.467-4 12.935-4 6.472 0 6.472 4 12.944 4s6.472-4 12.944-4M207 29.708c6.468 0 6.468 4 12.935 4 6.468 0 6.468-4 12.936-4 6.466 0 6.466 4 12.931 4 6.468 0 6.468-4 12.935-4 6.47 0 6.47 4 12.94 4 6.467 0 6.467-4 12.935-4 6.472 0 6.472 4 12.944 4s6.472-4 12.944-4M207 34.576c6.468 0 6.468 4 12.935 4 6.468 0 6.468-4 12.936-4 6.466 0 6.466 4 12.931 4 6.468 0 6.468-4 12.935-4 6.47 0 6.47 4 12.94 4 6.467 0 6.467-4 12.935-4 6.472 0 6.472 4 12.944 4s6.472-4 12.944-4M207 39.443c6.468 0 6.468 4 12.935 4 6.468 0 6.468-4 12.936-4 6.466 0 6.466 4 12.931 4 6.468 0 6.468-4 12.935-4 6.47 0 6.47 4 12.94 4 6.467 0 6.467-4 12.935-4 6.472 0 6.472 4 12.944 4s6.472-4 12.944-4M207 44.312c6.468 0 6.468 4 12.935 4 6.468 0 6.468-4 12.936-4 6.466 0 6.466 4 12.931 4 6.468 0 6.468-4 12.935-4 6.47 0 6.47 4 12.94 4 6.467 0 6.467-4 12.935-4 6.472 0 6.472 4 12.944 4s6.472-4 12.944-4"/><path fill="none" stroke="#EFEFEF" stroke-miterlimit="10" d="M310.5.5c6.468 0 6.468 4 12.935 4 6.468 0 6.468-4 12.936-4 6.466 0 6.466 4 12.931 4 6.468 0 6.468-4 12.935-4 6.47 0 6.47 4 12.94 4 6.467 0 6.467-4 12.935-4 6.472 0 6.472 4 12.944 4s6.472-4 12.944-4M310.5 5.367c6.468 0 6.468 4 12.935 4 6.468 0 6.468-4 12.936-4 6.466 0 6.466 4 12.931 4 6.468 0 6.468-4 12.935-4 6.47 0 6.47 4 12.94 4 6.467 0 6.467-4 12.935-4 6.472 0 6.472 4 12.944 4s6.472-4 12.944-4M310.5 10.235c6.468 0 6.468 4 12.935 4 6.468 0 6.468-4 12.936-4 6.466 0 6.466 4 12.931 4 6.468 0 6.468-4 12.935-4 6.47 0 6.47 4 12.94 4 6.467 0 6.467-4 12.935-4 6.472 0 6.472 4 12.944 4s6.472-4 12.944-4M310.5 15.104c6.468 0 6.468 4 12.935 4 6.468 0 6.468-4 12.936-4 6.466 0 6.466 4 12.931 4 6.468 0 6.468-4 12.935-4 6.47 0 6.47 4 12.94 4 6.467 0 6.467-4 12.935-4 6.472 0 6.472 4 12.944 4s6.472-4 12.944-4M310.5 19.972c6.468 0 6.468 4 12.935 4 6.468 0 6.468-4 12.936-4 6.466 0 6.466 4 12.931 4 6.468 0 6.468-4 12.935-4 6.47 0 6.47 4 12.94 4 6.467 0 6.467-4 12.935-4 6.472 0 6.472 4 12.944 4s6.472-4 12.944-4M310.5 24.84c6.468 0 6.468 4 12.935 4 6.468 0 6.468-4 12.936-4 6.466 0 6.466 4 12.931 4 6.468 0 6.468-4 12.935-4 6.47 0 6.47 4 12.94 4 6.467 0 6.467-4 12.935-4 6.472 0 6.472 4 12.944 4s6.472-4 12.944-4M310.5 29.708c6.468 0 6.468 4 12.935 4 6.468 0 6.468-4 12.936-4 6.466 0 6.466 4 12.931 4 6.468 0 6.468-4 12.935-4 6.47 0 6.47 4 12.94 4 6.467 0 6.467-4 12.935-4 6.472 0 6.472 4 12.944 4s6.472-4 12.944-4M310.5 34.576c6.468 0 6.468 4 12.935 4 6.468 0 6.468-4 12.936-4 6.466 0 6.466 4 12.931 4 6.468 0 6.468-4 12.935-4 6.47 0 6.47 4 12.94 4 6.467 0 6.467-4 12.935-4 6.472 0 6.472 4 12.944 4s6.472-4 12.944-4M310.5 39.443c6.468 0 6.468 4 12.935 4 6.468 0 6.468-4 12.936-4 6.466 0 6.466 4 12.931 4 6.468 0 6.468-4 12.935-4 6.47 0 6.47 4 12.94 4 6.467 0 6.467-4 12.935-4 6.472 0 6.472 4 12.944 4s6.472-4 12.944-4M310.5 44.312c6.468 0 6.468 4 12.935 4 6.468 0 6.468-4 12.936-4 6.466 0 6.466 4 12.931 4 6.468 0 6.468-4 12.935-4 6.47 0 6.47 4 12.94 4 6.467 0 6.467-4 12.935-4 6.472 0 6.472 4 12.944 4s6.472-4 12.944-4M414 .5c6.468 0 6.468 4 12.935 4 6.468 0 6.468-4 12.936-4 6.466 0 6.466 4 12.931 4 6.468 0 6.468-4 12.935-4 6.47 0 6.47 4 12.94 4 6.467 0 6.467-4 12.935-4 6.472 0 6.472 4 12.944 4s6.472-4 12.944-4M414 5.367c6.468 0 6.468 4 12.935 4 6.468 0 6.468-4 12.936-4 6.466 0 6.466 4 12.931 4 6.468 0 6.468-4 12.935-4 6.47 0 6.47 4 12.94 4 6.467 0 6.467-4 12.935-4 6.472 0 6.472 4 12.944 4s6.472-4 12.944-4M414 10.235c6.468 0 6.468 4 12.935 4 6.468 0 6.468-4 12.936-4 6.466 0 6.466 4 12.931 4 6.468 0 6.468-4 12.935-4 6.47 0 6.47 4 12.94 4 6.467 0 6.467-4 12.935-4 6.472 0 6.472 4 12.944 4s6.472-4 12.944-4M414 15.104c6.468 0 6.468 4 12.935 4 6.468 0 6.468-4 12.936-4 6.466 0 6.466 4 12.931 4 6.468 0 6.468-4 12.935-4 6.47 0 6.47 4 12.94 4 6.467 0 6.467-4 12.935-4 6.472 0 6.472 4 12.944 4s6.472-4 12.944-4M414 19.972c6.468 0 6.468 4 12.935 4 6.468 0 6.468-4 12.936-4 6.466 0 6.466 4 12.931 4 6.468 0 6.468-4 12.935-4 6.47 0 6.47 4 12.94 4 6.467 0 6.467-4 12.935-4 6.472 0 6.472 4 12.944 4s6.472-4 12.944-4M414 24.84c6.468 0 6.468 4 12.935 4 6.468 0 6.468-4 12.936-4 6.466 0 6.466 4 12.931 4 6.468 0 6.468-4 12.935-4 6.47 0 6.47 4 12.94 4 6.467 0 6.467-4 12.935-4 6.472 0 6.472 4 12.944 4s6.472-4 12.944-4M414 29.708c6.468 0 6.468 4 12.935 4 6.468 0 6.468-4 12.936-4 6.466 0 6.466 4 12.931 4 6.468 0 6.468-4 12.935-4 6.47 0 6.47 4 12.94 4 6.467 0 6.467-4 12.935-4 6.472 0 6.472 4 12.944 4s6.472-4 12.944-4M414 34.576c6.468 0 6.468 4 12.935 4 6.468 0 6.468-4 12.936-4 6.466 0 6.466 4 12.931 4 6.468 0 6.468-4 12.935-4 6.47 0 6.47 4 12.94 4 6.467 0 6.467-4 12.935-4 6.472 0 6.472 4 12.944 4s6.472-4 12.944-4M414 39.443c6.468 0 6.468 4 12.935 4 6.468 0 6.468-4 12.936-4 6.466 0 6.466 4 12.931 4 6.468 0 6.468-4 12.935-4 6.47 0 6.47 4 12.94 4 6.467 0 6.467-4 12.935-4 6.472 0 6.472 4 12.944 4s6.472-4 12.944-4M414 44.312c6.468 0 6.468 4 12.935 4 6.468 0 6.468-4 12.936-4 6.466 0 6.466 4 12.931 4 6.468 0 6.468-4 12.935-4 6.47 0 6.47 4 12.94 4 6.467 0 6.467-4 12.935-4 6.472 0 6.472 4 12.944 4s6.472-4 12.944-4M517.5.5c6.468 0 6.468 4 12.935 4 6.468 0 6.468-4 12.937-4 6.466 0 6.466 4 12.931 4 6.468 0 6.468-4 12.936-4 6.47 0 6.47 4 12.939 4 6.467 0 6.467-4 12.936-4 6.472 0 6.472 4 12.943 4s6.472-4 12.944-4M517.5 5.367c6.468 0 6.468 4 12.935 4 6.468 0 6.468-4 12.937-4 6.466 0 6.466 4 12.931 4 6.468 0 6.468-4 12.936-4 6.47 0 6.47 4 12.939 4 6.467 0 6.467-4 12.936-4 6.472 0 6.472 4 12.943 4s6.472-4 12.944-4M517.5 10.235c6.468 0 6.468 4 12.935 4 6.468 0 6.468-4 12.937-4 6.466 0 6.466 4 12.931 4 6.468 0 6.468-4 12.936-4 6.47 0 6.47 4 12.939 4 6.467 0 6.467-4 12.936-4 6.472 0 6.472 4 12.943 4s6.472-4 12.944-4M517.5 15.104c6.468 0 6.468 4 12.935 4 6.468 0 6.468-4 12.937-4 6.466 0 6.466 4 12.931 4 6.468 0 6.468-4 12.936-4 6.47 0 6.47 4 12.939 4 6.467 0 6.467-4 12.936-4 6.472 0 6.472 4 12.943 4s6.472-4 12.944-4M517.5 19.972c6.468 0 6.468 4 12.935 4 6.468 0 6.468-4 12.937-4 6.466 0 6.466 4 12.931 4 6.468 0 6.468-4 12.936-4 6.47 0 6.47 4 12.939 4 6.467 0 6.467-4 12.936-4 6.472 0 6.472 4 12.943 4s6.472-4 12.944-4M517.5 24.84c6.468 0 6.468 4 12.935 4 6.468 0 6.468-4 12.937-4 6.466 0 6.466 4 12.931 4 6.468 0 6.468-4 12.936-4 6.47 0 6.47 4 12.939 4 6.467 0 6.467-4 12.936-4 6.472 0 6.472 4 12.943 4s6.472-4 12.944-4M517.5 29.708c6.468 0 6.468 4 12.935 4 6.468 0 6.468-4 12.937-4 6.466 0 6.466 4 12.931 4 6.468 0 6.468-4 12.936-4 6.47 0 6.47 4 12.939 4 6.467 0 6.467-4 12.936-4 6.472 0 6.472 4 12.943 4s6.472-4 12.944-4M517.5 34.576c6.468 0 6.468 4 12.935 4 6.468 0 6.468-4 12.937-4 6.466 0 6.466 4 12.931 4 6.468 0 6.468-4 12.936-4 6.47 0 6.47 4 12.939 4 6.467 0 6.467-4 12.936-4 6.472 0 6.472 4 12.943 4s6.472-4 12.944-4M517.5 39.443c6.468 0 6.468 4 12.935 4 6.468 0 6.468-4 12.937-4 6.466 0 6.466 4 12.931 4 6.468 0 6.468-4 12.936-4 6.47 0 6.47 4 12.939 4 6.467 0 6.467-4 12.936-4 6.472 0 6.472 4 12.943 4s6.472-4 12.944-4M517.5 44.312c6.468 0 6.468 4 12.935 4 6.468 0 6.468-4 12.937-4 6.466 0 6.466 4 12.931 4 6.468 0 6.468-4 12.936-4 6.47 0 6.47 4 12.939 4 6.467 0 6.467-4 12.936-4 6.472 0 6.472 4 12.943 4s6.472-4 12.944-4"/><path fill="none" stroke="#EFEFEF" stroke-miterlimit="10" d="M621 .5c6.468 0 6.468 4 12.935 4 6.468 0 6.468-4 12.937-4 6.466 0 6.466 4 12.931 4 6.468 0 6.468-4 12.936-4 6.47 0 6.47 4 12.939 4 6.467 0 6.467-4 12.936-4 6.472 0 6.472 4 12.943 4s6.472-4 12.944-4M621 5.367c6.468 0 6.468 4 12.935 4 6.468 0 6.468-4 12.937-4 6.466 0 6.466 4 12.931 4 6.468 0 6.468-4 12.936-4 6.47 0 6.47 4 12.939 4 6.467 0 6.467-4 12.936-4 6.472 0 6.472 4 12.943 4s6.472-4 12.944-4M621 10.235c6.468 0 6.468 4 12.935 4 6.468 0 6.468-4 12.937-4 6.466 0 6.466 4 12.931 4 6.468 0 6.468-4 12.936-4 6.47 0 6.47 4 12.939 4 6.467 0 6.467-4 12.936-4 6.472 0 6.472 4 12.943 4s6.472-4 12.944-4M621 15.104c6.468 0 6.468 4 12.935 4 6.468 0 6.468-4 12.937-4 6.466 0 6.466 4 12.931 4 6.468 0 6.468-4 12.936-4 6.47 0 6.47 4 12.939 4 6.467 0 6.467-4 12.936-4 6.472 0 6.472 4 12.943 4s6.472-4 12.944-4M621 19.972c6.468 0 6.468 4 12.935 4 6.468 0 6.468-4 12.937-4 6.466 0 6.466 4 12.931 4 6.468 0 6.468-4 12.936-4 6.47 0 6.47 4 12.939 4 6.467 0 6.467-4 12.936-4 6.472 0 6.472 4 12.943 4s6.472-4 12.944-4M621 24.84c6.468 0 6.468 4 12.935 4 6.468 0 6.468-4 12.937-4 6.466 0 6.466 4 12.931 4 6.468 0 6.468-4 12.936-4 6.47 0 6.47 4 12.939 4 6.467 0 6.467-4 12.936-4 6.472 0 6.472 4 12.943 4s6.472-4 12.944-4M621 29.708c6.468 0 6.468 4 12.935 4 6.468 0 6.468-4 12.937-4 6.466 0 6.466 4 12.931 4 6.468 0 6.468-4 12.936-4 6.47 0 6.47 4 12.939 4 6.467 0 6.467-4 12.936-4 6.472 0 6.472 4 12.943 4s6.472-4 12.944-4M621 34.576c6.468 0 6.468 4 12.935 4 6.468 0 6.468-4 12.937-4 6.466 0 6.466 4 12.931 4 6.468 0 6.468-4 12.936-4 6.47 0 6.47 4 12.939 4 6.467 0 6.467-4 12.936-4 6.472 0 6.472 4 12.943 4s6.472-4 12.944-4M621 39.443c6.468 0 6.468 4 12.935 4 6.468 0 6.468-4 12.937-4 6.466 0 6.466 4 12.931 4 6.468 0 6.468-4 12.936-4 6.47 0 6.47 4 12.939 4 6.467 0 6.467-4 12.936-4 6.472 0 6.472 4 12.943 4s6.472-4 12.944-4M621 44.312c6.468 0 6.468 4 12.935 4 6.468 0 6.468-4 12.937-4 6.466 0 6.466 4 12.931 4 6.468 0 6.468-4 12.936-4 6.47 0 6.47 4 12.939 4 6.467 0 6.467-4 12.936-4 6.472 0 6.472 4 12.943 4s6.472-4 12.944-4"/><path fill="none" stroke="#EFEFEF" stroke-miterlimit="10" d="M724.5.5c6.468 0 6.468 4 12.935 4 6.468 0 6.468-4 12.937-4 6.466 0 6.466 4 12.931 4 6.468 0 6.468-4 12.936-4 6.47 0 6.47 4 12.939 4 6.467 0 6.467-4 12.936-4 6.472 0 6.472 4 12.943 4s6.472-4 12.944-4M724.5 5.367c6.468 0 6.468 4 12.935 4 6.468 0 6.468-4 12.937-4 6.466 0 6.466 4 12.931 4 6.468 0 6.468-4 12.936-4 6.47 0 6.47 4 12.939 4 6.467 0 6.467-4 12.936-4 6.472 0 6.472 4 12.943 4s6.472-4 12.944-4M724.5 10.235c6.468 0 6.468 4 12.935 4 6.468 0 6.468-4 12.937-4 6.466 0 6.466 4 12.931 4 6.468 0 6.468-4 12.936-4 6.47 0 6.47 4 12.939 4 6.467 0 6.467-4 12.936-4 6.472 0 6.472 4 12.943 4s6.472-4 12.944-4M724.5 15.104c6.468 0 6.468 4 12.935 4 6.468 0 6.468-4 12.937-4 6.466 0 6.466 4 12.931 4 6.468 0 6.468-4 12.936-4 6.47 0 6.47 4 12.939 4 6.467 0 6.467-4 12.936-4 6.472 0 6.472 4 12.943 4s6.472-4 12.944-4M724.5 19.972c6.468 0 6.468 4 12.935 4 6.468 0 6.468-4 12.937-4 6.466 0 6.466 4 12.931 4 6.468 0 6.468-4 12.936-4 6.47 0 6.47 4 12.939 4 6.467 0 6.467-4 12.936-4 6.472 0 6.472 4 12.943 4s6.472-4 12.944-4M724.5 24.84c6.468 0 6.468 4 12.935 4 6.468 0 6.468-4 12.937-4 6.466 0 6.466 4 12.931 4 6.468 0 6.468-4 12.936-4 6.47 0 6.47 4 12.939 4 6.467 0 6.467-4 12.936-4 6.472 0 6.472 4 12.943 4s6.472-4 12.944-4M724.5 29.708c6.468 0 6.468 4 12.935 4 6.468 0 6.468-4 12.937-4 6.466 0 6.466 4 12.931 4 6.468 0 6.468-4 12.936-4 6.47 0 6.47 4 12.939 4 6.467 0 6.467-4 12.936-4 6.472 0 6.472 4 12.943 4s6.472-4 12.944-4M724.5 34.576c6.468 0 6.468 4 12.935 4 6.468 0 6.468-4 12.937-4 6.466 0 6.466 4 12.931 4 6.468 0 6.468-4 12.936-4 6.47 0 6.47 4 12.939 4 6.467 0 6.467-4 12.936-4 6.472 0 6.472 4 12.943 4s6.472-4 12.944-4M724.5 39.443c6.468 0 6.468 4 12.935 4 6.468 0 6.468-4 12.937-4 6.466 0 6.466 4 12.931 4 6.468 0 6.468-4 12.936-4 6.47 0 6.47 4 12.939 4 6.467 0 6.467-4 12.936-4 6.472 0 6.472 4 12.943 4s6.472-4 12.944-4M724.5 44.312c6.468 0 6.468 4 12.935 4 6.468 0 6.468-4 12.937-4 6.466 0 6.466 4 12.931 4 6.468 0 6.468-4 12.936-4 6.47 0 6.47 4 12.939 4 6.467 0 6.467-4 12.936-4 6.472 0 6.472 4 12.943 4s6.472-4 12.944-4"/><path fill="none" stroke="#EFEFEF" stroke-miterlimit="10" d="M828 .5c6.468 0 6.468 4 12.935 4 6.468 0 6.468-4 12.937-4 6.466 0 6.466 4 12.931 4 6.468 0 6.468-4 12.936-4 6.47 0 6.47 4 12.939 4 6.467 0 6.467-4 12.935-4 6.473 0 6.473 4 12.944 4s6.472-4 12.944-4M828 5.367c6.468 0 6.468 4 12.935 4 6.468 0 6.468-4 12.937-4 6.466 0 6.466 4 12.931 4 6.468 0 6.468-4 12.936-4 6.47 0 6.47 4 12.939 4 6.467 0 6.467-4 12.935-4 6.473 0 6.473 4 12.944 4s6.472-4 12.944-4M828 10.235c6.468 0 6.468 4 12.935 4 6.468 0 6.468-4 12.937-4 6.466 0 6.466 4 12.931 4 6.468 0 6.468-4 12.936-4 6.47 0 6.47 4 12.939 4 6.467 0 6.467-4 12.935-4 6.473 0 6.473 4 12.944 4s6.472-4 12.944-4M828 15.104c6.468 0 6.468 4 12.935 4 6.468 0 6.468-4 12.937-4 6.466 0 6.466 4 12.931 4 6.468 0 6.468-4 12.936-4 6.47 0 6.47 4 12.939 4 6.467 0 6.467-4 12.935-4 6.473 0 6.473 4 12.944 4s6.472-4 12.944-4M828 19.972c6.468 0 6.468 4 12.935 4 6.468 0 6.468-4 12.937-4 6.466 0 6.466 4 12.931 4 6.468 0 6.468-4 12.936-4 6.47 0 6.47 4 12.939 4 6.467 0 6.467-4 12.935-4 6.473 0 6.473 4 12.944 4s6.472-4 12.944-4M828 24.84c6.468 0 6.468 4 12.935 4 6.468 0 6.468-4 12.937-4 6.466 0 6.466 4 12.931 4 6.468 0 6.468-4 12.936-4 6.47 0 6.47 4 12.939 4 6.467 0 6.467-4 12.935-4 6.473 0 6.473 4 12.944 4s6.472-4 12.944-4M828 29.708c6.468 0 6.468 4 12.935 4 6.468 0 6.468-4 12.937-4 6.466 0 6.466 4 12.931 4 6.468 0 6.468-4 12.936-4 6.47 0 6.47 4 12.939 4 6.467 0 6.467-4 12.935-4 6.473 0 6.473 4 12.944 4s6.472-4 12.944-4M828 34.576c6.468 0 6.468 4 12.935 4 6.468 0 6.468-4 12.937-4 6.466 0 6.466 4 12.931 4 6.468 0 6.468-4 12.936-4 6.47 0 6.47 4 12.939 4 6.467 0 6.467-4 12.935-4 6.473 0 6.473 4 12.944 4s6.472-4 12.944-4M828 39.443c6.468 0 6.468 4 12.935 4 6.468 0 6.468-4 12.937-4 6.466 0 6.466 4 12.931 4 6.468 0 6.468-4 12.936-4 6.47 0 6.47 4 12.939 4 6.467 0 6.467-4 12.935-4 6.473 0 6.473 4 12.944 4s6.472-4 12.944-4M828 44.312c6.468 0 6.468 4 12.935 4 6.468 0 6.468-4 12.937-4 6.466 0 6.466 4 12.931 4 6.468 0 6.468-4 12.936-4 6.47 0 6.47 4 12.939 4 6.467 0 6.467-4 12.935-4 6.473 0 6.473 4 12.944 4s6.472-4 12.944-4"/><path fill="none" stroke="#EFEFEF" stroke-miterlimit="10" d="M931.5.5c6.468 0 6.468 4 12.935 4 6.468 0 6.468-4 12.937-4 6.466 0 6.466 4 12.931 4 6.468 0 6.468-4 12.935-4 6.471 0 6.471 4 12.94 4 6.467 0 6.467-4 12.935-4 6.473 0 6.473 4 12.944 4s6.472-4 12.944-4M931.5 5.367c6.468 0 6.468 4 12.935 4 6.468 0 6.468-4 12.937-4 6.466 0 6.466 4 12.931 4 6.468 0 6.468-4 12.935-4 6.471 0 6.471 4 12.94 4 6.467 0 6.467-4 12.935-4 6.473 0 6.473 4 12.944 4s6.472-4 12.944-4M931.5 10.235c6.468 0 6.468 4 12.935 4 6.468 0 6.468-4 12.937-4 6.466 0 6.466 4 12.931 4 6.468 0 6.468-4 12.935-4 6.471 0 6.471 4 12.94 4 6.467 0 6.467-4 12.935-4 6.473 0 6.473 4 12.944 4s6.472-4 12.944-4M931.5 15.104c6.468 0 6.468 4 12.935 4 6.468 0 6.468-4 12.937-4 6.466 0 6.466 4 12.931 4 6.468 0 6.468-4 12.935-4 6.471 0 6.471 4 12.94 4 6.467 0 6.467-4 12.935-4 6.473 0 6.473 4 12.944 4s6.472-4 12.944-4M931.5 19.972c6.468 0 6.468 4 12.935 4 6.468 0 6.468-4 12.937-4 6.466 0 6.466 4 12.931 4 6.468 0 6.468-4 12.935-4 6.471 0 6.471 4 12.94 4 6.467 0 6.467-4 12.935-4 6.473 0 6.473 4 12.944 4s6.472-4 12.944-4M931.5 24.84c6.468 0 6.468 4 12.935 4 6.468 0 6.468-4 12.937-4 6.466 0 6.466 4 12.931 4 6.468 0 6.468-4 12.935-4 6.471 0 6.471 4 12.94 4 6.467 0 6.467-4 12.935-4 6.473 0 6.473 4 12.944 4s6.472-4 12.944-4M931.5 29.708c6.468 0 6.468 4 12.935 4 6.468 0 6.468-4 12.937-4 6.466 0 6.466 4 12.931 4 6.468 0 6.468-4 12.935-4 6.471 0 6.471 4 12.94 4 6.467 0 6.467-4 12.935-4 6.473 0 6.473 4 12.944 4s6.472-4 12.944-4M931.5 34.576c6.468 0 6.468 4 12.935 4 6.468 0 6.468-4 12.937-4 6.466 0 6.466 4 12.931 4 6.468 0 6.468-4 12.935-4 6.471 0 6.471 4 12.94 4 6.467 0 6.467-4 12.935-4 6.473 0 6.473 4 12.944 4s6.472-4 12.944-4M931.5 39.443c6.468 0 6.468 4 12.935 4 6.468 0 6.468-4 12.937-4 6.466 0 6.466 4 12.931 4 6.468 0 6.468-4 12.935-4 6.471 0 6.471 4 12.94 4 6.467 0 6.467-4 12.935-4 6.473 0 6.473 4 12.944 4s6.472-4 12.944-4M931.5 44.312c6.468 0 6.468 4 12.935 4 6.468 0 6.468-4 12.937-4 6.466 0 6.466 4 12.931 4 6.468 0 6.468-4 12.935-4 6.471 0 6.471 4 12.94 4 6.467 0 6.467-4 12.935-4 6.473 0 6.473 4 12.944 4s6.472-4 12.944-4"/><path fill="none" stroke="#EFEFEF" stroke-miterlimit="10" d="M1034.5.5c6.468 0 6.468 4 12.936 4 6.467 0 6.467-4 12.936-4 6.466 0 6.466 4 12.931 4 6.468 0 6.468-4 12.935-4 6.471 0 6.471 4 12.94 4 6.468 0 6.468-4 12.935-4 6.473 0 6.473 4 12.945 4 6.471 0 6.471-4 12.943-4M1034.5 5.367c6.468 0 6.468 4 12.936 4 6.467 0 6.467-4 12.936-4 6.466 0 6.466 4 12.931 4 6.468 0 6.468-4 12.935-4 6.471 0 6.471 4 12.94 4 6.468 0 6.468-4 12.935-4 6.473 0 6.473 4 12.945 4 6.471 0 6.471-4 12.943-4M1034.5 10.235c6.468 0 6.468 4 12.936 4 6.467 0 6.467-4 12.936-4 6.466 0 6.466 4 12.931 4 6.468 0 6.468-4 12.935-4 6.471 0 6.471 4 12.94 4 6.468 0 6.468-4 12.935-4 6.473 0 6.473 4 12.945 4 6.471 0 6.471-4 12.943-4M1034.5 15.104c6.468 0 6.468 4 12.936 4 6.467 0 6.467-4 12.936-4 6.466 0 6.466 4 12.931 4 6.468 0 6.468-4 12.935-4 6.471 0 6.471 4 12.94 4 6.468 0 6.468-4 12.935-4 6.473 0 6.473 4 12.945 4 6.471 0 6.471-4 12.943-4M1034.5 19.972c6.468 0 6.468 4 12.936 4 6.467 0 6.467-4 12.936-4 6.466 0 6.466 4 12.931 4 6.468 0 6.468-4 12.935-4 6.471 0 6.471 4 12.94 4 6.468 0 6.468-4 12.935-4 6.473 0 6.473 4 12.945 4 6.471 0 6.471-4 12.943-4M1034.5 24.84c6.468 0 6.468 4 12.936 4 6.467 0 6.467-4 12.936-4 6.466 0 6.466 4 12.931 4 6.468 0 6.468-4 12.935-4 6.471 0 6.471 4 12.94 4 6.468 0 6.468-4 12.935-4 6.473 0 6.473 4 12.945 4 6.471 0 6.471-4 12.943-4M1034.5 29.708c6.468 0 6.468 4 12.936 4 6.467 0 6.467-4 12.936-4 6.466 0 6.466 4 12.931 4 6.468 0 6.468-4 12.935-4 6.471 0 6.471 4 12.94 4 6.468 0 6.468-4 12.935-4 6.473 0 6.473 4 12.945 4 6.471 0 6.471-4 12.943-4M1034.5 34.576c6.468 0 6.468 4 12.936 4 6.467 0 6.467-4 12.936-4 6.466 0 6.466 4 12.931 4 6.468 0 6.468-4 12.935-4 6.471 0 6.471 4 12.94 4 6.468 0 6.468-4 12.935-4 6.473 0 6.473 4 12.945 4 6.471 0 6.471-4 12.943-4M1034.5 39.443c6.468 0 6.468 4 12.936 4 6.467 0 6.467-4 12.936-4 6.466 0 6.466 4 12.931 4 6.468 0 6.468-4 12.935-4 6.471 0 6.471 4 12.94 4 6.468 0 6.468-4 12.935-4 6.473 0 6.473 4 12.945 4 6.471 0 6.471-4 12.943-4M1034.5 44.312c6.468 0 6.468 4 12.936 4 6.467 0 6.467-4 12.936-4 6.466 0 6.466 4 12.931 4 6.468 0 6.468-4 12.935-4 6.471 0 6.471 4 12.94 4 6.468 0 6.468-4 12.935-4 6.473 0 6.473 4 12.945 4 6.471 0 6.471-4 12.943-4"/><path fill="none" stroke="#EFEFEF" stroke-miterlimit="10" d="M1138 .5c6.468 0 6.468 4 12.936 4 6.467 0 6.467-4 12.936-4 6.466 0 6.466 4 12.931 4 6.468 0 6.468-4 12.935-4 6.471 0 6.471 4 12.939 4s6.469-4 12.936-4c6.473 0 6.473 4 12.945 4 6.471 0 6.471-4 12.943-4M1138 5.367c6.468 0 6.468 4 12.936 4 6.467 0 6.467-4 12.936-4 6.466 0 6.466 4 12.931 4 6.468 0 6.468-4 12.935-4 6.471 0 6.471 4 12.939 4s6.469-4 12.936-4c6.473 0 6.473 4 12.945 4 6.471 0 6.471-4 12.943-4M1138 10.235c6.468 0 6.468 4 12.936 4 6.467 0 6.467-4 12.936-4 6.466 0 6.466 4 12.931 4 6.468 0 6.468-4 12.935-4 6.471 0 6.471 4 12.939 4s6.469-4 12.936-4c6.473 0 6.473 4 12.945 4 6.471 0 6.471-4 12.943-4M1138 15.104c6.468 0 6.468 4 12.936 4 6.467 0 6.467-4 12.936-4 6.466 0 6.466 4 12.931 4 6.468 0 6.468-4 12.935-4 6.471 0 6.471 4 12.939 4s6.469-4 12.936-4c6.473 0 6.473 4 12.945 4 6.471 0 6.471-4 12.943-4M1138 19.972c6.468 0 6.468 4 12.936 4 6.467 0 6.467-4 12.936-4 6.466 0 6.466 4 12.931 4 6.468 0 6.468-4 12.935-4 6.471 0 6.471 4 12.939 4s6.469-4 12.936-4c6.473 0 6.473 4 12.945 4 6.471 0 6.471-4 12.943-4M1138 24.84c6.468 0 6.468 4 12.936 4 6.467 0 6.467-4 12.936-4 6.466 0 6.466 4 12.931 4 6.468 0 6.468-4 12.935-4 6.471 0 6.471 4 12.939 4s6.469-4 12.936-4c6.473 0 6.473 4 12.945 4 6.471 0 6.471-4 12.943-4M1138 29.708c6.468 0 6.468 4 12.936 4 6.467 0 6.467-4 12.936-4 6.466 0 6.466 4 12.931 4 6.468 0 6.468-4 12.935-4 6.471 0 6.471 4 12.939 4s6.469-4 12.936-4c6.473 0 6.473 4 12.945 4 6.471 0 6.471-4 12.943-4M1138 34.576c6.468 0 6.468 4 12.936 4 6.467 0 6.467-4 12.936-4 6.466 0 6.466 4 12.931 4 6.468 0 6.468-4 12.935-4 6.471 0 6.471 4 12.939 4s6.469-4 12.936-4c6.473 0 6.473 4 12.945 4 6.471 0 6.471-4 12.943-4M1138 39.443c6.468 0 6.468 4 12.936 4 6.467 0 6.467-4 12.936-4 6.466 0 6.466 4 12.931 4 6.468 0 6.468-4 12.935-4 6.471 0 6.471 4 12.939 4s6.469-4 12.936-4c6.473 0 6.473 4 12.945 4 6.471 0 6.471-4 12.943-4M1138 44.312c6.468 0 6.468 4 12.936 4 6.467 0 6.467-4 12.936-4 6.466 0 6.466 4 12.931 4 6.468 0 6.468-4 12.935-4 6.471 0 6.471 4 12.939 4s6.469-4 12.936-4c6.473 0 6.473 4 12.945 4 6.471 0 6.471-4 12.943-4"/><path fill="none" stroke="#EFEFEF" stroke-miterlimit="10" d="M1241.5.5c6.468 0 6.468 4 12.936 4 6.467 0 6.467-4 12.936-4 6.466 0 6.466 4 12.931 4 6.468 0 6.468-4 12.935-4 6.471 0 6.471 4 12.94 4 6.468 0 6.468-4 12.935-4 6.473 0 6.473 4 12.944 4s6.472-4 12.944-4M1241.5 5.367c6.468 0 6.468 4 12.936 4 6.467 0 6.467-4 12.936-4 6.466 0 6.466 4 12.931 4 6.468 0 6.468-4 12.935-4 6.471 0 6.471 4 12.94 4 6.468 0 6.468-4 12.935-4 6.473 0 6.473 4 12.944 4s6.472-4 12.944-4M1241.5 10.235c6.468 0 6.468 4 12.936 4 6.467 0 6.467-4 12.936-4 6.466 0 6.466 4 12.931 4 6.468 0 6.468-4 12.935-4 6.471 0 6.471 4 12.94 4 6.468 0 6.468-4 12.935-4 6.473 0 6.473 4 12.944 4s6.472-4 12.944-4M1241.5 15.104c6.468 0 6.468 4 12.936 4 6.467 0 6.467-4 12.936-4 6.466 0 6.466 4 12.931 4 6.468 0 6.468-4 12.935-4 6.471 0 6.471 4 12.94 4 6.468 0 6.468-4 12.935-4 6.473 0 6.473 4 12.944 4s6.472-4 12.944-4M1241.5 19.972c6.468 0 6.468 4 12.936 4 6.467 0 6.467-4 12.936-4 6.466 0 6.466 4 12.931 4 6.468 0 6.468-4 12.935-4 6.471 0 6.471 4 12.94 4 6.468 0 6.468-4 12.935-4 6.473 0 6.473 4 12.944 4s6.472-4 12.944-4M1241.5 24.84c6.468 0 6.468 4 12.936 4 6.467 0 6.467-4 12.936-4 6.466 0 6.466 4 12.931 4 6.468 0 6.468-4 12.935-4 6.471 0 6.471 4 12.94 4 6.468 0 6.468-4 12.935-4 6.473 0 6.473 4 12.944 4s6.472-4 12.944-4M1241.5 29.708c6.468 0 6.468 4 12.936 4 6.467 0 6.467-4 12.936-4 6.466 0 6.466 4 12.931 4 6.468 0 6.468-4 12.935-4 6.471 0 6.471 4 12.94 4 6.468 0 6.468-4 12.935-4 6.473 0 6.473 4 12.944 4s6.472-4 12.944-4M1241.5 34.576c6.468 0 6.468 4 12.936 4 6.467 0 6.467-4 12.936-4 6.466 0 6.466 4 12.931 4 6.468 0 6.468-4 12.935-4 6.471 0 6.471 4 12.94 4 6.468 0 6.468-4 12.935-4 6.473 0 6.473 4 12.944 4s6.472-4 12.944-4M1241.5 39.443c6.468 0 6.468 4 12.936 4 6.467 0 6.467-4 12.936-4 6.466 0 6.466 4 12.931 4 6.468 0 6.468-4 12.935-4 6.471 0 6.471 4 12.94 4 6.468 0 6.468-4 12.935-4 6.473 0 6.473 4 12.944 4s6.472-4 12.944-4M1241.5 44.312c6.468 0 6.468 4 12.936 4 6.467 0 6.467-4 12.936-4 6.466 0 6.466 4 12.931 4 6.468 0 6.468-4 12.935-4 6.471 0 6.471 4 12.94 4 6.468 0 6.468-4 12.935-4 6.473 0 6.473 4 12.944 4s6.472-4 12.944-4"/><path fill="none" stroke="#EFEFEF" stroke-miterlimit="10" d="M1345 .5c6.468 0 6.468 4 12.936 4 6.467 0 6.467-4 12.936-4 6.466 0 6.466 4 12.931 4 6.468 0 6.468-4 12.935-4 6.471 0 6.471 4 12.94 4 6.468 0 6.468-4 12.935-4 6.473 0 6.473 4 12.944 4s6.472-4 12.944-4M1345 5.367c6.468 0 6.468 4 12.936 4 6.467 0 6.467-4 12.936-4 6.466 0 6.466 4 12.931 4 6.468 0 6.468-4 12.935-4 6.471 0 6.471 4 12.94 4 6.468 0 6.468-4 12.935-4 6.473 0 6.473 4 12.944 4s6.472-4 12.944-4M1345 10.235c6.468 0 6.468 4 12.936 4 6.467 0 6.467-4 12.936-4 6.466 0 6.466 4 12.931 4 6.468 0 6.468-4 12.935-4 6.471 0 6.471 4 12.94 4 6.468 0 6.468-4 12.935-4 6.473 0 6.473 4 12.944 4s6.472-4 12.944-4M1345 15.104c6.468 0 6.468 4 12.936 4 6.467 0 6.467-4 12.936-4 6.466 0 6.466 4 12.931 4 6.468 0 6.468-4 12.935-4 6.471 0 6.471 4 12.94 4 6.468 0 6.468-4 12.935-4 6.473 0 6.473 4 12.944 4s6.472-4 12.944-4M1345 19.972c6.468 0 6.468 4 12.936 4 6.467 0 6.467-4 12.936-4 6.466 0 6.466 4 12.931 4 6.468 0 6.468-4 12.935-4 6.471 0 6.471 4 12.94 4 6.468 0 6.468-4 12.935-4 6.473 0 6.473 4 12.944 4s6.472-4 12.944-4M1345 24.84c6.468 0 6.468 4 12.936 4 6.467 0 6.467-4 12.936-4 6.466 0 6.466 4 12.931 4 6.468 0 6.468-4 12.935-4 6.471 0 6.471 4 12.94 4 6.468 0 6.468-4 12.935-4 6.473 0 6.473 4 12.944 4s6.472-4 12.944-4M1345 29.708c6.468 0 6.468 4 12.936 4 6.467 0 6.467-4 12.936-4 6.466 0 6.466 4 12.931 4 6.468 0 6.468-4 12.935-4 6.471 0 6.471 4 12.94 4 6.468 0 6.468-4 12.935-4 6.473 0 6.473 4 12.944 4s6.472-4 12.944-4M1345 34.576c6.468 0 6.468 4 12.936 4 6.467 0 6.467-4 12.936-4 6.466 0 6.466 4 12.931 4 6.468 0 6.468-4 12.935-4 6.471 0 6.471 4 12.94 4 6.468 0 6.468-4 12.935-4 6.473 0 6.473 4 12.944 4s6.472-4 12.944-4M1345 39.443c6.468 0 6.468 4 12.936 4 6.467 0 6.467-4 12.936-4 6.466 0 6.466 4 12.931 4 6.468 0 6.468-4 12.935-4 6.471 0 6.471 4 12.94 4 6.468 0 6.468-4 12.935-4 6.473 0 6.473 4 12.944 4s6.472-4 12.944-4M1345 44.312c6.468 0 6.468 4 12.936 4 6.467 0 6.467-4 12.936-4 6.466 0 6.466 4 12.931 4 6.468 0 6.468-4 12.935-4 6.471 0 6.471 4 12.94 4 6.468 0 6.468-4 12.935-4 6.473 0 6.473 4 12.944 4s6.472-4 12.944-4"/><path fill="none" stroke="#EFEFEF" stroke-miterlimit="10" d="M1448.5.5c6.468 0 6.468 4 12.936 4 6.467 0 6.467-4 12.936-4 6.466 0 6.466 4 12.931 4 6.468 0 6.468-4 12.935-4 6.471 0 6.471 4 12.94 4 6.468 0 6.468-4 12.935-4 6.473 0 6.473 4 12.944 4s6.472-4 12.944-4M1448.5 5.367c6.468 0 6.468 4 12.936 4 6.467 0 6.467-4 12.936-4 6.466 0 6.466 4 12.931 4 6.468 0 6.468-4 12.935-4 6.471 0 6.471 4 12.94 4 6.468 0 6.468-4 12.935-4 6.473 0 6.473 4 12.944 4s6.472-4 12.944-4M1448.5 10.235c6.468 0 6.468 4 12.936 4 6.467 0 6.467-4 12.936-4 6.466 0 6.466 4 12.931 4 6.468 0 6.468-4 12.935-4 6.471 0 6.471 4 12.94 4 6.468 0 6.468-4 12.935-4 6.473 0 6.473 4 12.944 4s6.472-4 12.944-4M1448.5 15.104c6.468 0 6.468 4 12.936 4 6.467 0 6.467-4 12.936-4 6.466 0 6.466 4 12.931 4 6.468 0 6.468-4 12.935-4 6.471 0 6.471 4 12.94 4 6.468 0 6.468-4 12.935-4 6.473 0 6.473 4 12.944 4s6.472-4 12.944-4M1448.5 19.972c6.468 0 6.468 4 12.936 4 6.467 0 6.467-4 12.936-4 6.466 0 6.466 4 12.931 4 6.468 0 6.468-4 12.935-4 6.471 0 6.471 4 12.94 4 6.468 0 6.468-4 12.935-4 6.473 0 6.473 4 12.944 4s6.472-4 12.944-4M1448.5 24.84c6.468 0 6.468 4 12.936 4 6.467 0 6.467-4 12.936-4 6.466 0 6.466 4 12.931 4 6.468 0 6.468-4 12.935-4 6.471 0 6.471 4 12.94 4 6.468 0 6.468-4 12.935-4 6.473 0 6.473 4 12.944 4s6.472-4 12.944-4M1448.5 29.708c6.468 0 6.468 4 12.936 4 6.467 0 6.467-4 12.936-4 6.466 0 6.466 4 12.931 4 6.468 0 6.468-4 12.935-4 6.471 0 6.471 4 12.94 4 6.468 0 6.468-4 12.935-4 6.473 0 6.473 4 12.944 4s6.472-4 12.944-4M1448.5 34.576c6.468 0 6.468 4 12.936 4 6.467 0 6.467-4 12.936-4 6.466 0 6.466 4 12.931 4 6.468 0 6.468-4 12.935-4 6.471 0 6.471 4 12.94 4 6.468 0 6.468-4 12.935-4 6.473 0 6.473 4 12.944 4s6.472-4 12.944-4M1448.5 39.443c6.468 0 6.468 4 12.936 4 6.467 0 6.467-4 12.936-4 6.466 0 6.466 4 12.931 4 6.468 0 6.468-4 12.935-4 6.471 0 6.471 4 12.94 4 6.468 0 6.468-4 12.935-4 6.473 0 6.473 4 12.944 4s6.472-4 12.944-4M1448.5 44.312c6.468 0 6.468 4 12.936 4 6.467 0 6.467-4 12.936-4 6.466 0 6.466 4 12.931 4 6.468 0 6.468-4 12.935-4 6.471 0 6.471 4 12.94 4 6.468 0 6.468-4 12.935-4 6.473 0 6.473 4 12.944 4s6.472-4 12.944-4"/><path fill="none" stroke="#EFEFEF" stroke-miterlimit="10" d="M1552 .5c6.468 0 6.468 4 12.935 4 6.468 0 6.468-4 12.937-4 6.466 0 6.466 4 12.931 4 6.468 0 6.468-4 12.936-4 6.47 0 6.47 4 12.939 4 6.467 0 6.467-4 12.936-4 6.472 0 6.472 4 12.943 4s6.472-4 12.944-4M1552 5.367c6.468 0 6.468 4 12.935 4 6.468 0 6.468-4 12.937-4 6.466 0 6.466 4 12.931 4 6.468 0 6.468-4 12.936-4 6.47 0 6.47 4 12.939 4 6.467 0 6.467-4 12.936-4 6.472 0 6.472 4 12.943 4s6.472-4 12.944-4M1552 10.235c6.468 0 6.468 4 12.935 4 6.468 0 6.468-4 12.937-4 6.466 0 6.466 4 12.931 4 6.468 0 6.468-4 12.936-4 6.47 0 6.47 4 12.939 4 6.467 0 6.467-4 12.936-4 6.472 0 6.472 4 12.943 4s6.472-4 12.944-4M1552 15.104c6.468 0 6.468 4 12.935 4 6.468 0 6.468-4 12.937-4 6.466 0 6.466 4 12.931 4 6.468 0 6.468-4 12.936-4 6.47 0 6.47 4 12.939 4 6.467 0 6.467-4 12.936-4 6.472 0 6.472 4 12.943 4s6.472-4 12.944-4M1552 19.972c6.468 0 6.468 4 12.935 4 6.468 0 6.468-4 12.937-4 6.466 0 6.466 4 12.931 4 6.468 0 6.468-4 12.936-4 6.47 0 6.47 4 12.939 4 6.467 0 6.467-4 12.936-4 6.472 0 6.472 4 12.943 4s6.472-4 12.944-4M1552 24.84c6.468 0 6.468 4 12.935 4 6.468 0 6.468-4 12.937-4 6.466 0 6.466 4 12.931 4 6.468 0 6.468-4 12.936-4 6.47 0 6.47 4 12.939 4 6.467 0 6.467-4 12.936-4 6.472 0 6.472 4 12.943 4s6.472-4 12.944-4M1552 29.708c6.468 0 6.468 4 12.935 4 6.468 0 6.468-4 12.937-4 6.466 0 6.466 4 12.931 4 6.468 0 6.468-4 12.936-4 6.47 0 6.47 4 12.939 4 6.467 0 6.467-4 12.936-4 6.472 0 6.472 4 12.943 4s6.472-4 12.944-4M1552 34.576c6.468 0 6.468 4 12.935 4 6.468 0 6.468-4 12.937-4 6.466 0 6.466 4 12.931 4 6.468 0 6.468-4 12.936-4 6.47 0 6.47 4 12.939 4 6.467 0 6.467-4 12.936-4 6.472 0 6.472 4 12.943 4s6.472-4 12.944-4M1552 39.443c6.468 0 6.468 4 12.935 4 6.468 0 6.468-4 12.937-4 6.466 0 6.466 4 12.931 4 6.468 0 6.468-4 12.936-4 6.47 0 6.47 4 12.939 4 6.467 0 6.467-4 12.936-4 6.472 0 6.472 4 12.943 4s6.472-4 12.944-4M1552 44.312c6.468 0 6.468 4 12.935 4 6.468 0 6.468-4 12.937-4 6.466 0 6.466 4 12.931 4 6.468 0 6.468-4 12.936-4 6.47 0 6.47 4 12.939 4 6.467 0 6.467-4 12.936-4 6.472 0 6.472 4 12.943 4s6.472-4 12.944-4"/><path fill="none" stroke="#EFEFEF" stroke-miterlimit="10" d="M1655.5.5c6.468 0 6.468 4 12.935 4 6.468 0 6.468-4 12.937-4 6.466 0 6.466 4 12.931 4 6.468 0 6.468-4 12.936-4 6.47 0 6.47 4 12.939 4 6.467 0 6.467-4 12.936-4 6.472 0 6.472 4 12.943 4s6.472-4 12.944-4M1655.5 5.367c6.468 0 6.468 4 12.935 4 6.468 0 6.468-4 12.937-4 6.466 0 6.466 4 12.931 4 6.468 0 6.468-4 12.936-4 6.47 0 6.47 4 12.939 4 6.467 0 6.467-4 12.936-4 6.472 0 6.472 4 12.943 4s6.472-4 12.944-4M1655.5 10.235c6.468 0 6.468 4 12.935 4 6.468 0 6.468-4 12.937-4 6.466 0 6.466 4 12.931 4 6.468 0 6.468-4 12.936-4 6.47 0 6.47 4 12.939 4 6.467 0 6.467-4 12.936-4 6.472 0 6.472 4 12.943 4s6.472-4 12.944-4M1655.5 15.104c6.468 0 6.468 4 12.935 4 6.468 0 6.468-4 12.937-4 6.466 0 6.466 4 12.931 4 6.468 0 6.468-4 12.936-4 6.47 0 6.47 4 12.939 4 6.467 0 6.467-4 12.936-4 6.472 0 6.472 4 12.943 4s6.472-4 12.944-4M1655.5 19.972c6.468 0 6.468 4 12.935 4 6.468 0 6.468-4 12.937-4 6.466 0 6.466 4 12.931 4 6.468 0 6.468-4 12.936-4 6.47 0 6.47 4 12.939 4 6.467 0 6.467-4 12.936-4 6.472 0 6.472 4 12.943 4s6.472-4 12.944-4M1655.5 24.84c6.468 0 6.468 4 12.935 4 6.468 0 6.468-4 12.937-4 6.466 0 6.466 4 12.931 4 6.468 0 6.468-4 12.936-4 6.47 0 6.47 4 12.939 4 6.467 0 6.467-4 12.936-4 6.472 0 6.472 4 12.943 4s6.472-4 12.944-4M1655.5 29.708c6.468 0 6.468 4 12.935 4 6.468 0 6.468-4 12.937-4 6.466 0 6.466 4 12.931 4 6.468 0 6.468-4 12.936-4 6.47 0 6.47 4 12.939 4 6.467 0 6.467-4 12.936-4 6.472 0 6.472 4 12.943 4s6.472-4 12.944-4M1655.5 34.576c6.468 0 6.468 4 12.935 4 6.468 0 6.468-4 12.937-4 6.466 0 6.466 4 12.931 4 6.468 0 6.468-4 12.936-4 6.47 0 6.47 4 12.939 4 6.467 0 6.467-4 12.936-4 6.472 0 6.472 4 12.943 4s6.472-4 12.944-4M1655.5 39.443c6.468 0 6.468 4 12.935 4 6.468 0 6.468-4 12.937-4 6.466 0 6.466 4 12.931 4 6.468 0 6.468-4 12.936-4 6.47 0 6.47 4 12.939 4 6.467 0 6.467-4 12.936-4 6.472 0 6.472 4 12.943 4s6.472-4 12.944-4M1655.5 44.312c6.468 0 6.468 4 12.935 4 6.468 0 6.468-4 12.937-4 6.466 0 6.466 4 12.931 4 6.468 0 6.468-4 12.936-4 6.47 0 6.47 4 12.939 4 6.467 0 6.467-4 12.936-4 6.472 0 6.472 4 12.943 4s6.472-4 12.944-4"/><path fill="none" stroke="#EFEFEF" stroke-miterlimit="10" d="M1759 .5c6.468 0 6.468 4 12.935 4 6.468 0 6.468-4 12.937-4 6.466 0 6.466 4 12.931 4 6.468 0 6.468-4 12.936-4 6.47 0 6.47 4 12.939 4 6.467 0 6.467-4 12.936-4 6.472 0 6.472 4 12.943 4s6.472-4 12.944-4M1759 5.367c6.468 0 6.468 4 12.935 4 6.468 0 6.468-4 12.937-4 6.466 0 6.466 4 12.931 4 6.468 0 6.468-4 12.936-4 6.47 0 6.47 4 12.939 4 6.467 0 6.467-4 12.936-4 6.472 0 6.472 4 12.943 4s6.472-4 12.944-4M1759 10.235c6.468 0 6.468 4 12.935 4 6.468 0 6.468-4 12.937-4 6.466 0 6.466 4 12.931 4 6.468 0 6.468-4 12.936-4 6.47 0 6.47 4 12.939 4 6.467 0 6.467-4 12.936-4 6.472 0 6.472 4 12.943 4s6.472-4 12.944-4M1759 15.104c6.468 0 6.468 4 12.935 4 6.468 0 6.468-4 12.937-4 6.466 0 6.466 4 12.931 4 6.468 0 6.468-4 12.936-4 6.47 0 6.47 4 12.939 4 6.467 0 6.467-4 12.936-4 6.472 0 6.472 4 12.943 4s6.472-4 12.944-4M1759 19.972c6.468 0 6.468 4 12.935 4 6.468 0 6.468-4 12.937-4 6.466 0 6.466 4 12.931 4 6.468 0 6.468-4 12.936-4 6.47 0 6.47 4 12.939 4 6.467 0 6.467-4 12.936-4 6.472 0 6.472 4 12.943 4s6.472-4 12.944-4M1759 24.84c6.468 0 6.468 4 12.935 4 6.468 0 6.468-4 12.937-4 6.466 0 6.466 4 12.931 4 6.468 0 6.468-4 12.936-4 6.47 0 6.47 4 12.939 4 6.467 0 6.467-4 12.936-4 6.472 0 6.472 4 12.943 4s6.472-4 12.944-4M1759 29.708c6.468 0 6.468 4 12.935 4 6.468 0 6.468-4 12.937-4 6.466 0 6.466 4 12.931 4 6.468 0 6.468-4 12.936-4 6.47 0 6.47 4 12.939 4 6.467 0 6.467-4 12.936-4 6.472 0 6.472 4 12.943 4s6.472-4 12.944-4M1759 34.576c6.468 0 6.468 4 12.935 4 6.468 0 6.468-4 12.937-4 6.466 0 6.466 4 12.931 4 6.468 0 6.468-4 12.936-4 6.47 0 6.47 4 12.939 4 6.467 0 6.467-4 12.936-4 6.472 0 6.472 4 12.943 4s6.472-4 12.944-4M1759 39.443c6.468 0 6.468 4 12.935 4 6.468 0 6.468-4 12.937-4 6.466 0 6.466 4 12.931 4 6.468 0 6.468-4 12.936-4 6.47 0 6.47 4 12.939 4 6.467 0 6.467-4 12.936-4 6.472 0 6.472 4 12.943 4s6.472-4 12.944-4M1759 44.312c6.468 0 6.468 4 12.935 4 6.468 0 6.468-4 12.937-4 6.466 0 6.466 4 12.931 4 6.468 0 6.468-4 12.936-4 6.47 0 6.47 4 12.939 4 6.467 0 6.467-4 12.936-4 6.472 0 6.472 4 12.943 4s6.472-4 12.944-4"/><path fill="none" stroke="#EFEFEF" stroke-miterlimit="10" d="M1862.5.5c6.468 0 6.468 4 12.935 4 6.468 0 6.468-4 12.937-4 6.466 0 6.466 4 12.931 4 6.468 0 6.468-4 12.936-4 6.47 0 6.47 4 12.939 4 6.467 0 6.467-4 12.935-4 6.473 0 6.473 4 12.944 4s6.472-4 12.944-4M1862.5 5.367c6.468 0 6.468 4 12.935 4 6.468 0 6.468-4 12.937-4 6.466 0 6.466 4 12.931 4 6.468 0 6.468-4 12.936-4 6.47 0 6.47 4 12.939 4 6.467 0 6.467-4 12.935-4 6.473 0 6.473 4 12.944 4s6.472-4 12.944-4M1862.5 10.235c6.468 0 6.468 4 12.935 4 6.468 0 6.468-4 12.937-4 6.466 0 6.466 4 12.931 4 6.468 0 6.468-4 12.936-4 6.47 0 6.47 4 12.939 4 6.467 0 6.467-4 12.935-4 6.473 0 6.473 4 12.944 4s6.472-4 12.944-4M1862.5 15.104c6.468 0 6.468 4 12.935 4 6.468 0 6.468-4 12.937-4 6.466 0 6.466 4 12.931 4 6.468 0 6.468-4 12.936-4 6.47 0 6.47 4 12.939 4 6.467 0 6.467-4 12.935-4 6.473 0 6.473 4 12.944 4s6.472-4 12.944-4M1862.5 19.972c6.468 0 6.468 4 12.935 4 6.468 0 6.468-4 12.937-4 6.466 0 6.466 4 12.931 4 6.468 0 6.468-4 12.936-4 6.47 0 6.47 4 12.939 4 6.467 0 6.467-4 12.935-4 6.473 0 6.473 4 12.944 4s6.472-4 12.944-4M1862.5 24.84c6.468 0 6.468 4 12.935 4 6.468 0 6.468-4 12.937-4 6.466 0 6.466 4 12.931 4 6.468 0 6.468-4 12.936-4 6.47 0 6.47 4 12.939 4 6.467 0 6.467-4 12.935-4 6.473 0 6.473 4 12.944 4s6.472-4 12.944-4M1862.5 29.708c6.468 0 6.468 4 12.935 4 6.468 0 6.468-4 12.937-4 6.466 0 6.466 4 12.931 4 6.468 0 6.468-4 12.936-4 6.47 0 6.47 4 12.939 4 6.467 0 6.467-4 12.935-4 6.473 0 6.473 4 12.944 4s6.472-4 12.944-4M1862.5 34.576c6.468 0 6.468 4 12.935 4 6.468 0 6.468-4 12.937-4 6.466 0 6.466 4 12.931 4 6.468 0 6.468-4 12.936-4 6.47 0 6.47 4 12.939 4 6.467 0 6.467-4 12.935-4 6.473 0 6.473 4 12.944 4s6.472-4 12.944-4M1862.5 39.443c6.468 0 6.468 4 12.935 4 6.468 0 6.468-4 12.937-4 6.466 0 6.466 4 12.931 4 6.468 0 6.468-4 12.936-4 6.47 0 6.47 4 12.939 4 6.467 0 6.467-4 12.935-4 6.473 0 6.473 4 12.944 4s6.472-4 12.944-4M1862.5 44.312c6.468 0 6.468 4 12.935 4 6.468 0 6.468-4 12.937-4 6.466 0 6.466 4 12.931 4 6.468 0 6.468-4 12.936-4 6.47 0 6.47 4 12.939 4 6.467 0 6.467-4 12.935-4 6.473 0 6.473 4 12.944 4s6.472-4 12.944-4"/><path fill="none" stroke="#EFEFEF" stroke-miterlimit="10" d="M1966 .5c6.468 0 6.468 4 12.935 4 6.468 0 6.468-4 12.937-4 6.466 0 6.466 4 12.931 4 6.468 0 6.468-4 12.935-4 6.471 0 6.471 4 12.94 4 6.467 0 6.467-4 12.935-4 6.473 0 6.473 4 12.944 4s6.472-4 12.944-4M1966 5.367c6.468 0 6.468 4 12.935 4 6.468 0 6.468-4 12.937-4 6.466 0 6.466 4 12.931 4 6.468 0 6.468-4 12.935-4 6.471 0 6.471 4 12.94 4 6.467 0 6.467-4 12.935-4 6.473 0 6.473 4 12.944 4s6.472-4 12.944-4M1966 10.235c6.468 0 6.468 4 12.935 4 6.468 0 6.468-4 12.937-4 6.466 0 6.466 4 12.931 4 6.468 0 6.468-4 12.935-4 6.471 0 6.471 4 12.94 4 6.467 0 6.467-4 12.935-4 6.473 0 6.473 4 12.944 4s6.472-4 12.944-4M1966 15.104c6.468 0 6.468 4 12.935 4 6.468 0 6.468-4 12.937-4 6.466 0 6.466 4 12.931 4 6.468 0 6.468-4 12.935-4 6.471 0 6.471 4 12.94 4 6.467 0 6.467-4 12.935-4 6.473 0 6.473 4 12.944 4s6.472-4 12.944-4M1966 19.972c6.468 0 6.468 4 12.935 4 6.468 0 6.468-4 12.937-4 6.466 0 6.466 4 12.931 4 6.468 0 6.468-4 12.935-4 6.471 0 6.471 4 12.94 4 6.467 0 6.467-4 12.935-4 6.473 0 6.473 4 12.944 4s6.472-4 12.944-4M1966 24.84c6.468 0 6.468 4 12.935 4 6.468 0 6.468-4 12.937-4 6.466 0 6.466 4 12.931 4 6.468 0 6.468-4 12.935-4 6.471 0 6.471 4 12.94 4 6.467 0 6.467-4 12.935-4 6.473 0 6.473 4 12.944 4s6.472-4 12.944-4M1966 29.708c6.468 0 6.468 4 12.935 4 6.468 0 6.468-4 12.937-4 6.466 0 6.466 4 12.931 4 6.468 0 6.468-4 12.935-4 6.471 0 6.471 4 12.94 4 6.467 0 6.467-4 12.935-4 6.473 0 6.473 4 12.944 4s6.472-4 12.944-4M1966 34.576c6.468 0 6.468 4 12.935 4 6.468 0 6.468-4 12.937-4 6.466 0 6.466 4 12.931 4 6.468 0 6.468-4 12.935-4 6.471 0 6.471 4 12.94 4 6.467 0 6.467-4 12.935-4 6.473 0 6.473 4 12.944 4s6.472-4 12.944-4M1966 39.443c6.468 0 6.468 4 12.935 4 6.468 0 6.468-4 12.937-4 6.466 0 6.466 4 12.931 4 6.468 0 6.468-4 12.935-4 6.471 0 6.471 4 12.94 4 6.467 0 6.467-4 12.935-4 6.473 0 6.473 4 12.944 4s6.472-4 12.944-4M1966 44.312c6.468 0 6.468 4 12.935 4 6.468 0 6.468-4 12.937-4 6.466 0 6.466 4 12.931 4 6.468 0 6.468-4 12.935-4 6.471 0 6.471 4 12.94 4 6.467 0 6.467-4 12.935-4 6.473 0 6.473 4 12.944 4s6.472-4 12.944-4"/></svg>