<?xml version="1.0" encoding="utf-8"?>
<!-- Generator: Adobe Illustrator 15.0.0, SVG Export Plug-In  -->
<!DOCTYPE svg PUBLIC "-//W3C//DTD SVG 1.1//EN" "http://www.w3.org/Graphics/SVG/1.1/DTD/svg11.dtd" [
	<!ENTITY ns_flows "http://ns.adobe.com/Flows/1.0/">
]>
<svg version="1.1"
	 xmlns="http://www.w3.org/2000/svg" xmlns:xlink="http://www.w3.org/1999/xlink" xmlns:a="http://ns.adobe.com/AdobeSVGViewerExtensions/3.0/"
	 x="0px" y="0px" width="104px" height="49px" viewBox="0 0 104 49" overflow="visible" enable-background="new 0 0 104 49"
	 xml:space="preserve">
<defs>
</defs>
<path fill="none" stroke="#EFEFEF" stroke-miterlimit="10" d="M0,0.5c6.468,0,6.468,4,12.935,4c6.468,0,6.468-4,12.936-4
	c6.466,0,6.466,4,12.931,4c6.468,0,6.468-4,12.935-4c6.47,0,6.47,4,12.94,4c6.468,0,6.468-4,12.935-4c6.473,0,6.473,4,12.945,4
	c6.471,0,6.471-4,12.943-4"/>
<path fill="none" stroke="#EFEFEF" stroke-miterlimit="10" d="M0,5.367c6.468,0,6.468,4,12.935,4c6.468,0,6.468-4,12.936-4
	c6.466,0,6.466,4,12.931,4c6.468,0,6.468-4,12.935-4c6.47,0,6.47,4,12.94,4c6.468,0,6.468-4,12.935-4c6.473,0,6.473,4,12.945,4
	c6.471,0,6.471-4,12.943-4"/>
<path fill="none" stroke="#EFEFEF" stroke-miterlimit="10" d="M0,10.235c6.468,0,6.468,4,12.935,4c6.468,0,6.468-4,12.936-4
	c6.466,0,6.466,4,12.931,4c6.468,0,6.468-4,12.935-4c6.47,0,6.47,4,12.94,4c6.468,0,6.468-4,12.935-4c6.473,0,6.473,4,12.945,4
	c6.471,0,6.471-4,12.943-4"/>
<path fill="none" stroke="#EFEFEF" stroke-miterlimit="10" d="M0,15.104c6.468,0,6.468,4,12.935,4c6.468,0,6.468-4,12.936-4
	c6.466,0,6.466,4,12.931,4c6.468,0,6.468-4,12.935-4c6.47,0,6.47,4,12.94,4c6.468,0,6.468-4,12.935-4c6.473,0,6.473,4,12.945,4
	c6.471,0,6.471-4,12.943-4"/>
<path fill="none" stroke="#EFEFEF" stroke-miterlimit="10" d="M0,19.972c6.468,0,6.468,4,12.935,4c6.468,0,6.468-4,12.936-4
	c6.466,0,6.466,4,12.931,4c6.468,0,6.468-4,12.935-4c6.47,0,6.47,4,12.94,4c6.468,0,6.468-4,12.935-4c6.473,0,6.473,4,12.945,4
	c6.471,0,6.471-4,12.943-4"/>
<path fill="none" stroke="#EFEFEF" stroke-miterlimit="10" d="M0,24.84c6.468,0,6.468,4,12.935,4c6.468,0,6.468-4,12.936-4
	c6.466,0,6.466,4,12.931,4c6.468,0,6.468-4,12.935-4c6.47,0,6.47,4,12.94,4c6.468,0,6.468-4,12.935-4c6.473,0,6.473,4,12.945,4
	c6.471,0,6.471-4,12.943-4"/>
<path fill="none" stroke="#EFEFEF" stroke-miterlimit="10" d="M0,29.708c6.468,0,6.468,4,12.935,4c6.468,0,6.468-4,12.936-4
	c6.466,0,6.466,4,12.931,4c6.468,0,6.468-4,12.935-4c6.47,0,6.47,4,12.94,4c6.468,0,6.468-4,12.935-4c6.473,0,6.473,4,12.945,4
	c6.471,0,6.471-4,12.943-4"/>
<path fill="none" stroke="#EFEFEF" stroke-miterlimit="10" d="M0,34.576c6.468,0,6.468,4,12.935,4c6.468,0,6.468-4,12.936-4
	c6.466,0,6.466,4,12.931,4c6.468,0,6.468-4,12.935-4c6.47,0,6.47,4,12.94,4c6.468,0,6.468-4,12.935-4c6.473,0,6.473,4,12.945,4
	c6.471,0,6.471-4,12.943-4"/>
<path fill="none" stroke="#EFEFEF" stroke-miterlimit="10" d="M0,39.443c6.468,0,6.468,4,12.935,4c6.468,0,6.468-4,12.936-4
	c6.466,0,6.466,4,12.931,4c6.468,0,6.468-4,12.935-4c6.47,0,6.47,4,12.94,4c6.468,0,6.468-4,12.935-4c6.473,0,6.473,4,12.945,4
	c6.471,0,6.471-4,12.943-4"/>
<path fill="none" stroke="#EFEFEF" stroke-miterlimit="10" d="M0,44.312c6.468,0,6.468,4,12.935,4c6.468,0,6.468-4,12.936-4
	c6.466,0,6.466,4,12.931,4c6.468,0,6.468-4,12.935-4c6.47,0,6.47,4,12.94,4c6.468,0,6.468-4,12.935-4c6.473,0,6.473,4,12.945,4
	c6.471,0,6.471-4,12.943-4"/>
</svg>
