<svg xmlns="http://www.w3.org/2000/svg" width="104" height="49" viewBox="0 0 104 49"><path fill="none" stroke="#EFEFEF" stroke-miterlimit="10" d="M0 .5c6.468 0 6.468 4 12.935 4 6.468 0 6.468-4 12.936-4 6.466 0 6.466 4 12.931 4 6.468 0 6.468-4 12.935-4 6.47 0 6.47 4 12.94 4 6.468 0 6.468-4 12.935-4 6.473 0 6.473 4 12.945 4 6.471 0 6.471-4 12.943-4M0 5.367c6.468 0 6.468 4 12.935 4 6.468 0 6.468-4 12.936-4 6.466 0 6.466 4 12.931 4 6.468 0 6.468-4 12.935-4 6.47 0 6.47 4 12.94 4 6.468 0 6.468-4 12.935-4 6.473 0 6.473 4 12.945 4 6.471 0 6.471-4 12.943-4M0 10.235c6.468 0 6.468 4 12.935 4 6.468 0 6.468-4 12.936-4 6.466 0 6.466 4 12.931 4 6.468 0 6.468-4 12.935-4 6.47 0 6.47 4 12.94 4 6.468 0 6.468-4 12.935-4 6.473 0 6.473 4 12.945 4 6.471 0 6.471-4 12.943-4M0 15.104c6.468 0 6.468 4 12.935 4 6.468 0 6.468-4 12.936-4 6.466 0 6.466 4 12.931 4 6.468 0 6.468-4 12.935-4 6.47 0 6.47 4 12.94 4 6.468 0 6.468-4 12.935-4 6.473 0 6.473 4 12.945 4 6.471 0 6.471-4 12.943-4M0 19.972c6.468 0 6.468 4 12.935 4 6.468 0 6.468-4 12.936-4 6.466 0 6.466 4 12.931 4 6.468 0 6.468-4 12.935-4 6.47 0 6.47 4 12.94 4 6.468 0 6.468-4 12.935-4 6.473 0 6.473 4 12.945 4 6.471 0 6.471-4 12.943-4M0 24.84c6.468 0 6.468 4 12.935 4 6.468 0 6.468-4 12.936-4 6.466 0 6.466 4 12.931 4 6.468 0 6.468-4 12.935-4 6.47 0 6.47 4 12.94 4 6.468 0 6.468-4 12.935-4 6.473 0 6.473 4 12.945 4 6.471 0 6.471-4 12.943-4M0 29.708c6.468 0 6.468 4 12.935 4 6.468 0 6.468-4 12.936-4 6.466 0 6.466 4 12.931 4 6.468 0 6.468-4 12.935-4 6.47 0 6.47 4 12.94 4 6.468 0 6.468-4 12.935-4 6.473 0 6.473 4 12.945 4 6.471 0 6.471-4 12.943-4M0 34.576c6.468 0 6.468 4 12.935 4 6.468 0 6.468-4 12.936-4 6.466 0 6.466 4 12.931 4 6.468 0 6.468-4 12.935-4 6.47 0 6.47 4 12.94 4 6.468 0 6.468-4 12.935-4 6.473 0 6.473 4 12.945 4 6.471 0 6.471-4 12.943-4M0 39.443c6.468 0 6.468 4 12.935 4 6.468 0 6.468-4 12.936-4 6.466 0 6.466 4 12.931 4 6.468 0 6.468-4 12.935-4 6.47 0 6.47 4 12.94 4 6.468 0 6.468-4 12.935-4 6.473 0 6.473 4 12.945 4 6.471 0 6.471-4 12.943-4M0 44.312c6.468 0 6.468 4 12.935 4 6.468 0 6.468-4 12.936-4 6.466 0 6.466 4 12.931 4 6.468 0 6.468-4 12.935-4 6.47 0 6.47 4 12.94 4 6.468 0 6.468-4 12.935-4 6.473 0 6.473 4 12.945 4 6.471 0 6.471-4 12.943-4"/></svg>
