<svg width="60" height="45" viewBox="0 0 60 45" xmlns="http://www.w3.org/2000/svg"><title>desktop</title><g fill="none" fill-rule="evenodd"><path d="M59 41.307V3.693C59 2.208 57.763 1 56.243 1H3.757C2.237 1 1 2.208 1 3.693v37.614C1 42.792 2.237 44 3.757 44h52.486C57.763 44 59 42.79 59 41.307zM58.85 8H1" stroke="#fff" stroke-width=".75"/><path d="M10 5c0 .533-.468 1-1 1-.535 0-1-.467-1-1 0-.533.465-1 1-1 .6 0 1 .467 1 1M6 4c-.532 0-1 .468-1 1 0 .534.468 1 1 1 .534 0 1-.466 1-1 0-.532-.4-1-1-1m6 0c-.532 0-1 .468-1 1 0 .534.468 1 1 1 .534 0 1-.466 1-1 0-.532-.4-1-1-1" fill="#fff"/></g></svg>
