<?xml version="1.0" encoding="UTF-8"?>
<svg width="28px" height="17px" viewBox="0 0 28 17" version="1.1" xmlns="http://www.w3.org/2000/svg" xmlns:xlink="http://www.w3.org/1999/xlink">
    <!-- Generator: Sketch 44.1 (41455) - http://www.bohemiancoding.com/sketch -->
    <title>Fill 1</title>
    <desc>Created with Sketch.</desc>
    <defs></defs>
    <g id="Page-1" stroke="none" stroke-width="1" fill="none" fill-rule="evenodd">
        <g id="Mobile" transform="translate(-20.000000, -29.000000)" fill="#FFFFFF">
            <g id="Header">
                <g id="Back" transform="translate(20.000000, 29.000000)">
                    <path d="M26.8413679,7.56772 L3.98871071,7.56772 L8.99283571,2.51418667 C9.44802143,2.05450667 9.44802143,1.30605333 8.99283571,0.846373333 C8.53765,0.383746667 7.79651429,0.383746667 7.34132857,0.846373333 L0.329717857,7.92426667 L0.0904535714,8.30438667 L0,8.75228 L0.0904535714,9.20312 L0.329717857,9.57145333 L0.341389286,9.58029333 L7.34132857,16.6611333 C7.79651429,17.1090267 8.53765,17.1090267 8.99283571,16.6611333 C9.44802143,16.2014533 9.44802143,15.453 8.99283571,14.9903733 L3.98871071,9.928 L26.8413679,9.928 C27.49205,9.928 28.0172643,9.3976 28.0172643,8.75228 C28.0172643,8.09812 27.49205,7.56772 26.8413679,7.56772 Z" id="Fill-1"></path>
                </g>
            </g>
        </g>
    </g>
</svg>