<?xml version="1.0" encoding="UTF-8" standalone="no"?>
<svg width="56px" height="43px" viewBox="0 0 56 43" version="1.1" xmlns="http://www.w3.org/2000/svg" xmlns:xlink="http://www.w3.org/1999/xlink">
    <!-- Generator: Sketch 41.2 (35397) - http://www.bohemiancoding.com/sketch -->
    <title>email</title>
    <desc>Created with Sketch.</desc>
    <defs>
        <filter x="-50%" y="-50%" width="200%" height="200%" filterUnits="objectBoundingBox" id="filter-1">
            <feOffset dx="0" dy="2" in="SourceAlpha" result="shadowOffsetOuter1"></feOffset>
            <feGaussianBlur stdDeviation="4" in="shadowOffsetOuter1" result="shadowBlurOuter1"></feGaussianBlur>
            <feComposite in="shadowBlurOuter1" in2="SourceAlpha" operator="out" result="shadowBlurOuter1"></feComposite>
            <feColorMatrix values="0 0 0 0 0   0 0 0 0 0   0 0 0 0 0  0 0 0 0.5 0" type="matrix" in="shadowBlurOuter1" result="shadowMatrixOuter1"></feColorMatrix>
            <feMerge>
                <feMergeNode in="shadowMatrixOuter1"></feMergeNode>
                <feMergeNode in="SourceGraphic"></feMergeNode>
            </feMerge>
        </filter>
        <filter x="-50%" y="-50%" width="200%" height="200%" filterUnits="objectBoundingBox" id="filter-2">
            <feGaussianBlur stdDeviation="0" in="SourceGraphic"></feGaussianBlur>
        </filter>
    </defs>
    <g id="Baseline---helvetica_spacing" stroke="none" stroke-width="1" fill="none" fill-rule="evenodd">
        <g id="sidebar_centered-copy-" transform="translate(-497.000000, -1115.000000)" fill="#0250AA">
            <g id="sidebar_open_centered" filter="url(#filter-2)" transform="translate(1.000000, 0.000000)">
                <g id="social-icons*" transform="translate(69.300000, 1115.100000)">
                    <path d="M437.19375,6.3 C435.833783,6.3 434.7,7.43772019 434.7,8.80240885 L434.7,30.0728966 C434.7,31.4375853 435.833783,32.5753055 437.19375,32.5753055 L472.10625,32.5753055 C473.466217,32.5753055 474.6,31.4375853 474.6,30.0728966 L474.6,8.80240885 C474.6,7.43772019 473.466217,6.3 472.10625,6.3 L437.19375,6.3 L437.19375,6.3 Z M439.317303,8.80240885 L469.982697,8.80240885 L454.65,22.1550873 L439.317303,8.80240885 L439.317303,8.80240885 Z M437.19375,10.249114 L453.831738,24.7552778 C454.300951,25.1647119 454.999049,25.1647119 455.468262,24.7552778 L472.10625,10.249114 L472.10625,30.0728966 L437.19375,30.0728966 L437.19375,10.249114 L437.19375,10.249114 Z" id="email"></path>
                </g>
            </g>
        </g>
    </g>
</svg>