<?xml version="1.0" encoding="UTF-8" standalone="no"?>
<svg width="54px" height="54px" viewBox="0 0 54 54" version="1.1" xmlns="http://www.w3.org/2000/svg" xmlns:xlink="http://www.w3.org/1999/xlink">
    <!-- Generator: Sketch 41.2 (35397) - http://www.bohemiancoding.com/sketch -->
    <title>instagram</title>
    <desc>Created with Sketch.</desc>
    <defs>
        <filter x="-50%" y="-50%" width="200%" height="200%" filterUnits="objectBoundingBox" id="filter-1">
            <feOffset dx="0" dy="2" in="SourceAlpha" result="shadowOffsetOuter1"></feOffset>
            <feGaussianBlur stdDeviation="4" in="shadowOffsetOuter1" result="shadowBlurOuter1"></feGaussianBlur>
            <feComposite in="shadowBlurOuter1" in2="SourceAlpha" operator="out" result="shadowBlurOuter1"></feComposite>
            <feColorMatrix values="0 0 0 0 0   0 0 0 0 0   0 0 0 0 0  0 0 0 0.5 0" type="matrix" in="shadowBlurOuter1" result="shadowMatrixOuter1"></feColorMatrix>
            <feMerge>
                <feMergeNode in="shadowMatrixOuter1"></feMergeNode>
                <feMergeNode in="SourceGraphic"></feMergeNode>
            </feMerge>
        </filter>
        <filter x="-50%" y="-50%" width="200%" height="200%" filterUnits="objectBoundingBox" id="filter-2">
            <feGaussianBlur stdDeviation="0" in="SourceGraphic"></feGaussianBlur>
        </filter>
    </defs>
    <g id="Baseline---helvetica_spacing" stroke="none" stroke-width="1" fill="none" fill-rule="evenodd">
        <g id="sidebar_centered-copy-" transform="translate(-276.000000, -1109.000000)" fill="#0250AA">
            <g id="sidebar_open_centered" filter="url(#filter-2)" transform="translate(1.000000, 0.000000)">
                <g id="social-icons*" transform="translate(69.300000, 1115.100000)">
                    <path d="M232.9,0 C227.766288,0 227.123687,0.023625 225.108475,0.1134 C223.095625,0.2079 221.725375,0.524475 220.5205,0.99225 C219.277825,1.4742 218.221788,2.121525 217.172838,3.1728375 C216.121525,4.2217875 215.471837,5.2754625 214.99225,6.5205 C214.524475,7.725375 214.205537,9.095625 214.1134,11.108475 C214.0189,13.1236875 214,13.7662875 214,18.9 C214,24.0337125 214.023625,24.6763125 214.1134,26.691525 C214.2079,28.704375 214.524475,30.0769875 214.99225,31.2795 C215.4742,32.522175 216.121525,33.5782125 217.172838,34.6271625 C218.221788,35.678475 219.275463,36.3281625 220.5205,36.80775 C221.725375,37.275525 223.095625,37.5944625 225.108475,37.6866 C227.123687,37.7811 227.766288,37.8 232.9,37.8 C238.033713,37.8 238.676312,37.776375 240.691525,37.6866 C242.704375,37.5921 244.076988,37.275525 245.2795,36.80775 C246.522175,36.3258 247.578213,35.678475 248.627162,34.6271625 C249.678475,33.5782125 250.328163,32.5245375 250.80775,31.2795 C251.275525,30.074625 251.594463,28.704375 251.6866,26.691525 C251.7811,24.6763125 251.8,24.0337125 251.8,18.9 C251.8,13.7662875 251.776375,13.1236875 251.6866,11.108475 C251.5921,9.095625 251.275525,7.7230125 250.80775,6.5205 C250.3258,5.277825 249.678475,4.2217875 248.627162,3.1728375 C247.578213,2.121525 246.524538,1.4718375 245.2795,0.99225 C244.074625,0.524475 242.704375,0.2055375 240.691525,0.1134 C238.676312,0.0189 238.033713,0 232.9,0 Z M232.9,3.402 C237.9463,3.402 238.546375,3.425625 240.537963,3.5154 C242.380713,3.60045 243.38005,3.907575 244.046275,4.16745 C244.92985,4.5100125 245.558275,4.918725 246.219775,5.580225 C246.881275,6.241725 247.289988,6.87015 247.63255,7.753725 C247.892425,8.41995 248.19955,9.4192875 248.2846,11.2620375 C248.374375,13.2559875 248.395638,13.8537 248.395638,18.9 C248.395638,23.9463 248.372013,24.546375 248.277513,26.5379625 C248.183013,28.3807125 247.875888,29.38005 247.616013,30.046275 C247.261638,30.92985 246.860013,31.558275 246.198513,32.219775 C245.537013,32.881275 244.899138,33.2899875 244.025013,33.63255 C243.363513,33.892425 242.347638,34.19955 240.504888,34.2846 C238.496763,34.374375 237.906138,34.3956375 232.850388,34.3956375 C227.794638,34.3956375 227.204013,34.3720125 225.195888,34.2775125 C223.353138,34.1830125 222.337263,33.8758875 221.675763,33.6160125 C220.778013,33.2616375 220.163763,32.8600125 219.502263,32.1985125 C218.840763,31.5370125 218.415513,30.8991375 218.084763,30.0250125 C217.824888,29.3635125 217.517763,28.3476375 217.423263,26.5048875 C217.352388,24.5203875 217.328763,23.9061375 217.328763,18.8740125 C217.328763,13.8418875 217.352388,13.2276375 217.423263,11.2195125 C217.517763,9.3767625 217.824888,8.3608875 218.084763,7.6993875 C218.415513,6.8016375 218.840763,6.1873875 219.502263,5.5258875 C220.163763,4.8643875 220.778013,4.4391375 221.675763,4.1083875 C222.337263,3.8485125 223.329513,3.5413875 225.172263,3.4468875 C227.180388,3.3760125 227.771013,3.3523875 232.826763,3.3523875 L232.9,3.402 Z M232.9,9.19485 C227.537125,9.19485 223.19485,13.54185 223.19485,18.9 C223.19485,24.262875 227.54185,28.60515 232.9,28.60515 C238.262875,28.60515 242.60515,24.25815 242.60515,18.9 C242.60515,13.537125 238.25815,9.19485 232.9,9.19485 L232.9,9.19485 Z M232.9,25.2007875 C229.420038,25.2007875 226.599213,22.3799625 226.599213,18.9 C226.599213,15.4200375 229.420038,12.5992125 232.9,12.5992125 C236.379963,12.5992125 239.200788,15.4200375 239.200788,18.9 C239.200788,22.3799625 236.379963,25.2007875 232.9,25.2007875 Z M245.255875,8.812125 C245.255875,10.06425 244.24,11.080125 242.987875,11.080125 C241.73575,11.080125 240.719875,10.06425 240.719875,8.812125 C240.719875,7.56 241.73575,6.544125 242.987875,6.544125 C244.24,6.544125 245.255875,7.56 245.255875,8.812125 Z" id="instagram"></path>
                </g>
            </g>
        </g>
    </g>
</svg>