<?xml version="1.0" encoding="UTF-8" standalone="no"?>
<svg width="43px" height="51px" viewBox="0 0 43 51" version="1.1" xmlns="http://www.w3.org/2000/svg" xmlns:xlink="http://www.w3.org/1999/xlink">
    <!-- Generator: Sketch 41.2 (35397) - http://www.bohemiancoding.com/sketch -->
    <title>pinterest</title>
    <desc>Created with Sketch.</desc>
    <defs>
        <filter x="-50%" y="-50%" width="200%" height="200%" filterUnits="objectBoundingBox" id="filter-1">
            <feOffset dx="0" dy="2" in="SourceAlpha" result="shadowOffsetOuter1"></feOffset>
            <feGaussianBlur stdDeviation="4" in="shadowOffsetOuter1" result="shadowBlurOuter1"></feGaussianBlur>
            <feComposite in="shadowBlurOuter1" in2="SourceAlpha" operator="out" result="shadowBlurOuter1"></feComposite>
            <feColorMatrix values="0 0 0 0 0   0 0 0 0 0   0 0 0 0 0  0 0 0 0.5 0" type="matrix" in="shadowBlurOuter1" result="shadowMatrixOuter1"></feColorMatrix>
            <feMerge>
                <feMergeNode in="shadowMatrixOuter1"></feMergeNode>
                <feMergeNode in="SourceGraphic"></feMergeNode>
            </feMerge>
        </filter>
        <filter x="-50%" y="-50%" width="200%" height="200%" filterUnits="objectBoundingBox" id="filter-2">
            <feGaussianBlur stdDeviation="0" in="SourceGraphic"></feGaussianBlur>
        </filter>
    </defs>
    <g id="Baseline---helvetica_spacing" stroke="none" stroke-width="1" fill="none" fill-rule="evenodd">
        <g id="sidebar_centered-copy-" transform="translate(-394.000000, -1111.000000)" fill="#0250AA">
            <g id="sidebar_open_centered" filter="url(#filter-2)" transform="translate(1.000000, 0.000000)">
                <g id="social-icons*" transform="translate(69.300000, 1115.100000)">
                    <path d="M331.8,24.6917143 C331.8,26.2362857 332.067576,27.6934286 332.599113,29.0558571 C333.130649,30.4182857 333.864675,31.6131429 334.804808,32.6295 C335.74494,33.6458571 336.822477,34.5237857 338.041033,35.2669286 C339.263205,36.0100714 340.575775,36.5674286 341.982358,36.939 C343.38894,37.3105714 344.820834,37.4963571 346.285272,37.4963571 C348.527126,37.4963571 350.617113,37.0191429 352.548,36.0683571 C354.478887,35.1175714 356.048185,33.7332857 357.255894,31.9155 C358.463603,30.0977143 359.067457,28.0467857 359.067457,25.7590714 C359.067457,24.3857143 358.933669,23.0415 358.662477,21.7264286 C358.391285,20.4113571 357.968225,19.1436429 357.386066,17.9305714 C356.803907,16.7175 356.095192,15.6465 355.256305,14.7248571 C354.417417,13.8032143 353.390503,13.0673571 352.168331,12.5136429 C350.946159,11.9635714 349.604662,11.6867143 348.143841,11.6867143 C347.178397,11.6867143 346.220185,11.9162143 345.269205,12.3715714 C344.318225,12.8305714 343.634821,13.4571429 343.226225,14.2585714 C343.085205,13.7012143 342.886331,12.8961429 342.629603,11.8433571 C342.372874,10.7905714 342.206543,10.113 342.130609,9.807 C342.05106,9.501 341.906424,8.991 341.693086,8.28428571 C341.479748,7.57757143 341.295338,7.06757143 341.139854,6.76157143 C340.984371,6.45557143 340.75657,6.0075 340.460066,5.421 C340.163563,4.8345 339.834517,4.28078571 339.480159,3.75985714 C339.125801,3.23892857 338.684662,2.61964286 338.160358,1.90564286 L337.863854,1.8 L337.672212,2.01492857 C337.458874,4.25892857 337.354013,5.60678571 337.354013,6.04757143 C337.354013,7.36264286 337.505881,8.84164286 337.813232,10.4772857 C338.116967,12.1165714 338.590649,14.1711429 339.230662,16.6446429 C339.870675,19.1181429 340.239497,20.5716429 340.337126,21.0015 C339.881523,21.9304286 339.657338,23.1398571 339.657338,24.6261429 C339.657338,25.8137143 340.026159,26.9284286 340.763801,27.9739286 C341.501444,29.0194286 342.43796,29.5403571 343.573351,29.5403571 C344.441166,29.5403571 345.113722,29.2489286 345.594636,28.6697143 C346.079166,28.0905 346.317815,27.3582857 346.317815,26.4694286 C346.317815,25.5259286 346.006848,24.1598571 345.381298,22.3712143 C344.755748,20.5825714 344.444781,19.2456429 344.444781,18.3604286 C344.444781,17.4606429 344.76298,16.7102143 345.402993,16.1200714 C346.043007,15.5262857 346.816808,15.2312143 347.724397,15.2312143 C348.50543,15.2312143 349.228609,15.4097143 349.89755,15.7667143 C350.56649,16.1237143 351.123338,16.6118571 351.568093,17.2238571 C352.012848,17.8358571 352.414212,18.5170714 352.761338,19.2638571 C353.108464,20.007 353.379656,20.7975 353.571298,21.6353571 C353.76294,22.4732143 353.90396,23.2673571 353.997974,24.0177857 C354.091987,24.7682143 354.135377,25.4785714 354.135377,26.1525 C354.135377,28.626 353.35796,30.5530714 351.803126,31.9337143 C350.248291,33.3143571 348.223391,34.0028571 345.724808,34.0028571 C342.886331,34.0028571 340.514305,33.0775714 338.612344,31.2233571 C336.710384,29.3727857 335.759404,27.0231429 335.759404,24.1744286 C335.759404,23.5442143 335.849801,22.9358571 336.02698,22.3493571 C336.204159,21.7628571 336.395801,21.2965714 336.601907,20.9541429 C336.808013,20.6117143 336.999656,20.2838571 337.176834,19.9778571 C337.354013,19.6718571 337.444411,19.4532857 337.444411,19.3221429 C337.444411,18.9214286 337.33955,18.4005 337.126212,17.7557143 C336.912874,17.1109286 336.648914,16.7903571 336.337947,16.7903571 C336.30902,16.7903571 336.189695,16.8122143 335.976358,16.8559286 C335.253179,17.0708571 334.60955,17.4715714 334.049086,18.0580714 C333.488623,18.6445714 333.054715,19.3221429 332.75098,20.0871429 C332.447245,20.8521429 332.215828,21.6244286 332.060344,22.404 C331.875934,23.1872143 331.8,23.9485714 331.8,24.6917143 L331.8,24.6917143 Z" id="pinterest" transform="translate(345.433728, 19.648179) scale(1, -1) translate(-345.433728, -19.648179) "></path>
                </g>
            </g>
        </g>
    </g>
</svg>